<svg width="83" height="97" viewBox="0 0 83 97" fill="none" xmlns="http://www.w3.org/2000/svg">
<path d="M0.745701 78.8427C0.745701 78.8427 2.69123 80.1151 3.59005 80.0711C4.48888 80.0271 8.0233 75.597 8.0233 75.597L6.18216 74.1897L1.64743 74.9491L0.751499 78.8016" fill="#263238"/>
<path d="M39.317 13.8683C39.7016 15.3415 39.7155 16.8886 39.3575 18.3685C38.9995 19.8485 38.2808 21.2144 37.2671 22.3416C36.3364 23.356 35.1505 24.1858 34.5619 25.4348C33.9095 26.8186 34.1212 28.4458 33.8312 29.9529C33.5413 31.4599 32.2771 33.0607 30.8274 32.6971C32.2018 34.7495 34.2894 36.2477 36.5277 37.2768C38.7661 38.3059 41.1668 38.9099 43.5531 39.5109C44.881 39.8422 46.3133 40.1706 47.5833 39.6546C49.2273 38.989 50.0449 37.1624 50.7031 35.5L56.4382 21.0134" fill="#263238"/>
<path d="M58.952 8.09246C58.951 7.54922 58.7485 7.02612 58.3845 6.62657C58.0205 6.22702 57.5215 5.98008 56.9862 5.93457L46.8758 1.2435C43.2254 0.932715 39.5808 7.53833 39.4301 11.2384C39.2619 15.3431 39.7896 20.2922 40.3347 23.3443C41.4307 29.4837 45.5276 29.601 45.5276 29.601L45.8755 39.5344L58.5635 39.5109L58.952 8.09246Z" fill="#B5715A"/>
<path d="M42.0918 16.1494C42.0948 16.3553 42.177 16.5519 42.321 16.6975C42.465 16.8431 42.6594 16.9262 42.863 16.9293C42.9624 16.9348 43.062 16.9202 43.1558 16.8863C43.2495 16.8524 43.3357 16.7999 43.4091 16.7319C43.4826 16.6639 43.5419 16.5818 43.5835 16.4903C43.6252 16.3988 43.6483 16.2999 43.6517 16.1992C43.6494 15.9936 43.5678 15.797 43.4243 15.6513C43.2808 15.5056 43.0866 15.4224 42.8833 15.4193C42.7835 15.413 42.6835 15.427 42.5892 15.4606C42.495 15.4941 42.4083 15.5465 42.3344 15.6146C42.2606 15.6828 42.201 15.7652 42.1594 15.8571C42.1177 15.9489 42.0947 16.0483 42.0918 16.1494Z" fill="#263238"/>
<path d="M41.0914 14.0502C41.1755 14.1235 41.7902 14.0238 42.6108 14.2085C43.4313 14.3932 43.9967 14.745 44.0953 14.7128C44.1417 14.6981 44.0605 14.5808 43.8053 14.4196C43.4407 14.1976 43.0418 14.039 42.6253 13.9505C42.2262 13.8562 41.8136 13.8363 41.4075 13.8918C41.1465 13.9388 41.048 14.0267 41.0914 14.0502Z" fill="#263238"/>
<path d="M50.0188 15.7389C50.0211 15.9453 50.103 16.1427 50.247 16.2889C50.3911 16.4352 50.586 16.5187 50.7901 16.5218C50.8895 16.5273 50.9891 16.5127 51.0828 16.4788C51.1766 16.4449 51.2628 16.3924 51.3362 16.3244C51.4097 16.2564 51.469 16.1743 51.5106 16.0828C51.5522 15.9913 51.5754 15.8924 51.5787 15.7917C51.5765 15.5858 51.495 15.3889 51.3516 15.2427C51.2081 15.0966 51.014 15.0127 50.8104 15.0089C50.7108 15.0034 50.6111 15.018 50.5172 15.0518C50.4232 15.0857 50.3369 15.1381 50.2632 15.2061C50.1895 15.274 50.13 15.3562 50.088 15.4476C50.0461 15.5391 50.0225 15.6382 50.0188 15.7389Z" fill="#263238"/>
<path d="M48.8678 14.5134C48.9895 14.5427 49.5201 14.1117 50.3958 13.8537C51.2714 13.5957 51.9992 13.6455 52.0745 13.5605C52.1122 13.5195 51.9731 13.4462 51.6541 13.4198C51.1919 13.3922 50.7286 13.4478 50.2856 13.584C49.8549 13.7004 49.4503 13.8995 49.0939 14.1704C48.8649 14.3727 48.804 14.5046 48.8678 14.5134Z" fill="#263238"/>
<path d="M45.9045 20.1837C45.9045 20.1339 45.3826 20.0547 44.5331 19.9638C44.3185 19.9463 44.1156 19.9081 44.075 19.7586C44.0534 19.5352 44.0989 19.3105 44.2055 19.1136C44.3968 18.5829 44.5969 18.0288 44.8056 17.4453C45.6378 15.0734 46.2351 13.1266 46.1394 13.0914C46.0437 13.0562 45.2927 14.9561 44.4606 17.328C44.2634 17.9144 44.0721 18.4715 43.8807 19.0022C43.7506 19.2675 43.7178 19.5708 43.7879 19.8583C43.8205 19.9391 43.8717 20.0108 43.9372 20.0674C44.0028 20.124 44.0809 20.1639 44.1649 20.1837C44.2844 20.213 44.4072 20.2268 44.5302 20.2248C45.3797 20.2453 45.9045 20.2365 45.9045 20.1837Z" fill="#263238"/>
<path d="M45.5276 29.6714C48.399 29.6552 51.2096 28.833 53.646 27.2966C53.646 27.2966 51.8571 31.8293 45.7509 31.3837L45.5276 29.6714Z" fill="#884C3B"/>
<path d="M46.093 22.2507C46.2594 21.9565 46.4887 21.7035 46.7641 21.5103C47.0394 21.317 47.354 21.1884 47.6848 21.1336C47.8773 21.1112 48.072 21.1482 48.2433 21.2398C48.4146 21.3314 48.5545 21.4732 48.6445 21.6467C48.7411 21.8739 48.782 22.1212 48.7638 22.3677C48.7457 22.6143 48.6689 22.8527 48.5401 23.0628C48.4163 23.2839 48.2311 23.4634 48.0074 23.5791C47.7838 23.6947 47.5315 23.7416 47.2818 23.7137C46.8686 23.6039 46.4972 23.3722 46.2148 23.0482C46.1185 22.9704 46.0427 22.8697 45.9944 22.755C45.9694 22.6814 45.9613 22.603 45.9708 22.5257C45.9804 22.4485 46.0073 22.3745 46.0495 22.3093" fill="#884C3B"/>
<path d="M48.398 20.7232C48.2589 20.7232 48.2763 21.6409 47.5108 22.3123C46.7454 22.9837 45.7711 22.8987 45.7711 23.0335C45.7711 23.0922 45.9915 23.2065 46.4032 23.2095C46.935 23.2038 47.448 23.0098 47.853 22.6612C48.2423 22.3233 48.4874 21.8464 48.5372 21.3301C48.5662 20.9431 48.4589 20.7173 48.398 20.7232Z" fill="#263238"/>
<path d="M48.2241 10.4762C48.3343 10.6961 49.1548 10.4762 50.1464 10.4762C51.138 10.4762 51.9644 10.6462 52.0716 10.4234C52.1151 10.3178 51.9528 10.1302 51.6077 9.93669C51.1487 9.71655 50.646 9.60529 50.138 9.61138C49.63 9.61748 49.1301 9.74078 48.6764 9.97187C48.3372 10.1683 48.1777 10.3706 48.2241 10.4762Z" fill="#263238"/>
<path d="M40.3289 13.0211C40.5174 13.2116 41.2335 12.9918 42.0976 12.9595C42.9616 12.9273 43.6981 13.0504 43.8633 12.8422C43.9329 12.7425 43.814 12.549 43.4893 12.379C43.0392 12.1562 42.5397 12.0552 42.0396 12.0858C41.5442 12.1024 41.0616 12.2489 40.6391 12.5109C40.3434 12.7279 40.2477 12.9302 40.3289 13.0211Z" fill="#263238"/>
<path d="M65.1829 23.3062C64.6581 20.5737 63.017 11.819 60.5989 7.25396C58.1808 2.68896 55.4176 0.885832 52.7327 0.217355C51.7135 -0.0627425 50.64 -0.0722853 49.6161 0.189649C48.5922 0.451582 47.6523 0.97614 46.8874 1.71264C45.7074 2.83263 45.3681 6.01669 45.3681 6.01669C45.3681 6.01669 51.8426 7.30967 54.0955 10.9716C56.6876 15.176 57.3399 17.3075 57.3399 17.3075L58.2098 19.6208C58.2098 19.6208 58.894 30.8823 58.6679 33.1076L68.3926 36.6582C66.305 32.316 65.7106 26.0476 65.1829 23.3062Z" fill="#263238"/>
<path d="M45.7654 5.96682C45.7654 5.96682 41.4974 5.744 40.2332 9.98062C39.6533 11.8981 39.5953 17.4717 39.5953 17.4717C39.5953 17.4717 38.682 13.0533 38.8212 10.5582C38.9604 8.06314 40.1172 4.88788 41.9642 3.0994C43.7589 1.36078 45.2899 0.528115 48.5749 0.651255C48.5749 0.651255 48.1052 1.59533 47.2963 2.87365C46.8903 3.51574 46.2525 3.5861 45.7654 5.96682Z" fill="#263238"/>
<path d="M57.3022 17.633C57.3399 16.2667 58.7867 15.3226 59.9697 15.9794C60.6192 16.3371 61.1295 17.0788 61.1034 18.5301C61.0367 22.3915 57.2152 21.5266 57.2094 21.4151C57.2123 21.3565 57.2616 19.2309 57.3022 17.633Z" fill="#B5715A"/>
<path d="M58.4011 19.9726C58.4185 19.9726 58.4678 20.0225 58.5809 20.0752C58.7374 20.1463 58.915 20.1537 59.0767 20.0958C59.4826 19.9521 59.8335 19.31 59.8653 18.6298C59.8801 18.2984 59.8216 17.9679 59.6943 17.6623C59.6614 17.5409 59.5995 17.4295 59.514 17.338C59.4286 17.2465 59.3222 17.1776 59.2043 17.1374C59.1282 17.1147 59.0466 17.1198 58.9739 17.152C58.9012 17.1842 58.8421 17.2414 58.8071 17.3134C58.7549 17.4218 58.7781 17.4981 58.7578 17.5039C58.7375 17.5098 58.6766 17.4394 58.7114 17.2811C58.7324 17.1849 58.787 17.0996 58.865 17.0407C58.9714 16.9631 59.1035 16.9306 59.2333 16.9498C59.3899 16.9833 59.5354 17.057 59.6557 17.1638C59.7761 17.2706 59.8672 17.4069 59.9204 17.5596C60.0764 17.8977 60.1491 18.2689 60.1321 18.6415C60.0944 19.4185 59.6856 20.1397 59.1318 20.2922C59.0288 20.3202 58.9208 20.3244 58.816 20.3046C58.7111 20.2848 58.6119 20.2415 58.5258 20.1778C58.4069 20.0664 58.3895 19.9785 58.4011 19.9726Z" fill="#884C3B"/>
<path d="M50.0913 0.097168C50.0913 0.126487 49.6564 0.220306 48.9953 0.51643C48.1334 0.902789 47.3918 1.519 46.8497 2.29904C46.317 3.08478 45.9009 3.94513 45.6146 4.85274C45.3826 5.54761 45.2666 5.99032 45.2406 5.98153C45.2459 5.8743 45.2634 5.76806 45.2927 5.66488C45.3333 5.46258 45.4116 5.17525 45.5131 4.82049C45.7734 3.88815 46.1839 3.00554 46.728 2.20815C47.0353 1.77062 47.4068 1.38306 47.8298 1.05884C48.1756 0.797881 48.5526 0.582143 48.9518 0.416746C49.1039 0.35134 49.2598 0.295524 49.4186 0.249625C49.536 0.207958 49.6562 0.174649 49.7782 0.14994C49.8798 0.118408 49.9851 0.100663 50.0913 0.097168Z" fill="#455A64"/>
<path d="M63.4897 29.9998C63.4747 29.974 63.463 29.9465 63.4549 29.9177C63.4317 29.8561 63.4056 29.774 63.3679 29.6744C63.2602 29.3588 63.1768 29.0354 63.1185 28.7068C62.9482 27.4932 62.9482 26.2614 63.1185 25.0478C63.1968 24.2767 63.307 23.4352 63.3795 22.5322C63.4733 21.5736 63.4548 20.6072 63.3244 19.6531C63.1501 18.6049 62.7864 17.5981 62.2516 16.683C61.6767 15.6994 60.9692 14.8014 60.1495 14.015C58.4707 12.3819 56.5107 11.2707 54.742 10.2973C52.9734 9.32391 51.3381 8.48538 50.0449 7.65858C49.0214 7.00814 48.0332 6.30249 47.0846 5.54467C46.7483 5.27493 46.5047 5.05797 46.325 4.91137L46.1307 4.74132C46.0901 4.70027 46.0669 4.67975 46.0698 4.67682L46.1423 4.72959C46.1945 4.77064 46.2612 4.82048 46.3424 4.88792L47.1223 5.49776C47.8008 6.01964 48.8011 6.75555 50.1029 7.56769C51.4048 8.37983 53.0198 9.22129 54.8087 10.18C56.5977 11.1388 58.5548 12.2588 60.2539 13.9124C61.083 14.7089 61.7992 15.6176 62.3821 16.6127C62.9231 17.5456 63.2897 18.5713 63.4636 19.6384C63.5909 20.6038 63.6045 21.5811 63.5042 22.5498C63.4259 23.4587 63.3099 24.3089 63.2142 25.0625C63.0383 26.2688 63.0237 27.4936 63.1707 28.7039C63.2242 29.0307 63.2978 29.3539 63.3911 29.6714C63.423 29.774 63.4462 29.8532 63.4636 29.9177C63.4745 29.9443 63.4832 29.9718 63.4897 29.9998Z" fill="#455A64"/>
<path d="M2.15483 73.9463C2.22171 73.8852 2.29812 73.8357 2.38099 73.7997C2.5988 73.6812 2.82687 73.5831 3.06236 73.5066C3.8447 73.2527 4.67859 73.2073 5.48339 73.3746C6.28664 73.5456 7.03385 73.9198 7.65507 74.4624C7.8409 74.6252 8.0117 74.8048 8.16537 74.9989C8.27555 75.1396 8.32485 75.2217 8.31615 75.2276C8.30745 75.2335 8.06389 74.9344 7.58549 74.5474C6.96595 74.0386 6.2346 73.6878 5.453 73.5245C4.6714 73.3613 3.86244 73.3903 3.09425 73.6092C2.50276 73.7792 2.16643 73.9727 2.15483 73.9463Z" fill="#263238"/>
<path d="M6.34452 71.7621C6.54171 71.8636 6.72098 71.9973 6.87512 72.1579C7.66394 72.8888 8.22089 73.8397 8.47562 74.8904C8.54019 75.1041 8.57054 75.3268 8.5655 75.5501C8.37304 74.8357 8.09761 74.1467 7.74496 73.4978C7.34779 72.8652 6.87768 72.2825 6.34452 71.7621Z" fill="#263238"/>
<path d="M28.4847 96.915C28.4847 96.915 31.5639 81.754 38.0905 78.8221L63.9681 78.054C63.9681 78.054 72.5185 83.8445 73.8871 97L28.4847 96.915Z" fill="#263238"/>
<path d="M45.6552 32.3365C45.6552 32.3365 46.4177 37.1889 51.5381 36.6025C56.6586 36.0161 58.6621 33.1223 58.6621 33.1223L65.7773 35.4297L66.8965 49.3475C62.8392 57.3374 60.5629 66.1292 60.2278 75.1045C60.1698 76.6085 60.1176 78.2592 59.126 79.3821C58.5171 80.0741 57.6357 80.4523 56.7658 80.7513C53.9961 81.6884 51.067 82.0466 48.1563 81.8042C45.2455 81.5617 42.4138 80.7238 39.8331 79.3411C39.8331 79.3411 37.6585 55.528 37.9252 54.8537C38.192 54.1793 41.7525 34.1455 41.7525 34.1455L45.6552 32.3365Z" fill="#E0E0E0"/>
<path d="M38.0905 33.436C38.0905 33.436 33.5674 33.7585 32.3554 34.3713C31.1435 34.984 15.2864 55.0999 14.6688 55.4078C14.1643 55.6629 4.72664 64.5319 0.832686 73.1166C0.0643334 74.8083 -0.530054 77.2213 0.734104 78.8221C0.734104 78.8221 5.28043 73.0491 8.0117 75.5823L20.2242 63.066L32.9817 55.5426L38.0905 33.436Z" fill="#455A64"/>
<g opacity="0.3">
<path d="M42.7151 72.7501C48.0849 62.2656 48.0849 47.0724 45.5247 33.1223L43.2283 52.945L42.7151 72.7501Z" fill="black"/>
</g>
<path d="M31.1348 37.1127L31.5378 54.1178C31.5378 54.1178 33.147 72.9583 33.4572 72.9583C33.7675 72.9583 34.6692 79.5962 33.4572 82.5574C32.2453 85.5186 28.3078 89.5031 28.3078 89.5031L33.2572 94.9154C33.2572 94.9154 37.8963 87.4596 39.317 82.66C40.7377 77.8605 44.6694 70.6128 45.2753 57.1259C45.8813 43.6391 45.632 30.4807 45.632 30.4807L41.7409 33.3305L38.0006 33.4096L31.1348 37.1127Z" fill="#455A64"/>
<path d="M40.1056 81.7541C40.1056 81.7541 40.1056 81.6984 40.1462 81.5928C40.1868 81.4873 40.2187 81.326 40.2767 81.1237L40.7667 79.3147C41.1784 77.7403 41.7612 75.4563 42.3005 72.5977C42.5702 71.1698 42.8282 69.5954 43.0051 67.9066C43.0892 67.0563 43.153 66.1738 43.1733 65.2679C43.2015 64.3339 43.1511 63.3991 43.0225 62.4738C42.9509 61.9959 42.8394 61.5252 42.689 61.0664C42.5354 60.6003 42.3991 60.1253 42.1932 59.662L41.9033 58.9584L41.5902 58.2606C41.3872 57.7915 41.1552 57.3282 40.9262 56.8591C39.9984 54.9915 38.914 53.118 37.7368 51.2416C36.722 49.6202 35.6811 48.0575 34.6257 46.5798L34.5851 46.5212L34.6402 46.4772L42.2106 40.1941L42.2599 40.3114L35.5912 41.0883L35.4578 41.103L35.5419 40.9974C37.4469 38.6519 38.9923 36.7286 40.0622 35.4004L41.2944 33.8846L41.6192 33.4917C41.6945 33.4038 41.7351 33.3627 41.7351 33.3627L41.6307 33.5035L41.3205 33.9051L40.1056 35.4092L35.626 41.0385L35.5767 40.9505L42.2454 40.1501L42.4687 40.1237L42.2947 40.2674L34.733 46.571L34.7475 46.4684C35.8058 47.949 36.8467 49.5117 37.8644 51.136C39.0242 53.0154 40.1259 54.8918 41.0538 56.7712C41.2857 57.2403 41.5177 57.7035 41.7206 58.1785L42.0338 58.8792L42.3237 59.5858C42.5209 60.052 42.6658 60.5299 42.8224 60.999C42.9725 61.4658 43.084 61.9443 43.1559 62.4298C43.2839 63.363 43.3324 64.3057 43.3008 65.2474C43.2805 66.1621 43.2138 67.0475 43.1269 67.9007C42.9442 69.6071 42.6803 71.1816 42.4049 72.6123C41.8482 75.4739 41.2451 77.7549 40.8218 79.3264C40.6043 80.1092 40.4275 80.7161 40.3028 81.1266C40.239 81.326 40.1926 81.4814 40.1578 81.5928C40.123 81.7042 40.1056 81.7541 40.1056 81.7541Z" fill="#263238"/>
<path d="M58.6621 28.9472C58.6621 28.9472 61.1672 32.8525 61.4282 33.1223C61.4282 33.1223 72.0111 36.1509 72.6374 37.4263C75.2121 42.6862 73.1332 44.5773 72.6374 51.8074C72.0198 60.7937 69.045 73.3013 69.045 73.3013C69.045 73.3013 73.2318 89.6174 73.6841 90.5175C74.1364 91.4176 59.4333 96.8856 57.8734 94.8274C56.3135 92.7692 55.0929 85.6798 55.0929 85.6798C55.0929 85.6798 53.6431 71.2753 54.2027 65.5376C54.7623 59.7998 57.3921 53.9008 58.3199 46.9697C59.2652 39.6458 58.6621 28.9472 58.6621 28.9472Z" fill="#455A64"/>
<path d="M54.7333 69.1467C54.7366 69.0754 54.7473 69.0047 54.7652 68.9356C54.7971 68.7861 54.8377 68.5867 54.887 68.3492C54.9363 68.1118 55.0146 67.7629 55.0929 67.4081C55.1712 67.0533 55.3335 66.6399 55.4756 66.1914C56.2885 63.867 57.3915 61.657 58.7578 59.6151C60.1225 57.5744 61.6612 55.6584 63.3563 53.889C64.0087 53.2117 64.5595 52.6869 64.951 52.3351C65.1452 52.1592 65.3047 52.0419 65.412 51.9422C65.4656 51.8969 65.524 51.8576 65.586 51.825C65.586 51.825 64.7161 52.5931 63.4346 53.9623C61.768 55.748 60.2466 57.6669 58.8853 59.7001C57.5281 61.7301 56.4165 63.9172 55.5742 66.2148C55.4292 66.6605 55.2842 67.0621 55.174 67.4198C55.0639 67.7775 55.0088 68.0912 54.945 68.3522C54.8812 68.6131 54.8319 68.792 54.7942 68.9386C54.779 69.0094 54.7586 69.0789 54.7333 69.1467Z" fill="#263238"/>
<path d="M61.4165 33.3041C61.4595 33.3663 61.4955 33.4332 61.5238 33.5034C61.5934 33.65 61.6862 33.8465 61.8138 34.0898C62.0544 34.6176 62.3937 35.3564 62.8141 36.2624C63.0248 36.7237 63.2529 37.2241 63.4983 37.7635L63.8811 38.5991C64.0086 38.8923 64.1536 39.1855 64.2609 39.4963C64.7248 40.7511 65.2351 42.135 65.7715 43.5687L66.9719 46.829L67.0009 46.9082L66.9197 46.9258L64.0927 47.5444L64.1333 47.4564L65.554 50.6112C65.7135 50.9806 65.844 51.2767 65.9397 51.4908L66.0354 51.7253C66.0483 51.7511 66.0571 51.7788 66.0614 51.8074C66.044 51.7849 66.0293 51.7603 66.018 51.7341L65.9049 51.5084L65.4903 50.6434L64.0231 47.5092L63.9883 47.4389L64.0666 47.4213L66.8878 46.785L66.8385 46.8818L65.6207 43.6391C65.0901 42.1937 64.5856 40.8186 64.1246 39.5667C64.0173 39.2471 63.8753 38.9568 63.7477 38.6666L63.3766 37.828L62.7213 36.3093C62.3241 35.3975 61.9964 34.6528 61.7645 34.1221L61.5122 33.5357C61.4738 33.4614 61.4418 33.3839 61.4165 33.3041Z" fill="#263238"/>
<path d="M68.3839 71.4748C68.3839 71.4748 73.7972 76.9486 76.5806 76.6349C79.3641 76.3212 83 70.2228 83 68.1118C83 66.0009 80.3905 52.3909 80.3905 52.3909L81.472 47.2688L71.3239 47.0724L69.2943 62.849L68.3839 71.4748Z" fill="#455A64"/>
<path d="M74.9685 34.9078C74.9614 34.9472 74.9498 34.9856 74.9338 35.0222L74.812 35.3476L74.609 35.8754C74.5191 36.0806 74.4206 36.3181 74.3046 36.582C74.0697 37.1126 73.7624 37.7547 73.3768 38.4818C72.9911 39.209 72.5069 40.0152 71.927 40.8714C70.5636 42.8831 68.9488 44.7082 67.1227 46.3013C66.0491 47.2474 64.8944 48.0952 63.6723 48.8344C62.3603 49.6395 60.9262 50.221 59.4275 50.5555C57.9192 50.8866 56.3545 50.8484 54.8638 50.4441C54.1572 50.2458 53.481 49.9498 52.8545 49.5645C52.2574 49.1901 51.7173 48.7298 51.2511 48.1982C50.4191 47.2001 49.704 46.108 49.12 44.9438C48.5401 43.8736 48.0124 42.868 47.5717 41.9298C47.1697 41.0867 46.8202 40.2192 46.525 39.3321C46.3059 38.6614 46.1354 37.9755 46.0147 37.2798C45.9097 36.6868 45.863 36.0848 45.8755 35.4825C45.8786 35.5225 45.8786 35.5627 45.8755 35.6027C45.8755 35.6877 45.8755 35.8021 45.8958 35.9487C45.9282 36.392 45.9834 36.8334 46.0611 37.271C46.191 37.9621 46.3693 38.643 46.5946 39.3086C46.8973 40.1883 47.2516 41.0489 47.6558 41.8858C48.1023 42.8181 48.6358 43.8179 49.2186 44.8852C49.8009 46.0392 50.5131 47.1214 51.341 48.1103C51.8008 48.6291 52.332 49.0784 52.9183 49.4443C53.5346 49.8198 54.1989 50.1079 54.8928 50.3004C56.3604 50.6955 57.8999 50.7317 59.384 50.406C60.8665 50.0737 62.2856 49.4993 63.5853 48.7054C64.8009 47.9719 65.9505 47.1321 67.0212 46.1957C68.8424 44.6141 70.4569 42.8042 71.8255 40.8098C72.4054 39.9595 72.8867 39.1533 73.2927 38.4408C73.6986 37.7283 73.9972 37.0833 74.2408 36.5585C74.3597 36.2946 74.464 36.0601 74.5568 35.8578L74.7714 35.3359L74.9077 35.0163C74.9238 34.9779 74.9442 34.9415 74.9685 34.9078Z" fill="#263238"/>
<path d="M72.8259 35.2831C72.7747 35.3518 72.7175 35.4156 72.6548 35.4737L72.1503 35.9955L70.2598 37.8925L67.4677 40.7071C66.9077 41.2575 66.2937 41.7487 65.6352 42.1731C64.9238 42.6414 64.1133 42.9337 63.2693 43.0263C62.4197 43.1272 61.5599 42.9603 60.8077 42.5484C60.461 42.3495 60.1573 42.0823 59.9147 41.7624C59.6722 41.4426 59.4956 41.0768 59.3956 40.6866C59.2245 39.9897 59.1446 39.2731 59.1579 38.5551C59.1579 37.8866 59.1811 37.2651 59.1927 36.6963C59.2466 35.8045 59.1842 34.9094 59.0071 34.0341C58.9458 33.8002 58.8633 33.5725 58.7607 33.3539C58.7226 33.2777 58.6887 33.1993 58.6592 33.1193C58.7086 33.1883 58.7513 33.262 58.7867 33.3392C58.9031 33.555 58.9955 33.7831 59.0622 34.0194C59.2641 34.8972 59.3441 35.7991 59.3 36.6992C59.3 37.268 59.2739 37.8896 59.2826 38.5551C59.2756 39.2597 59.3585 39.9623 59.529 40.6456C59.6254 41.0176 59.7946 41.3663 60.0267 41.671C60.2588 41.9757 60.549 42.2302 60.8801 42.4194C61.6071 42.8129 62.4359 42.9716 63.2548 42.8738C64.0754 42.7833 64.8637 42.5001 65.5569 42.047C66.2087 41.6273 66.8168 41.1421 67.372 40.5987C67.9113 40.0885 68.3926 39.5637 68.871 39.1063C69.3494 38.6489 69.7872 38.2091 70.1903 37.8133L72.1097 35.9486L72.6345 35.4473C72.6949 35.3887 72.7588 35.3338 72.8259 35.2831Z" fill="#263238"/>
<path d="M34.4256 75.1367C34.4162 75.1112 34.4104 75.0846 34.4082 75.0575L34.3734 74.82C34.3473 74.6001 34.3096 74.2923 34.2604 73.9053C34.1618 73.0961 34.0226 71.9497 33.8515 70.5365C33.5094 67.6925 33.0252 63.7608 32.57 59.4128C32.3409 57.2373 32.1496 55.1644 31.9901 53.2733C31.8306 51.3823 31.7291 49.6817 31.6683 48.248C31.6277 47.5326 31.6074 46.8847 31.59 46.3159C31.5726 45.7471 31.5581 45.2575 31.5581 44.8499C31.5581 44.4424 31.5581 44.1492 31.5581 43.9264V43.6889C31.5555 43.6616 31.5555 43.6341 31.5581 43.6068C31.5618 43.6331 31.5618 43.6597 31.5581 43.686C31.5581 43.7505 31.5581 43.8296 31.5726 43.9264C31.5726 44.1492 31.5842 44.4571 31.6074 44.8499C31.6074 45.2487 31.6364 45.7295 31.6654 46.3159C31.6944 46.9023 31.7204 47.5326 31.7639 48.2451C31.8393 49.6759 31.9698 51.3764 32.1206 53.2645C32.2713 55.1527 32.4772 57.2256 32.7005 59.4011C33.1586 63.7462 33.6254 67.6779 33.9385 70.5248C34.0893 71.9409 34.2285 73.0931 34.3009 73.8994C34.3386 74.2893 34.3676 74.5972 34.3879 74.82C34.3879 74.9178 34.3937 74.9969 34.4053 75.0575C34.4164 75.0826 34.4233 75.1093 34.4256 75.1367Z" fill="#263238"/>
<path d="M81.4836 47.2688H80.7413L78.6595 47.2482L71.3239 47.1368L71.3935 47.0811C70.9818 49.283 70.6484 51.7927 70.3903 54.4461C69.9322 59.316 69.7408 63.7432 69.506 66.9419C69.3929 68.5428 69.2856 69.8357 69.216 70.7271C69.1726 71.1668 69.1349 71.5099 69.1117 71.7561C69.0972 71.8646 69.0885 71.9526 69.0798 72.023C69.0778 72.0527 69.073 72.0821 69.0653 72.1109C69.0614 72.0807 69.0614 72.0502 69.0653 72.02C69.0653 71.9526 69.0653 71.8617 69.0798 71.7532C69.1001 71.5069 69.1262 71.1668 69.1581 70.7241C69.2248 69.8445 69.3146 68.534 69.4132 66.9361C69.622 63.7373 69.7959 59.3131 70.2569 54.4314C70.5121 51.7722 70.8513 49.2595 71.2747 47.0547V46.9961H71.3326L78.6653 47.1632L80.75 47.2218L81.3009 47.2424H81.443C81.4691 47.2629 81.4836 47.2658 81.4836 47.2688Z" fill="#263238"/>
<path d="M79.0046 50.9865C79.4433 50.9865 79.799 50.6268 79.799 50.1831C79.799 49.7394 79.4433 49.3798 79.0046 49.3798C78.5658 49.3798 78.2101 49.7394 78.2101 50.1831C78.2101 50.6268 78.5658 50.9865 79.0046 50.9865Z" fill="#E0E0E0"/>
<path d="M79.799 50.1831C79.7781 50.1206 79.7607 50.057 79.7468 49.9925C79.695 49.8292 79.5935 49.6866 79.4569 49.585C79.3572 49.5132 79.2416 49.4674 79.1202 49.4515C78.9988 49.4357 78.8755 49.4503 78.761 49.4941C78.6223 49.5467 78.5028 49.6409 78.4185 49.764C78.3341 49.8871 78.2889 50.0333 78.2889 50.1831C78.2889 50.3329 78.3341 50.4791 78.4185 50.6022C78.5028 50.7253 78.6223 50.8195 78.761 50.8721C78.8757 50.9155 78.9992 50.9296 79.1206 50.9133C79.2419 50.8969 79.3574 50.8505 79.4569 50.7783C79.5941 50.6773 79.6957 50.5344 79.7468 50.3708C79.7604 50.3072 79.7778 50.2445 79.799 50.1831C79.799 50.1831 79.8251 50.2535 79.799 50.3854C79.7608 50.575 79.6582 50.745 79.5091 50.8662C79.397 50.9569 79.2638 51.0171 79.1223 51.0412C78.9807 51.0654 78.8354 51.0526 78.7001 51.004C78.536 50.9402 78.3949 50.8276 78.2954 50.6811C78.1959 50.5345 78.1426 50.3609 78.1426 50.1831C78.1426 50.0053 78.1959 49.8317 78.2954 49.6852C78.3949 49.5386 78.536 49.426 78.7001 49.3622C78.8354 49.3137 78.9807 49.3009 79.1223 49.325C79.2638 49.3491 79.397 49.4093 79.5091 49.5C79.6586 49.6196 79.7613 49.7889 79.799 49.9779C79.828 50.1098 79.8077 50.1831 79.799 50.1831Z" fill="#263238"/>
<path d="M56.4237 75.7142C56.8625 75.7142 57.2181 75.3546 57.2181 74.9109C57.2181 74.4672 56.8625 74.1075 56.4237 74.1075C55.9849 74.1075 55.6293 74.4672 55.6293 74.9109C55.6293 75.3546 55.9849 75.7142 56.4237 75.7142Z" fill="#E0E0E0"/>
<path d="M57.2124 74.9109C57.2124 74.9109 57.195 74.8405 57.1573 74.7232C57.1054 74.5599 57.004 74.4173 56.8673 74.3157C56.7584 74.2352 56.6295 74.1868 56.4951 74.1759C56.3606 74.1649 56.2258 74.1918 56.1055 74.2536C55.9852 74.3154 55.8842 74.4096 55.8136 74.5259C55.7431 74.6422 55.7057 74.7759 55.7057 74.9123C55.7057 75.0488 55.7431 75.1825 55.8136 75.2988C55.8842 75.415 55.9852 75.5093 56.1055 75.5711C56.2258 75.6329 56.3606 75.6598 56.4951 75.6488C56.6295 75.6378 56.7584 75.5895 56.8673 75.509C57.004 75.4074 57.1054 75.2648 57.1573 75.1015C57.195 74.9842 57.1979 74.9109 57.2124 74.9109C57.2305 74.9781 57.2305 75.0489 57.2124 75.1161C57.1759 75.3055 57.0729 75.4753 56.9224 75.594C56.811 75.6849 56.6785 75.7455 56.5375 75.7702C56.3964 75.7948 56.2515 75.7826 56.1164 75.7347C55.9513 75.6714 55.8092 75.5589 55.709 75.412C55.6087 75.2651 55.555 75.0908 55.555 74.9123C55.555 74.7339 55.6087 74.5596 55.709 74.4127C55.8092 74.2658 55.9513 74.1532 56.1164 74.0899C56.2515 74.0421 56.3964 74.0299 56.5375 74.0545C56.6785 74.0791 56.811 74.1398 56.9224 74.2307C57.0729 74.3494 57.1759 74.5191 57.2124 74.7086C57.231 74.7747 57.231 74.8448 57.2124 74.9109Z" fill="#263238"/>
<path d="M58.8621 87.1517C58.8621 87.3112 58.8154 87.4671 58.7278 87.5997C58.6402 87.7323 58.5156 87.8356 58.3699 87.8966C58.2242 87.9577 58.0639 87.9736 57.9092 87.9425C57.7546 87.9114 57.6125 87.8346 57.501 87.7219C57.3895 87.6091 57.3135 87.4654 57.2828 87.309C57.252 87.1526 57.2678 86.9905 57.3281 86.8432C57.3885 86.6959 57.4907 86.5699 57.6218 86.4813C57.7529 86.3927 57.9071 86.3455 58.0648 86.3455C58.2763 86.3455 58.4791 86.4304 58.6286 86.5816C58.7781 86.7328 58.8621 86.9379 58.8621 87.1517Z" fill="#E0E0E0"/>
<path d="M58.8621 87.1517C58.8476 87.1517 58.8447 87.0784 58.807 86.9611C58.7563 86.7972 58.6546 86.6543 58.5171 86.5536C58.4331 86.4889 58.3362 86.4434 58.2332 86.4201C58.1301 86.3968 58.0233 86.3962 57.92 86.4185C57.8167 86.4408 57.7194 86.4853 57.6348 86.5491C57.5501 86.6129 57.48 86.6945 57.4294 86.7882C57.3787 86.8818 57.3486 86.9855 57.3413 87.092C57.3339 87.1985 57.3493 87.3054 57.3865 87.4053C57.4237 87.5053 57.4818 87.5959 57.5568 87.671C57.6319 87.7462 57.7221 87.804 57.8212 87.8407C57.9359 87.8841 58.0594 87.8982 58.1808 87.8818C58.3022 87.8655 58.4177 87.8191 58.5171 87.7469C58.6552 87.6467 58.7571 87.5036 58.807 87.3393C58.8447 87.2221 58.8476 87.1488 58.8621 87.1517C58.8808 87.2178 58.8808 87.2879 58.8621 87.354C58.8264 87.5437 58.7233 87.7137 58.5722 87.8319C58.4602 87.9228 58.3272 87.9834 58.1857 88.008C58.0442 88.0326 57.8988 88.0205 57.7632 87.9726C57.5982 87.9093 57.4561 87.7968 57.3559 87.6499C57.2556 87.503 57.2019 87.3287 57.2019 87.1502C57.2019 86.9717 57.2556 86.7975 57.3559 86.6506C57.4561 86.5037 57.5982 86.3911 57.7632 86.3278C57.8988 86.28 58.0442 86.2678 58.1857 86.2924C58.3272 86.317 58.4602 86.3776 58.5722 86.4685C58.7233 86.5867 58.8264 86.7567 58.8621 86.9465C58.8803 87.0136 58.8803 87.0845 58.8621 87.1517Z" fill="#263238"/>
<path d="M80.4079 52.3909C80.4079 52.4349 78.3261 52.3704 75.7688 52.2531C73.2115 52.1358 71.1297 52.0039 71.1297 51.9599C71.1297 51.9159 73.2115 51.9804 75.7688 52.1006C78.3261 52.2208 80.4079 52.3498 80.4079 52.3909Z" fill="#263238"/>
<path d="M34.53 68.0942L31.5378 69.3022L25.0285 52.8306C24.6636 51.9066 24.1222 51.0643 23.4353 50.3518C22.7484 49.6393 21.9295 49.0706 21.0253 48.6781C20.121 48.2857 19.1492 48.0771 18.1653 48.0645C17.1813 48.0518 16.2046 48.2352 15.2908 48.6043C14.3769 48.9733 13.5439 49.5208 12.8393 50.2153C12.1347 50.9099 11.5723 51.738 11.1842 52.6524C10.7961 53.5668 10.5899 54.5495 10.5774 55.5444C10.5649 56.5394 10.7463 57.5271 11.1112 58.4511L17.6205 74.9226L14.6282 76.1335L8.11609 59.662C7.59406 58.3412 7.33443 56.9293 7.352 55.507C7.36958 54.0847 7.66402 52.6799 8.21851 51.3726C8.77301 50.0654 9.5767 48.8814 10.5837 47.8883C11.5907 46.8951 12.7813 46.1123 14.0875 45.5844C15.3937 45.0565 16.7899 44.794 18.1965 44.8118C19.603 44.8295 20.9923 45.1273 22.285 45.688C24.8959 46.8204 26.9549 48.9552 28.0092 51.6227L34.53 68.0942Z" fill="#E0E0E0"/>
<path d="M34.53 68.0942L34.3966 67.7658L34.0168 66.8012L32.5671 63.1422C31.935 61.5531 31.1609 59.6239 30.2649 57.3605C29.8165 56.2346 29.339 55.0325 28.8326 53.7542C28.302 52.4905 27.8729 51.0832 27.0494 49.8049C26.1955 48.4593 25.0504 47.3274 23.7006 46.4948C23.5237 46.3863 23.3498 46.2749 23.17 46.1723L22.6075 45.8937C22.2307 45.7111 21.8434 45.5515 21.4477 45.4158C21.2477 45.3396 21.036 45.2985 20.8301 45.237C20.6243 45.1754 20.4155 45.1109 20.201 45.0816C19.7702 44.9947 19.3344 44.9359 18.8962 44.9057C17.9994 44.8377 17.0977 44.881 16.2113 45.0347L15.5416 45.193L15.2052 45.2722L14.8747 45.3836L14.2136 45.6152C13.9962 45.7002 13.7874 45.8087 13.5728 45.9084C11.8042 46.7409 10.2987 48.0532 9.22367 49.6994C8.36725 51.0046 7.80379 52.4836 7.57288 54.0325C7.34197 55.5814 7.44919 57.1626 7.88703 58.6652C8.20597 59.6855 8.64088 60.6911 9.04681 61.7144L14.0483 74.3685L14.7326 76.0954L14.634 76.0544L17.6263 74.8435L17.5857 74.9432C16.2896 71.6682 15.0255 68.4607 13.7932 65.347L11.9781 60.7439L11.0909 58.501C10.8038 57.755 10.6251 56.9708 10.5603 56.173C10.4585 54.6127 10.8297 53.058 11.6244 51.7165C11.7123 51.551 11.8091 51.3905 11.9144 51.2357L12.2478 50.7842C12.723 50.2157 13.271 49.7138 13.8773 49.2918C14.028 49.1863 14.1875 49.1012 14.3441 48.9986L14.576 48.8608L14.8225 48.7465C15.4654 48.434 16.1487 48.2149 16.8521 48.0956C17.5359 47.9865 18.2308 47.9677 18.9194 48.0399C20.2441 48.196 21.505 48.7016 22.5756 49.5058C23.5894 50.2489 24.3955 51.2449 24.9155 52.3967C24.9763 52.5345 25.0401 52.6723 25.101 52.8072C25.1619 52.9421 25.2112 53.0857 25.2634 53.2235L25.5881 54.0415C25.7988 54.5849 26.0076 55.1156 26.2144 55.6336L28.4644 61.3479C29.8155 64.7958 30.8738 67.5049 31.5784 69.2875L31.5494 69.2728L33.8109 68.3727L34.3647 68.1558L34.5503 68.0854L34.3763 68.1617C34.2546 68.2115 34.0864 68.2848 33.8312 68.3874L31.5668 69.3139H31.5465V69.2934C30.8332 67.5049 29.7633 64.8134 28.3948 61.3772C27.7105 59.6561 26.9451 57.7475 26.1274 55.6687L25.4982 54.0796C25.391 53.8099 25.2808 53.5372 25.1735 53.2616L25.0082 52.8453C24.9473 52.7104 24.8865 52.5756 24.8227 52.4407C24.568 51.8872 24.2487 51.3665 23.8717 50.8897C23.4721 50.4054 23.0165 49.9713 22.5147 49.5967C21.4576 48.8122 20.2164 48.32 18.9136 48.1689C18.2374 48.1006 17.5553 48.1203 16.884 48.2275C16.1957 48.3473 15.5272 48.5634 14.8979 48.8696L14.6572 48.981L14.4282 49.1188C14.2774 49.2127 14.1179 49.2977 13.9701 49.3974C13.6742 49.6039 13.3923 49.8301 13.1263 50.0746C12.8569 50.3203 12.605 50.5848 12.3725 50.8663L12.0448 51.3119C11.9289 51.4585 11.8477 51.6256 11.7549 51.781C10.9768 53.0996 10.6137 54.6263 10.714 56.1584C10.7797 56.9409 10.9555 57.71 11.2359 58.4423C11.5258 59.1841 11.8158 59.9347 12.126 60.6882L13.944 65.2884L17.7393 74.8845L17.7683 74.9549L17.6987 74.9842C16.7245 75.3742 15.7242 75.7817 14.7065 76.1922L14.634 76.2215L14.6079 76.1511L13.9237 74.4213C12.2101 70.0879 10.54 65.8542 8.92503 61.7671C8.52781 60.741 8.09579 59.747 7.76525 58.7033C7.4745 57.6665 7.32812 56.5939 7.33034 55.5163C7.35486 54.4609 7.51967 53.4136 7.82034 52.4026C8.13149 51.4203 8.57128 50.4845 9.12799 49.6202C10.2141 47.9557 11.7344 46.6274 13.5206 45.7823C13.741 45.6856 13.9527 45.5771 14.173 45.4891L14.8399 45.2575C14.953 45.2223 15.0631 45.1783 15.1733 45.1461L15.5155 45.0669L16.1939 44.9086C17.0917 44.7521 18.0053 44.7087 18.9136 44.7796C19.3559 44.8106 19.7957 44.8713 20.23 44.9614C20.4452 45.0014 20.6582 45.0533 20.8678 45.1168C21.0766 45.1813 21.2912 45.2223 21.4912 45.2985C21.8961 45.4384 22.2929 45.6009 22.68 45.7852L23.2599 46.0784C23.4396 46.1811 23.6165 46.2983 23.7934 46.4039C25.1559 47.249 26.3108 48.3959 27.1712 49.758C28.0005 51.0568 28.4267 52.47 28.9544 53.7395L30.3809 57.3634C31.2681 59.6239 32.0307 61.5707 32.657 63.1627L34.0864 66.8218L34.4575 67.7717C34.4923 67.974 34.53 68.0942 34.53 68.0942Z" fill="#263238"/>
<path d="M32.9149 56.801L10.1759 65.9932C8.68751 66.5949 7.96328 68.3027 8.55829 69.8078L15.5682 87.539C16.1632 89.0441 17.8521 89.7764 19.3405 89.1747L42.0795 79.9826C43.5679 79.3809 44.2921 77.673 43.6971 76.168L36.6872 58.4368C36.0922 56.9317 34.4033 56.1994 32.9149 56.801Z" fill="#008CBC"/>
<g opacity="0.3">
<path d="M32.8126 56.8424L10.2782 65.9519C8.73331 66.5764 7.98159 68.349 8.59919 69.9112L15.5273 87.4356C16.1449 88.9978 17.8979 89.7579 19.4428 89.1334L41.9772 80.0239C43.5221 79.3994 44.2738 77.6267 43.6562 76.0645L36.7281 58.5402C36.1105 56.978 34.3575 56.2179 32.8126 56.8424Z" fill="black"/>
</g>
<path d="M29.6097 58.1367L8.88721 66.5137C7.40327 67.1136 6.68122 68.8163 7.27445 70.3168L14.2908 88.0644C14.884 89.5649 16.5679 90.2951 18.0518 89.6952L38.7743 81.3182C40.2582 80.7183 40.9803 79.0156 40.387 77.5151L33.3707 59.7675C32.7775 58.267 31.0936 57.5368 29.6097 58.1367Z" fill="#008CBC"/>
<g opacity="0.3">
<path d="M26.6435 70.4105C26.4079 69.8066 26.0103 69.2813 25.4954 68.8937C24.9805 68.5061 24.3688 68.2715 23.7291 68.2164C23.0895 68.1614 22.4474 68.288 21.8751 68.582C21.3028 68.876 20.823 69.3258 20.4899 69.8807C20.1567 70.4355 19.9834 71.0734 19.9894 71.7225C19.9954 72.3716 20.1805 73.0061 20.5239 73.5546C20.8673 74.1031 21.3552 74.5437 21.9329 74.8268C22.5105 75.11 23.1549 75.2244 23.7934 75.1572L25.3562 79.1153C25.4496 79.3491 25.6308 79.5359 25.8601 79.6348C26.0895 79.7337 26.3482 79.7367 26.5797 79.6431C26.6944 79.5969 26.7989 79.5283 26.8873 79.4413C26.9757 79.3543 27.0463 79.2505 27.095 79.1358C27.1437 79.0212 27.1697 78.898 27.1713 78.7733C27.1729 78.6485 27.1502 78.5246 27.1045 78.4087L25.5388 74.4507C26.1325 73.9904 26.5615 73.3469 26.7609 72.6178C26.9603 71.8887 26.919 71.1138 26.6435 70.4105Z" fill="black"/>
</g>
<path d="M40.6101 78.0539C40.5696 78.0686 38.9604 74.0372 37.0148 69.05C35.0693 64.0628 33.5181 60.0051 33.5587 59.9904C33.5993 59.9757 35.2056 64.0071 37.154 68.9943C39.1024 73.9815 40.6478 78.0393 40.6101 78.0539Z" fill="#263238"/>
<path d="M26.4 74.7849C26.7155 74.4532 26.9901 74.084 27.2176 73.6854C27.4524 73.2483 27.6094 72.773 27.6815 72.281C27.7804 71.6812 27.736 71.0661 27.5519 70.4872C27.3678 69.9083 27.0494 69.3824 26.6232 68.9533C26.2833 68.5918 25.8828 68.294 25.4403 68.0737C25.0247 67.8852 24.5887 67.7465 24.1413 67.6603C24.2655 67.6531 24.3901 67.661 24.5124 67.6838C24.8484 67.7341 25.1755 67.8328 25.4838 67.9769C25.9463 68.1908 26.366 68.489 26.7218 68.8565C27.1686 69.298 27.5019 69.8432 27.6929 70.4446C27.8839 71.046 27.9268 71.6854 27.8178 72.3074C27.7386 72.8131 27.5665 73.2994 27.3104 73.7411C27.1424 74.0399 26.9325 74.3125 26.687 74.5503C26.6016 74.6405 26.5051 74.7194 26.4 74.7849Z" fill="#263238"/>
<path d="M26.5362 60.1956C26.5507 60.2337 23.0714 61.7319 18.7628 63.5409C14.4543 65.3499 10.9343 66.7865 10.9343 66.7484C10.9343 66.7103 14.3992 65.2121 18.7107 63.4002C23.0221 61.5882 26.5188 60.1575 26.5362 60.1956Z" fill="white"/>
<path d="M20.8272 74.7848C20.7487 74.7462 20.6764 74.6958 20.6127 74.6353C20.4329 74.4821 20.2696 74.3101 20.1256 74.1222C19.6357 73.5009 19.3454 72.743 19.2936 71.9502C19.2418 71.1573 19.4309 70.3673 19.8356 69.6862C19.9556 69.4813 20.0965 69.2897 20.256 69.1145C20.3097 69.0455 20.3744 68.9861 20.4474 68.9386C20.4706 68.9591 20.2068 69.2318 19.9284 69.739C19.5615 70.4102 19.3924 71.1737 19.4412 71.9391C19.49 72.7045 19.7547 73.4397 20.2039 74.0577C20.5518 74.5356 20.8446 74.7614 20.8272 74.7848Z" fill="white"/>
<path d="M22.709 75.8051C22.709 75.8491 22.4828 75.8462 22.219 75.8051C21.9551 75.7641 21.7435 75.6908 21.7522 75.6468C21.7609 75.6028 21.9783 75.6087 22.2422 75.6468C22.506 75.6849 22.709 75.7641 22.709 75.8051Z" fill="white"/>
<path d="M13.3438 46.571C13.1799 46.6778 13.0105 46.7757 12.8364 46.8642C12.3771 47.1312 11.9398 47.4352 11.5287 47.7731C9.96771 49.0706 8.85943 50.8402 8.36676 52.8219C7.87409 54.8036 8.02302 56.8928 8.79166 58.7825C8.93373 59.1343 9.02361 59.3249 9.01201 59.3308C8.98096 59.29 8.95469 59.2457 8.93373 59.1988C8.88734 59.1109 8.81195 58.9819 8.73657 58.8059C8.51358 58.3137 8.3369 57.8012 8.20887 57.2755C7.7674 55.529 7.84102 53.6901 8.42063 51.9855C9.00025 50.2808 10.0605 48.7849 11.4707 47.6822C11.891 47.3471 12.3414 47.0526 12.8161 46.8027C12.9842 46.7118 13.1205 46.6561 13.2104 46.615C13.2534 46.5961 13.298 46.5814 13.3438 46.571Z" fill="white"/>
<path d="M9.89634 62.2656C9.72233 62.0161 9.58919 61.7399 9.50202 61.4476C9.36941 61.1707 9.28319 60.8734 9.24687 60.568C9.42352 60.8159 9.55689 61.0926 9.64119 61.386C9.77345 61.663 9.85965 61.9602 9.89634 62.2656Z" fill="white"/>
<g opacity="0.3">
<path d="M31.59 44.9409C30.2881 48.7084 30.9318 52.945 32.3815 56.6685C32.3815 56.6568 31.6248 48.8843 31.59 44.9409Z" fill="black"/>
</g>
<g opacity="0.3">
<path d="M54.3854 72.4451C55.8206 69.1673 57.2587 65.8776 59.1086 62.8197C60.9584 59.7617 63.1678 56.8561 65.9948 54.707C66.7602 54.1206 68.1896 53.03 68.1896 53.03C68.1896 53.03 67.8069 52.297 67.43 51.6901C66.9951 50.9864 66.2702 49.7667 65.8875 49.1657L67.5837 49.5087C67.5837 49.5087 66.4239 46.8055 66.4558 46.9873C65.6981 47.1869 64.9306 47.3464 64.1565 47.4652C64.7509 48.9018 65.383 50.2007 65.9774 51.6373C62.788 54.2027 60.1785 57.4308 57.9923 60.8435C55.8061 64.2563 54.2926 68.2173 54.3709 72.278" fill="black"/>
</g>
<path d="M60.4481 20.993C60.4858 20.9607 60.5757 20.993 60.6772 21.1073C60.8134 21.2844 60.8833 21.5046 60.8743 21.7289C60.8746 21.8905 60.841 22.0504 60.7758 22.198C60.6955 22.3767 60.573 22.5327 60.4191 22.6524C60.2441 22.7923 60.0362 22.8839 59.8158 22.9182C59.5953 22.9526 59.3698 22.9286 59.1613 22.8486C58.9527 22.7685 58.7683 22.6352 58.6259 22.4616C58.4835 22.2879 58.3881 22.0799 58.3489 21.8579C58.3148 21.6824 58.3209 21.5013 58.3666 21.3285C58.4123 21.1557 58.4965 20.9958 58.6128 20.861C58.7535 20.6887 58.9494 20.5715 59.1666 20.5297C59.3202 20.5092 59.4043 20.5473 59.4159 20.5972C59.4391 20.7027 59.1898 20.8376 59.0535 21.1659C58.9771 21.3326 58.9667 21.5225 59.0245 21.6966C59.0533 21.7967 59.1048 21.8886 59.1749 21.9651C59.245 22.0416 59.3317 22.1005 59.4282 22.1372C59.5247 22.1739 59.6283 22.1874 59.7309 22.1766C59.8334 22.1657 59.9321 22.1309 60.019 22.0748C60.1769 21.985 60.2943 21.8368 60.3466 21.6614C60.4568 21.3243 60.3582 21.0633 60.4481 20.993Z" fill="#E0E0E0"/>
<path d="M8.08709 83.6539C8.08709 83.6539 9.0758 86.879 9.5861 87.527C10.0964 88.1749 13.509 88.5238 13.509 88.5238L8.08709 83.6539Z" fill="#B5715A"/>
<path d="M12.1753 78.5289L14.0686 80.0653L19.6878 84.4455C19.6878 84.4455 19.653 85.501 18.3888 85.2606C17.3624 85.0642 15.0863 83.7947 15.0863 83.7947C15.0863 83.7947 17.7596 86.3337 17.8524 87.5211V87.7381C17.8501 88.001 17.746 88.2526 17.5625 88.4388L14.4398 86.3308C14.4398 86.3308 15.1095 87.5211 15.7677 88.7555C15.8666 89.0035 15.8988 89.2735 15.8611 89.5382C15.8234 89.8029 15.7172 90.0527 15.5532 90.2625L8.59449 84.3605L8.551 79.9626L12.1608 78.526" fill="#B5715A"/>
<path d="M11.4359 81.2849C11.5254 81.2907 11.6134 81.3105 11.6969 81.3436C11.7781 81.3729 11.8738 81.4168 11.9868 81.4667C12.0999 81.5165 12.2159 81.5898 12.3493 81.6661C12.877 81.9827 13.5467 82.4958 14.289 83.0587C14.9104 83.5474 15.5643 83.9921 16.2461 84.3898C16.7767 84.683 17.1363 84.7944 17.116 84.8208C17.0275 84.8147 16.9405 84.7949 16.8579 84.7622C16.7592 84.7332 16.6623 84.6979 16.568 84.6566C16.4392 84.6072 16.3134 84.5504 16.191 84.4866C15.4858 84.1134 14.8152 83.6767 14.1875 83.1819C13.4453 82.616 12.79 82.0912 12.2826 81.757L11.9375 81.5429L11.665 81.3993C11.5843 81.3709 11.5073 81.3325 11.4359 81.2849Z" fill="#884C3B"/>
<path d="M10.7981 83.4281C11.0122 83.5314 11.2145 83.6583 11.4012 83.8063C11.7578 84.0555 12.2391 84.4191 12.7523 84.8413C13.2655 85.2635 13.7149 85.6652 14.0309 85.9671C14.2116 86.1185 14.3741 86.2907 14.5152 86.4802C14.3152 86.3567 14.1286 86.2122 13.9585 86.0492L12.6566 84.9586L11.3374 83.8913C11.1426 83.7557 10.9619 83.6005 10.7981 83.4281Z" fill="#884C3B"/>
<path d="M1.41257 78.0539C1.36328 78.1096 1.43577 78.2151 1.48216 78.3148C2.23891 79.9127 8.73077 84.4513 8.73077 84.4513L12.271 78.35C12.271 78.35 14.8428 79.6078 15.8982 79.3175C16.768 79.0771 18.4033 78.8983 17.6379 77.3561C17.6379 77.3561 14.0107 76.6817 12.7784 76.1452C11.5461 75.6087 10.7749 75.3301 10.7749 75.3301C9.36758 75.3639 7.96149 75.2231 6.58808 74.9109C6.58808 74.9109 4.4193 74.603 1.41257 78.0539Z" fill="#B5715A"/>
<path d="M15.3879 90.1187C15.1002 89.9228 14.8261 89.7073 14.5673 89.4737C14.0338 89.0369 13.3612 88.4827 12.6131 87.8729C11.8651 87.2631 11.1634 86.6679 10.6879 86.234C10.4472 86.0199 10.2559 85.8411 10.1254 85.715C10.0529 85.6544 9.98857 85.5844 9.93404 85.5068C10.223 85.7022 10.4982 85.9177 10.7575 86.1519L12.7088 87.7527C13.4714 88.3801 14.1585 88.9577 14.634 89.3916C14.8747 89.6057 15.0689 89.7845 15.1965 89.9106C15.3241 90.0367 15.3966 90.1129 15.3879 90.1187Z" fill="#884C3B"/>
<path d="M76.2385 25.0742L78.474 25.4289L78.7436 23.702L77.8738 23.5642L77.9956 22.7785L77.1895 22.6495L77.2968 21.9605L78.2275 22.1071L78.3203 21.5207L76.83 21.2832L76.8648 21.0575C76.8769 20.9149 76.8328 20.7733 76.7421 20.6634C76.6514 20.5536 76.5215 20.4845 76.3806 20.4711C76.2403 20.4619 76.1018 20.5076 75.9939 20.5987C75.8859 20.6898 75.8168 20.8194 75.8007 20.9607C75.3677 23.7558 74.9338 26.548 74.4988 29.3372L74.1509 31.5713C73.4283 31.5912 72.739 31.8833 72.2183 32.3904C71.6976 32.8975 71.383 33.583 71.3363 34.3125C71.2895 35.042 71.514 35.7629 71.9656 36.3337C72.4172 36.9045 73.0634 37.2842 73.7775 37.3982C74.4915 37.5122 75.222 37.3524 75.8256 36.95C76.4291 36.5476 76.8623 35.9318 77.0401 35.2232C77.2178 34.5147 77.1275 33.7645 76.7866 33.1198C76.4458 32.4751 75.8791 31.9825 75.1976 31.7384C75.5339 29.5884 75.8693 27.4383 76.2037 25.2882L76.2385 25.0742ZM76.3632 34.8345C76.2967 35.26 76.107 35.656 75.8181 35.9724C75.5291 36.2889 75.1539 36.5116 74.7398 36.6125C74.3257 36.7133 73.8913 36.6878 73.4915 36.5391C73.0918 36.3904 72.7446 36.1252 72.4938 35.777C72.2431 35.4288 72.1 35.0133 72.0828 34.5829C72.0655 34.1526 72.1748 33.7267 72.3968 33.3591C72.6188 32.9915 72.9436 32.6988 73.3302 32.5178C73.7167 32.3368 74.1476 32.2758 74.5684 32.3424C74.8489 32.387 75.1179 32.4871 75.36 32.6371C75.6021 32.787 75.8125 32.9838 75.9792 33.2161C76.146 33.4485 76.2657 33.7118 76.3316 33.991C76.3975 34.2703 76.4082 34.5599 76.3632 34.8433V34.8345Z" fill="#E0E0E0"/>
<path d="M76.3632 34.8433C76.3804 34.5332 76.3481 34.2224 76.2675 33.9227C76.1685 33.5831 75.9859 33.2744 75.7369 33.0255C75.4196 32.7 75.0066 32.4871 74.5597 32.4186L74.5974 32.2926L75.0468 32.4919L74.5597 32.4186C74.1794 32.3594 73.7903 32.4078 73.4355 32.5584C73.0807 32.7091 72.7741 32.956 72.5496 33.272C72.325 33.588 72.1914 33.9607 72.1634 34.3488C72.1354 34.7368 72.2141 35.1252 72.3909 35.4708C72.5763 35.8436 72.8696 36.1504 73.2318 36.3503C73.5366 36.523 73.8794 36.6158 74.2288 36.6204C74.5782 36.6251 74.9232 36.5413 75.2324 36.3767C75.6542 36.1503 75.9905 35.7897 76.1892 35.3505C76.2561 35.1857 76.3141 35.0174 76.3632 34.8463C76.3696 34.892 76.3696 34.9384 76.3632 34.9841C76.3414 35.1176 76.3054 35.2483 76.2559 35.374C76.0705 35.8404 75.7315 36.2278 75.2962 36.4705C75.0378 36.6139 74.7537 36.7036 74.4606 36.7344C74.1675 36.7651 73.8713 36.7364 73.5893 36.6498C73.3073 36.5633 73.0453 36.4206 72.8186 36.2302C72.5919 36.0398 72.4051 35.8055 72.2692 35.5411C72.0801 35.1722 71.996 34.7575 72.0261 34.3431C72.0562 33.9287 72.1995 33.5309 72.4399 33.1939C72.6803 32.8569 73.0084 32.594 73.3878 32.4343C73.7671 32.2747 74.1829 32.2246 74.5887 32.2896L74.551 32.4157L74.0813 32.1987L74.5887 32.2896C75.0608 32.3686 75.4945 32.6013 75.8239 32.9522C76.0771 33.2192 76.2588 33.5472 76.3516 33.9051C76.4092 34.1328 76.4307 34.3684 76.4154 34.6029C76.407 34.6848 76.3895 34.7654 76.3632 34.8433Z" fill="#263238"/>
<path d="M76.2385 25.0742C76.2385 25.0742 76.2385 25.1445 76.2153 25.2853C76.1341 25.9215 75.7833 28.2641 75.2527 31.7355L75.2208 31.6769C75.8873 31.9295 76.4393 32.4202 76.7727 33.0562C77.106 33.6923 77.1975 34.4297 77.03 35.1293C76.8625 35.8289 76.4476 36.4423 75.8635 36.8537C75.2794 37.2652 74.5665 37.4462 73.8595 37.3626C73.1525 37.279 72.5002 36.9366 72.0257 36.4C71.5512 35.8634 71.2874 35.1698 71.284 34.45C71.2806 33.7302 71.5379 33.034 72.0073 32.4929C72.4767 31.9517 73.1257 31.6031 73.832 31.5127C73.9392 31.4951 74.0465 31.4922 74.1509 31.4834L74.0784 31.5479C74.4495 29.1789 74.8062 26.8949 75.1396 24.7546C75.3078 23.6845 75.4701 22.6495 75.6267 21.6585C75.6644 21.4093 75.705 21.1659 75.7427 20.9226C75.7623 20.7875 75.8255 20.6628 75.9226 20.5679C76.0196 20.473 76.1449 20.4131 76.2791 20.3978C76.4105 20.385 76.5424 20.4167 76.6541 20.4878C76.7658 20.5589 76.8511 20.6654 76.8967 20.7907C76.934 20.9129 76.934 21.0437 76.8967 21.1659V21.251V21.2744L76.772 21.2568V21.2392V21.1982L76.801 21.0281L76.9228 21.0487L76.888 21.2744L76.8358 21.2041L78.3261 21.4445H78.3841V21.5031C78.3493 21.7142 78.3203 21.9077 78.2884 22.0895V22.1452H78.2333L77.3026 21.9927L77.3635 21.9488C77.3229 22.198 77.2881 22.4208 77.2533 22.6378L77.2098 22.5791L78.0187 22.7111H78.0651V22.7609C78.0187 23.0541 77.9782 23.3004 77.9376 23.5437L77.8999 23.4909L78.7697 23.6346H78.8103V23.6757C78.702 24.3324 78.6054 24.908 78.5203 25.4026V25.4348H78.4885L76.8387 25.1416L76.4067 25.0654L76.2588 25.0361H76.398L76.8242 25.0976L78.5001 25.3439L78.4624 25.3703C78.5377 24.8748 78.6218 24.3002 78.7204 23.6434L78.7552 23.6903L77.8854 23.5584H77.8419V23.5144L77.9608 22.7286L78.0014 22.7844L77.1953 22.6583H77.1431V22.6084C77.175 22.3885 77.2098 22.1657 77.2475 21.9165V21.8637H77.2997L78.2333 22.0074L78.1666 22.0543C78.1985 21.8637 78.2275 21.6702 78.2594 21.4679L78.3087 21.5354L76.8155 21.3008H76.7546V21.2392L76.7894 21.0105L76.9112 21.0311L76.8851 21.2011V21.2422V21.2598C76.6357 21.2187 76.8184 21.2598 76.7604 21.2363V21.2158V21.1308C76.7911 21.0295 76.7911 20.9212 76.7604 20.82C76.7249 20.7216 76.658 20.638 76.5704 20.5823C76.4827 20.5265 76.3792 20.5019 76.2762 20.5121C76.1702 20.5242 76.0713 20.5718 75.9952 20.6472C75.919 20.7226 75.8699 20.8216 75.8558 20.9284L75.7427 21.6614L75.2643 24.7605C74.9337 26.9008 74.5771 29.1847 74.2118 31.5537V31.6124H74.148C74.0494 31.6124 73.945 31.6124 73.8435 31.6388C73.2671 31.7186 72.7292 31.9766 72.3033 32.3774C71.8774 32.7781 71.5842 33.3021 71.464 33.8777C71.3437 34.4533 71.4022 35.0524 71.6314 35.5932C71.8607 36.1339 72.2495 36.5898 72.7447 36.8986C73.3571 37.2826 74.0917 37.4148 74.7975 37.268C75.4025 37.1392 75.9494 36.8142 76.3553 36.3426C76.7612 35.8709 77.0038 35.2783 77.0464 34.6546C77.0891 34.0308 76.9293 33.4101 76.5915 32.8864C76.2537 32.3628 75.7561 31.9649 75.1744 31.7531L75.1338 31.7384V31.6945C75.6847 28.2231 76.0645 25.8834 76.1776 25.2442C76.224 25.1299 76.2385 25.0742 76.2385 25.0742Z" fill="#263238"/>
<path d="M71.3152 33.5709L74.899 32.618L76.7604 32.8584C76.9297 32.8812 77.0905 32.9469 77.2279 33.0494C77.3652 33.1519 77.4747 33.2879 77.5461 33.4448L78.7523 36.1011C78.7523 36.1011 80.492 37.5671 80.2919 38.4466C80.0919 39.3262 78.4769 47.2189 78.4769 47.2189L73.6725 47.0723C72.8321 46.0191 72.3267 44.7332 72.2228 43.384C72.1706 42.2757 72.5881 41.5984 72.4837 41.0121C72.4141 40.6104 72.6606 39.895 72.7737 39.3438L72.9186 38.8102L72.5997 38.9656C72.4627 39.0331 72.3119 39.0671 72.1596 39.0648C72.0072 39.0624 71.8575 39.0239 71.7226 38.9523C71.5876 38.8806 71.4713 38.7779 71.3829 38.6524C71.2945 38.5268 71.2366 38.382 71.2138 38.2297C71.2123 38.2013 71.2123 38.173 71.2138 38.1446C71.1979 37.8325 71.2479 37.5205 71.3603 37.2293C71.4728 36.9382 71.6452 36.6745 71.8661 36.4559L73.6783 34.6557C73.6783 34.6557 71.6748 35.8108 71.3152 33.5709Z" fill="#B5715A"/>
<path d="M77.4128 37.9775C77.3005 37.9795 77.1884 37.9667 77.0793 37.9394L76.1892 37.7782L74.87 37.5201C74.6235 37.4732 74.3626 37.4058 74.0987 37.3823C73.9697 37.3609 73.8376 37.3707 73.7131 37.411C73.5886 37.4513 73.4753 37.5208 73.3825 37.614C73.2263 37.8362 73.1267 38.094 73.0926 38.3645C73.0346 38.6372 72.9795 38.8981 72.9273 39.1503C72.8149 39.5832 72.7364 40.0243 72.6925 40.4697C72.685 40.6158 72.7125 40.7617 72.7725 40.8949C72.8326 41.0281 72.9235 41.1447 73.0375 41.2349C73.1265 41.293 73.2245 41.3357 73.3275 41.361C73.299 41.3693 73.2689 41.3693 73.2405 41.361C73.1549 41.3537 73.0723 41.3255 72.9998 41.2789C72.8683 41.1911 72.7609 41.0712 72.6874 40.9302C72.6139 40.7893 72.5767 40.6319 72.5794 40.4726C72.6057 40.0167 72.6736 39.5642 72.7824 39.121C72.8317 38.8688 72.8838 38.605 72.9389 38.3352C72.9792 38.0359 73.0951 37.7522 73.2753 37.5113C73.3836 37.401 73.5164 37.3185 73.6627 37.2705C73.8089 37.2226 73.9644 37.2107 74.1161 37.2357C74.3815 37.2696 74.6448 37.3185 74.9048 37.3823L76.2153 37.6755L77.0851 37.8837C77.1977 37.9016 77.3077 37.9331 77.4128 37.9775Z" fill="#884C3B"/>
<path d="M75.5455 41.9884C75.5455 41.9884 75.5455 42.1379 75.3629 42.2816C75.2462 42.3622 75.1068 42.4023 74.9656 42.3959C74.7868 42.3866 74.6102 42.3521 74.4408 42.2933C73.9798 42.1752 73.5745 41.8971 73.2956 41.5076C73.1566 41.2475 73.0819 40.9573 73.0778 40.6617C73.0738 40.3661 73.1405 40.0739 73.2724 39.81C73.3849 39.5313 73.5351 39.2698 73.7189 39.033C73.8153 38.9157 73.9402 38.8258 74.0813 38.7721C74.2182 38.7292 74.3632 38.7191 74.5046 38.7428C74.9572 38.8365 75.3985 38.979 75.821 39.1679C76.1055 39.2896 76.3816 39.4307 76.6473 39.5901C76.7532 39.6404 76.851 39.7066 76.9373 39.7865C76.9373 39.81 76.5139 39.552 75.792 39.2676C75.3739 39.0978 74.9409 38.9683 74.4988 38.8806C74.3784 38.8622 74.2553 38.8723 74.1393 38.9099C74.0255 38.958 73.9257 39.0347 73.8494 39.1327C73.678 39.3579 73.5376 39.6054 73.4318 39.8686C73.3092 40.1104 73.2453 40.3782 73.2453 40.65C73.2453 40.9217 73.3092 41.1895 73.4318 41.4313C73.6893 41.7985 74.0624 42.0662 74.4901 42.1907C74.6497 42.2517 74.8163 42.2921 74.9859 42.3109C75.1119 42.3223 75.2383 42.2947 75.3484 42.2318C75.4348 42.1703 75.503 42.0862 75.5455 41.9884Z" fill="#884C3B"/>
<path d="M75.4991 41.4606C75.4991 41.4782 75.4151 41.5281 75.2527 41.5457C75.041 41.5673 74.8276 41.5261 74.6387 41.4272C74.4497 41.3283 74.2933 41.1759 74.1886 40.9886C74.1103 40.8479 74.0987 40.7453 74.1161 40.7394C74.1335 40.7335 74.3104 41.0854 74.7105 41.2906C74.9615 41.3934 75.2285 41.451 75.4991 41.4606Z" fill="#884C3B"/>
<path d="M75.8471 42.4429C75.8239 42.4751 75.5977 42.3403 75.4353 42.0676C75.273 41.7949 75.2527 41.5281 75.2933 41.5252C75.3339 41.5222 75.4151 41.7421 75.5629 41.9884C75.7108 42.2347 75.8761 42.4077 75.8471 42.4429Z" fill="#884C3B"/>
<path d="M75.7514 45.1314C75.5515 44.718 75.4546 44.2614 75.4693 43.8015C75.4839 43.3415 75.6096 42.8922 75.8355 42.4927C75.7327 42.9237 75.661 43.3617 75.6209 43.8032C75.6324 44.2486 75.6761 44.6925 75.7514 45.1314Z" fill="#884C3B"/>
<path d="M75.6615 42.7302C75.2407 42.8982 74.8573 43.1494 74.5337 43.4691C74.21 43.7887 73.9528 44.1705 73.7769 44.592C73.7738 44.4514 73.8057 44.3122 73.8697 44.1874C73.9987 43.876 74.188 43.5939 74.4263 43.3576C74.6646 43.1218 74.9477 42.9373 75.2585 42.8152C75.3832 42.7518 75.5221 42.7225 75.6615 42.7302Z" fill="#884C3B"/>
<path d="M74.1886 36.6933C74.2321 36.6933 74.2553 36.8429 74.206 37.0129C74.1567 37.183 74.061 37.3061 74.0233 37.2768C73.9856 37.2475 74.0233 37.1243 74.061 36.9836C74.0987 36.8429 74.148 36.6904 74.1886 36.6933Z" fill="#884C3B"/>
<path d="M78.4508 36.7461C78.2007 36.6398 77.961 36.5103 77.7346 36.3591C77.2997 36.107 76.7082 35.7464 76.0616 35.3388C75.7646 35.1442 75.45 34.9783 75.1222 34.8433C74.8564 34.7384 74.5724 34.6886 74.2872 34.6967C74.0235 34.7153 73.7662 34.7871 73.5304 34.9078C73.5304 34.9078 73.5768 34.8404 73.7015 34.7671C73.8795 34.6653 74.0775 34.6042 74.2814 34.5883C74.5824 34.5653 74.8848 34.6073 75.1686 34.7114C75.5093 34.8415 75.8349 35.0086 76.1399 35.2098C76.7894 35.6144 77.3722 35.9897 77.7897 36.2682C78.0236 36.4075 78.2448 36.5674 78.4508 36.7461Z" fill="#884C3B"/>
<path d="M76.2356 25.168C76.2576 24.5028 76.3293 23.8402 76.4502 23.186C76.5202 22.5244 76.6423 21.8694 76.8155 21.2275C76.7933 21.8927 76.7216 22.5552 76.6009 23.2095C76.5289 23.8708 76.4067 24.5255 76.2356 25.168Z" fill="#263238"/>
<g opacity="0.3">
<path d="M76.8155 21.3271C76.9681 21.942 76.9972 22.5817 76.9011 23.2081C76.805 23.8346 76.5856 24.4352 76.2559 24.9745C76.4646 23.9043 76.6734 22.4559 76.8155 21.3271Z" fill="black"/>
</g>
</svg>
