<svg width="149" height="174" viewBox="0 0 149 174" fill="none" xmlns="http://www.w3.org/2000/svg">
<path d="M61.8767 39.8947C61.901 39.8951 61.9249 39.8883 61.9463 39.8749C61.9677 39.8615 61.9858 39.842 61.9989 39.8182L70.1522 25.7729V25.752C70.1522 25.752 70.1522 25.752 70.1522 25.7311C70.1596 25.7016 70.1596 25.6702 70.1522 25.6407L69.7946 23.4726L69.3953 21.0366L69.0645 19.0113C69.0574 18.983 69.0452 18.9569 69.0287 18.9347H69.0138L59.302 11.2265C59.286 11.2134 59.268 11.2042 59.2489 11.1994C59.2299 11.1945 59.2102 11.1942 59.191 11.1984C59.1719 11.2027 59.1536 11.2113 59.1374 11.2239C59.1211 11.2365 59.1072 11.2528 59.0964 11.2717L48.6664 29.2633C48.6447 29.3022 48.6369 29.3495 48.6447 29.3951C48.6525 29.4406 48.6752 29.4808 48.7081 29.5069L61.7963 39.8669C61.8205 39.8843 61.8483 39.8939 61.8767 39.8947ZM66.8593 22.968L68.8618 19.488L69.8154 25.2822L66.8593 22.968ZM66.5285 22.9158C66.5172 22.9347 66.5093 22.9561 66.5051 22.9786C66.5009 23.0011 66.5006 23.0244 66.5042 23.0471C66.5079 23.0697 66.5153 23.0913 66.5261 23.1106C66.5369 23.1299 66.5509 23.1465 66.5672 23.1594L68.7158 24.8577L65.1398 31.0242L54.5072 22.5957L59.6745 13.6903L68.0334 20.3023L66.5285 22.9158ZM59.2692 11.6128L68.7337 19.1017L68.2003 20.0205L59.7192 13.3041C59.6859 13.2787 59.6454 13.2696 59.6064 13.2787C59.5674 13.2878 59.533 13.3144 59.5106 13.3528L54.1764 22.5435C54.1538 22.5821 54.1453 22.6297 54.1526 22.6757C54.1611 22.7205 54.1833 22.7601 54.2151 22.7871L65.0921 31.3966C65.1257 31.4211 65.1659 31.4297 65.2047 31.4206C65.2435 31.4116 65.2779 31.3855 65.3007 31.3479L68.9632 25.056L69.8214 25.752L61.835 39.5119L48.9942 29.3155L59.2692 11.6128Z" fill="#263238"/>
<path d="M58.5332 20.1249L59.1739 24.012C59.1802 24.0516 59.1983 24.0873 59.2251 24.1128C59.2518 24.1383 59.2854 24.1519 59.3199 24.1512H59.3467C59.3854 24.1428 59.4196 24.1168 59.4419 24.079C59.4643 24.0412 59.4729 23.9946 59.4659 23.9494L58.855 20.2258L62.0406 19.5089C62.06 19.5051 62.0784 19.4969 62.095 19.4846C62.1115 19.4724 62.1258 19.4563 62.1369 19.4375C62.148 19.4187 62.1558 19.3974 62.1597 19.375C62.1637 19.3526 62.1637 19.3295 62.1598 19.3071C62.1526 19.2619 62.1303 19.2219 62.098 19.1959C62.0656 19.1698 62.0257 19.1597 61.987 19.1679L58.6524 19.9161C58.6326 19.9202 58.6138 19.9289 58.597 19.9418C58.5802 19.9546 58.5658 19.9713 58.5547 19.9908C58.5436 20.0103 58.5359 20.0322 58.5322 20.0553C58.5285 20.0783 58.5288 20.102 58.5332 20.1249Z" fill="#263238"/>
<path d="M62.2224 26.1348C62.1837 26.1433 62.1495 26.1693 62.1272 26.2071C62.1049 26.2449 62.0962 26.2915 62.1032 26.3367C62.11 26.3763 62.1282 26.4121 62.1547 26.438C62.1813 26.464 62.2146 26.4786 62.2492 26.4794H62.279L65.6136 25.7312C65.6329 25.7275 65.6513 25.7192 65.6677 25.7069C65.6841 25.6946 65.6982 25.6785 65.7091 25.6596C65.72 25.6407 65.7274 25.6193 65.731 25.5969C65.7346 25.5746 65.7342 25.5515 65.7299 25.5293L65.0921 21.6317C65.0846 21.5856 65.0617 21.5448 65.0285 21.5184C64.9952 21.4919 64.9544 21.482 64.9148 21.4908C64.8753 21.4996 64.8404 21.5263 64.8178 21.5651C64.7951 21.604 64.7866 21.6517 64.7941 21.6978L65.411 25.404L62.2224 26.1348Z" fill="#263238"/>
<path d="M60.196 24.8925C60.2103 24.9098 60.2274 24.9237 60.2463 24.9333C60.2653 24.9428 60.2856 24.9479 60.3063 24.9481C60.3437 24.9485 60.3799 24.9323 60.4076 24.9029L64.07 21.0018C64.0843 20.9862 64.0956 20.9673 64.1034 20.9464C64.1112 20.9254 64.1152 20.9028 64.1152 20.88C64.1152 20.8572 64.1112 20.8346 64.1034 20.8137C64.0956 20.7927 64.0843 20.7738 64.07 20.7582C64.0564 20.742 64.0402 20.7291 64.0223 20.7203C64.0044 20.7116 63.9851 20.707 63.9657 20.707C63.9463 20.707 63.927 20.7116 63.9091 20.7203C63.8912 20.7291 63.875 20.742 63.8614 20.7582L60.196 24.6454C60.182 24.6615 60.171 24.6808 60.1634 24.702C60.1558 24.7232 60.1519 24.7459 60.1519 24.7689C60.1519 24.7919 60.1558 24.8146 60.1634 24.8358C60.171 24.857 60.182 24.8763 60.196 24.8925Z" fill="#263238"/>
<path d="M56.4025 26.7543L55.5383 28.2437L55.0048 27.8226L55.869 26.3332L55.4012 25.9643L53.3867 29.4373L53.8546 29.8062L54.7188 28.3203L55.2492 28.7379L54.385 30.2273L54.8618 30.6031L56.8763 27.1301L56.4025 26.7543Z" fill="#263238"/>
<path d="M58.2381 28.9327L58.5242 28.4351L57.0789 27.2902L56.7928 27.7878L57.2816 28.1741L55.5532 31.153L56.021 31.5218L57.7494 28.5464L58.2381 28.9327Z" fill="#263238"/>
<path d="M60.0381 29.6322L58.2918 31.849L58.2828 31.842L59.3735 29.1067L58.7239 28.5917L56.7094 32.0682L57.1147 32.3884L58.5421 29.935L58.551 29.9384L57.4633 32.6668L57.9074 33.0148L59.6685 30.7736L59.6745 30.7806L58.2292 33.2723L58.6702 33.6203L60.6877 30.1472L60.0381 29.6322Z" fill="#263238"/>
<path d="M61.0274 30.4152L59.01 33.8883L60.2467 34.8696L60.5357 34.372L59.7669 33.763L61.4953 30.7876L61.0274 30.4152Z" fill="#263238"/>
<path d="M18.7382 78.8742L18.0081 81.961C17.9336 82.2707 17.7757 82.309 17.6029 82.2463C17.5403 82.228 17.4787 82.2059 17.4181 82.1802L17.284 82.7579C17.3685 82.7971 17.4551 82.8296 17.5433 82.8553C17.9545 82.9876 18.3747 82.8971 18.5654 82.0897L19.2836 79.0517L18.7382 78.8742Z" fill="#263238"/>
<path d="M21.0299 80.6908C21.1818 80.0435 20.9971 79.605 20.4547 79.4276L19.668 79.17L18.7114 83.2138L19.2538 83.3913L19.6144 81.8705L19.8706 81.954C20.416 82.128 20.7646 81.8636 20.9196 81.2163L21.0299 80.6908ZM20.4935 80.475L20.3504 81.084C20.2819 81.3729 20.1657 81.432 19.9928 81.3798L19.7365 81.2963L20.0584 79.9252L20.3176 80.0087C20.4905 80.0609 20.562 80.1862 20.4935 80.475Z" fill="#263238"/>
<path d="M22.2964 79.9739C21.76 79.7999 21.4024 80.0818 21.2444 80.7291L20.7468 82.8171C20.5918 83.4644 20.7825 83.9237 21.3159 84.0942C21.8494 84.2648 22.2099 83.9864 22.3679 83.3391L22.6659 82.0584L21.903 81.8114L21.7659 82.389L22.0133 82.4691L21.8374 83.2138C21.7689 83.5026 21.6378 83.5618 21.462 83.5166C21.2861 83.4713 21.2057 83.3217 21.2742 83.0328L21.7898 80.8474C21.8583 80.5586 21.9954 80.4994 22.1682 80.5412C22.3411 80.5829 22.4245 80.743 22.356 81.0318L22.2517 81.4634L22.7672 81.6304L22.8596 81.2372C23.0205 80.6038 22.8298 80.1444 22.2964 79.9739Z" fill="#263238"/>
<path d="M30.7238 72.5058C30.73 72.4773 30.73 72.4474 30.7238 72.4188L29.7911 70.5013L28.7481 68.3507L27.8779 66.562C27.8645 66.5353 27.8449 66.5135 27.8213 66.4993H27.8034L16.4645 62.8279C16.4282 62.8105 16.3875 62.8105 16.3513 62.8279C16.3173 62.8513 16.2918 62.8885 16.2797 62.9323L11.324 83.8993C11.314 83.9436 11.3193 83.9908 11.3388 84.0305C11.3583 84.0703 11.3905 84.0994 11.4283 84.1116L26.671 89.0289H26.7097C26.7424 89.0286 26.774 89.0159 26.7999 88.9927C26.8257 88.9694 26.8443 88.9369 26.8528 88.9001L30.7268 72.5441C30.728 72.536 30.728 72.5278 30.7268 72.5197L30.7238 72.5058ZM28.5275 74.6565L27.3534 72.5859C27.3339 72.5516 27.3047 72.5265 27.2709 72.515C27.237 72.5036 27.2008 72.5065 27.1687 72.5232L22.1027 75.2829L19.6978 71.1869C19.6786 71.1542 19.6504 71.1302 19.6178 71.1188C19.5853 71.1074 19.5505 71.1094 19.519 71.1243L15.5914 73.0035L17.4747 65.0273L27.2104 68.1593L26.4952 71.1799C26.485 71.2247 26.4903 71.2723 26.5098 71.3126C26.5292 71.3529 26.5614 71.3827 26.5995 71.3957L29.1027 72.2031L28.5275 74.6565ZM15.496 73.428L19.5279 71.5036L21.9328 75.603C21.9523 75.6372 21.9818 75.6621 22.0157 75.6729C22.0497 75.6838 22.0858 75.68 22.1176 75.6622L27.1836 72.906L28.4292 75.1054L27.416 79.3893L15.0311 75.3942L15.496 73.428ZM26.82 71.1173L27.7706 67.0944L30.2619 72.2274L26.82 71.1173ZM26.5965 88.6495L11.6518 83.8228L16.5271 63.2073L27.5531 66.7638L27.3028 67.8322L17.4241 64.6445C17.3858 64.6335 17.3454 64.6401 17.311 64.6627C17.2767 64.6853 17.2511 64.7224 17.2393 64.7663L14.7093 75.4708C14.6992 75.5151 14.7045 75.5622 14.7241 75.6019C14.7436 75.6417 14.7758 75.6708 14.8136 75.6831L27.4786 79.7686H27.5203C27.5453 79.7687 27.5699 79.7615 27.5918 79.7477C27.6143 79.7258 27.6308 79.6968 27.6395 79.6642L29.3768 72.3179L30.3781 72.6415L26.5965 88.6495Z" fill="#263238"/>
<path d="M21.5365 67.3868C21.152 67.2645 20.7418 67.3245 20.3951 67.5538C20.0506 67.7788 19.7966 68.1543 19.6889 68.5978C19.6347 68.8199 19.619 69.0524 19.6426 69.2817C19.6661 69.5109 19.7286 69.7325 19.8262 69.9333C19.9238 70.1341 20.0547 70.3102 20.2112 70.4514C20.3677 70.5925 20.5468 70.6959 20.7378 70.7554C20.8686 70.7995 21.004 70.8217 21.1401 70.8215C21.4689 70.8232 21.789 70.6978 22.0504 70.4649C22.3118 70.232 22.4999 69.9047 22.5854 69.5339C22.64 69.3116 22.6561 69.0788 22.6328 68.8491C22.6094 68.6194 22.5471 68.3975 22.4494 68.1962C22.3517 67.995 22.2207 67.8186 22.0639 67.6772C21.9072 67.5358 21.7279 67.4323 21.5365 67.3728V67.3868ZM22.2993 69.4539C22.2144 69.8152 22.01 70.1223 21.7311 70.3077C21.4522 70.493 21.1217 70.5414 20.8123 70.4422C20.5029 70.343 20.2399 70.1043 20.0812 69.7786C19.9225 69.453 19.881 69.067 19.966 68.7057C20.0323 68.4059 20.1823 68.1405 20.3922 67.9514C20.6022 67.7623 20.8601 67.6604 21.1252 67.6617C21.3106 67.6627 21.4932 67.7134 21.6591 67.81C21.825 67.9065 21.9697 68.0462 22.082 68.2184C22.1943 68.3906 22.2712 68.5906 22.3068 68.803C22.3425 69.0154 22.3358 69.2345 22.2874 69.4434L22.2993 69.4539Z" fill="#263238"/>
<path d="M125.676 43.4408L119.418 28.1288C119.402 28.1037 119.38 28.0844 119.355 28.0732L113.896 25.7868C113.87 25.7781 113.843 25.7781 113.818 25.7868H113.8H113.782L103.191 31.6924C103.174 31.702 103.158 31.7157 103.145 31.7325C103.132 31.7494 103.122 31.769 103.116 31.7904C103.11 31.8118 103.107 31.8344 103.108 31.857C103.109 31.8796 103.114 31.9017 103.123 31.922L111.136 51.5423C111.144 51.5628 111.156 51.5812 111.17 51.5962C111.184 51.6112 111.201 51.6224 111.22 51.6293C111.236 51.6326 111.253 51.6326 111.27 51.6293C111.291 51.6361 111.312 51.6361 111.333 51.6293L125.604 43.681C125.623 43.6713 125.639 43.6573 125.653 43.6397C125.667 43.6222 125.678 43.6015 125.684 43.579C125.691 43.5565 125.694 43.5326 125.692 43.5089C125.691 43.4851 125.685 43.4619 125.676 43.4408ZM115.672 30.0185L114.134 26.2566L118.902 28.2228L115.672 30.0185ZM115.466 30.3282C115.479 30.3578 115.498 30.3826 115.523 30.3998C115.547 30.417 115.575 30.426 115.603 30.4256C115.625 30.4248 115.646 30.4189 115.666 30.4082L118.008 29.1032L120.753 35.844L109.163 42.282L105.194 32.5763L114.313 27.492L115.466 30.3282ZM111.339 51.236L103.457 31.929L113.773 26.1835L114.185 27.1823L104.947 32.3362C104.912 32.3568 104.884 32.3913 104.869 32.4336C104.854 32.4772 104.854 32.5257 104.869 32.5693L108.964 42.5917C108.975 42.6215 108.994 42.6467 109.018 42.664C109.042 42.6813 109.07 42.6901 109.098 42.6892C109.118 42.6939 109.14 42.6939 109.16 42.6892L121.021 36.0772C121.039 36.0675 121.055 36.0537 121.068 36.0367C121.081 36.0197 121.092 35.9997 121.098 35.978C121.105 35.9563 121.108 35.9333 121.107 35.9103C121.106 35.8873 121.101 35.8648 121.092 35.844L118.276 28.9536L119.215 28.4316L125.342 43.4339L111.339 51.236Z" fill="#263238"/>
<path d="M110.856 38.0399C111.02 38.0372 111.182 37.992 111.33 37.9077C112.325 37.3543 112.441 36.0911 112.522 34.7235H112.546L113.371 34.2641C113.69 35.5343 113.982 36.7001 114.062 37.0063C114.179 37.4483 114.405 37.4344 114.498 37.4065C114.796 37.3161 115.094 36.6375 115.043 36.2929C115.034 36.2482 115.011 36.209 114.978 36.1837C114.946 36.1584 114.906 36.1489 114.867 36.1572C114.848 36.1618 114.83 36.1707 114.813 36.1835C114.797 36.1963 114.783 36.2127 114.773 36.2318C114.762 36.2508 114.754 36.2722 114.751 36.2946C114.747 36.3171 114.747 36.3401 114.751 36.3625C114.742 36.5841 114.668 36.7954 114.542 36.9611C114.474 37.0516 114.429 37.069 114.423 37.069C114.417 37.069 114.384 37.0446 114.349 36.9054C114.268 36.5887 113.97 35.4055 113.645 34.1214L114.539 33.6273C114.558 33.6185 114.576 33.6053 114.59 33.5884C114.605 33.5715 114.616 33.5513 114.623 33.5291C114.631 33.5069 114.634 33.4831 114.634 33.4592C114.633 33.4353 114.628 33.4119 114.619 33.3903C114.61 33.3687 114.598 33.3495 114.582 33.3339C114.567 33.3182 114.549 33.3064 114.529 33.2993C114.51 33.2921 114.489 33.2897 114.469 33.2923C114.449 33.2948 114.429 33.3022 114.411 33.3141L113.556 33.756L112.644 30.109C112.641 30.0861 112.635 30.0641 112.625 30.0442C112.615 30.0244 112.601 30.007 112.586 29.9931C112.57 29.9792 112.552 29.9691 112.533 29.9633C112.514 29.9575 112.494 29.9561 112.474 29.9593C112.455 29.9625 112.436 29.9702 112.419 29.9819C112.402 29.9936 112.387 30.0091 112.375 30.0275C112.363 30.0459 112.354 30.0669 112.349 30.0893C112.344 30.1116 112.343 30.1349 112.346 30.1577V30.3665C112.346 30.9198 112.346 32.3953 112.263 33.8917C112.263 34.0831 112.242 34.2711 112.233 34.459C112.161 35.931 112.105 37.0933 111.211 37.591C111.079 37.6792 110.926 37.7109 110.776 37.6803C110.627 37.6498 110.492 37.5591 110.394 37.4239C110.262 37.2036 110.196 36.938 110.206 36.6691C110.217 36.4001 110.304 36.1429 110.454 35.938C111.091 34.894 111.67 35.3359 111.696 35.3568C111.729 35.3827 111.769 35.3922 111.808 35.3834C111.847 35.3746 111.881 35.3481 111.903 35.3098C111.926 35.2715 111.934 35.2245 111.926 35.1792C111.919 35.1338 111.896 35.0938 111.863 35.068C111.863 35.068 111.029 34.4207 110.212 35.7327C110.023 35.9998 109.915 36.3333 109.906 36.6801C109.898 37.0269 109.989 37.3671 110.165 37.6467C110.248 37.7681 110.353 37.8665 110.472 37.9345C110.592 38.0026 110.723 38.0386 110.856 38.0399ZM112.644 31.3618C112.82 32.0578 113.058 33.0043 113.288 33.9196L112.543 34.3337C112.543 34.1945 112.543 34.0553 112.564 33.9161C112.614 32.9835 112.644 32.0613 112.644 31.3618Z" fill="#263238"/>
<path d="M114.515 34.7095C114.521 34.8748 114.562 35.0357 114.634 35.1779C114.707 35.3201 114.808 35.439 114.93 35.5239C115.035 35.5942 115.154 35.6313 115.275 35.6317C115.37 35.6332 115.464 35.6094 115.55 35.5621C115.744 35.47 115.915 35.3233 116.05 35.1351C116.184 34.947 116.276 34.7231 116.318 34.4833C116.358 34.6468 116.439 34.7924 116.551 34.9009C116.579 34.9172 116.609 34.9256 116.64 34.9256C116.671 34.9256 116.702 34.9172 116.73 34.9009C116.86 34.8237 116.97 34.7058 117.048 34.5603C117.125 34.4149 117.166 34.2474 117.168 34.0762C117.165 34.0309 117.148 33.9884 117.12 33.9574C117.092 33.9263 117.054 33.9091 117.016 33.9091C116.977 33.91 116.94 33.9288 116.912 33.9613C116.885 33.9938 116.87 34.0376 116.87 34.0831C116.867 34.1734 116.848 34.2619 116.812 34.3421C116.777 34.4222 116.726 34.4919 116.664 34.546C116.478 33.9837 116.342 33.4007 116.259 32.806C116.259 32.719 116.232 32.6285 116.217 32.5345C116.217 32.4884 116.201 32.4441 116.173 32.4115C116.145 32.3789 116.108 32.3605 116.068 32.3605C116.029 32.3605 115.991 32.3789 115.963 32.4115C115.935 32.4441 115.919 32.4884 115.919 32.5345C115.89 32.5238 115.859 32.5238 115.83 32.5345C115.419 32.6423 115.057 32.9245 114.814 33.3264C114.571 33.7283 114.465 34.2212 114.515 34.7095ZM115.895 32.8443C115.918 32.8384 115.939 32.8265 115.958 32.8095C115.961 32.8399 115.966 32.8701 115.973 32.8999C116.187 34.3546 116.05 34.8975 115.421 35.2489C115.366 35.2762 115.307 35.2879 115.247 35.283C115.188 35.2782 115.13 35.257 115.079 35.2211C114.999 35.163 114.932 35.0827 114.886 34.9874C114.839 34.892 114.813 34.7846 114.81 34.6747C114.756 34.2655 114.839 33.8476 115.04 33.5071C115.242 33.1666 115.548 32.9294 115.895 32.8443Z" fill="#263238"/>
<path d="M115.293 42.4212C115.046 41.8157 114.632 41.6208 114.131 41.8992C113.63 42.1776 113.499 42.6788 113.747 43.2912L114.551 45.2609C114.799 45.8664 115.213 46.0613 115.713 45.7829C116.214 45.5045 116.345 45.0034 116.098 44.3909L115.293 42.4212ZM115.493 45.2331C115.332 45.3236 115.195 45.2783 115.076 45.0069L114.241 42.9641C114.131 42.6927 114.191 42.5326 114.352 42.4421C114.512 42.3516 114.65 42.3969 114.769 42.6683L115.603 44.7146C115.713 44.9825 115.654 45.1426 115.493 45.24V45.2331Z" fill="#263238"/>
<path d="M116.899 41.0744L116.679 40.535L115.103 41.412L115.323 41.9549L115.856 41.6556L117.183 44.9024L117.692 44.6206L116.366 41.3737L116.899 41.0744Z" fill="#263238"/>
<path d="M118.756 41.4433L118.097 41.8087L117.63 40.6673L118.47 40.201L118.249 39.6616L116.899 40.4132L118.446 44.1995L118.959 43.9141L118.318 42.3516L118.977 41.9862L118.756 41.4433Z" fill="#263238"/>
<path d="M74.5447 127.326V127.309V127.288C74.5303 127.263 74.5109 127.243 74.4881 127.229L72.7746 126.296L70.8555 125.252L69.2582 124.386C69.2329 124.377 69.206 124.377 69.1807 124.386H69.136L58.11 129.077C58.0915 129.084 58.0746 129.096 58.0602 129.112C58.0459 129.127 58.0344 129.146 58.0266 129.167C58.0185 129.188 58.0143 129.21 58.0143 129.233C58.0143 129.256 58.0185 129.279 58.0266 129.299L64.4008 149.72C64.4147 149.764 64.4424 149.8 64.4783 149.821C64.4989 149.826 64.5202 149.826 64.5408 149.821C64.5576 149.825 64.5748 149.825 64.5915 149.821L79.4468 143.498C79.4839 143.482 79.5142 143.45 79.531 143.408C79.5477 143.366 79.5496 143.318 79.5362 143.275L74.5447 127.326ZM70.6707 128.795L69.434 124.876L74.0143 127.368L70.6707 128.795ZM71.6213 128.76C71.6109 128.802 71.5922 128.84 71.5669 128.872C71.5415 128.904 71.5102 128.929 71.4753 128.944C71.4458 128.96 71.4138 128.968 71.3814 128.968C71.3491 128.968 71.3171 128.96 71.2876 128.944C71.2876 128.944 71.2727 128.944 71.2637 128.924L71.6213 128.76ZM70.4293 129.077C70.4397 129.11 70.4588 129.139 70.4838 129.16C70.5089 129.18 70.5388 129.192 70.5694 129.192C70.5872 129.195 70.6053 129.195 70.623 129.192L70.9419 129.056C70.9946 129.145 71.0666 129.216 71.1505 129.261C71.2197 129.298 71.2948 129.318 71.371 129.32C71.5766 130.517 71.6899 133.277 68.838 134.77H68.8201L68.7605 134.575C68.7465 134.532 68.7187 134.497 68.683 134.478C68.6468 134.46 68.6061 134.46 68.5698 134.478L67.9172 134.756C67.8986 134.763 67.8814 134.775 67.8667 134.79C67.8521 134.806 67.8402 134.824 67.8319 134.845C67.8235 134.866 67.8188 134.889 67.8181 134.911C67.8174 134.934 67.8207 134.957 67.8278 134.979L67.8874 135.174H67.8725C64.8627 136.176 63.4293 133.977 62.9287 132.905C62.9864 132.847 63.0331 132.776 63.0657 132.696C63.1253 132.542 63.1317 132.368 63.0836 132.209C63.0498 132.099 62.9908 132.002 62.9131 131.929C62.8354 131.856 62.742 131.809 62.643 131.793C62.544 131.778 62.4433 131.794 62.3518 131.841C62.2603 131.888 62.1816 131.963 62.1242 132.059C62.0668 132.154 62.033 132.266 62.0264 132.382C62.0198 132.499 62.0407 132.615 62.0868 132.718C62.1329 132.822 62.2024 132.909 62.2878 132.969C62.3732 133.029 62.4712 133.061 62.5711 133.061H62.6605C62.9403 133.655 63.3063 134.187 63.7422 134.634C64.4867 135.386 65.4403 135.794 66.4242 135.783H66.454L64.4038 136.656L64.3442 136.461C64.3377 136.44 64.3274 136.42 64.3141 136.403C64.3008 136.386 64.2846 136.373 64.2667 136.364C64.2489 136.354 64.2296 136.35 64.2101 136.35C64.1905 136.35 64.1712 136.354 64.1534 136.364L63.5008 136.642C63.4822 136.65 63.465 136.661 63.4504 136.677C63.4357 136.692 63.4238 136.711 63.4155 136.731C63.4071 136.752 63.4025 136.775 63.4018 136.798C63.4011 136.821 63.4044 136.843 63.4114 136.865L63.6498 137.627C63.6602 137.661 63.6793 137.69 63.7043 137.71C63.7294 137.731 63.7593 137.742 63.7899 137.742H63.8405L64.4932 137.463C64.5293 137.446 64.5589 137.414 64.5766 137.373C64.5915 137.331 64.5915 137.283 64.5766 137.241L64.5021 137.001L67.95 135.532H67.9738L68.0483 135.772C68.0538 135.794 68.0633 135.814 68.0762 135.831C68.0891 135.848 68.105 135.861 68.1228 135.87C68.1434 135.881 68.1657 135.887 68.1884 135.887H68.239L68.8916 135.609C68.9288 135.593 68.9591 135.561 68.9758 135.519C68.9926 135.477 68.9945 135.429 68.981 135.386L68.9065 135.149H68.9304L72.3931 133.632L72.4676 133.872C72.4781 133.906 72.4971 133.935 72.5222 133.955C72.5472 133.976 72.5771 133.987 72.6077 133.987H72.6613L73.311 133.709C73.3296 133.701 73.3468 133.689 73.3614 133.674C73.3761 133.659 73.388 133.64 73.3963 133.619C73.4047 133.599 73.4093 133.576 73.41 133.553C73.4107 133.53 73.4075 133.507 73.4004 133.486L73.165 132.724C73.1509 132.68 73.1227 132.645 73.0864 132.625C73.0502 132.606 73.0088 132.604 72.9713 132.619L72.3186 132.898C72.2821 132.914 72.2525 132.947 72.2363 132.988C72.2201 133.03 72.2187 133.078 72.2322 133.12L72.2918 133.315L70.2416 134.189C71.9312 132.553 71.824 130.316 71.6511 129.251C71.7389 129.191 71.8107 129.105 71.8581 129C71.9055 128.895 71.9268 128.777 71.9193 128.659L73.0607 128.172L75.245 135.17L63.176 140.279L60.0202 130.187L69.5085 126.147L70.4293 129.077ZM68.6652 135.288L68.2927 135.449L68.1586 135.014L68.5311 134.853L68.6652 135.288ZM62.3416 132.522C62.3302 132.486 62.325 132.449 62.3262 132.411C62.3274 132.373 62.335 132.336 62.3485 132.302C62.3621 132.267 62.3814 132.237 62.4053 132.211C62.4292 132.186 62.4572 132.166 62.4876 132.153C62.5145 132.142 62.5427 132.136 62.5711 132.136C62.622 132.136 62.6716 132.154 62.7132 132.188C62.7548 132.223 62.7863 132.271 62.8035 132.327C62.8273 132.397 62.8273 132.476 62.8035 132.546C62.7902 132.581 62.7708 132.611 62.7467 132.637C62.7226 132.662 62.6942 132.681 62.6634 132.692C62.6328 132.707 62.5999 132.715 62.5668 132.714C62.5336 132.714 62.5009 132.705 62.4707 132.689C62.4405 132.673 62.4135 132.65 62.3913 132.621C62.3691 132.592 62.3521 132.559 62.3416 132.522ZM64.2637 137.164L63.8912 137.324L63.7541 136.889L64.1266 136.729L64.2637 137.164ZM72.563 133.138L72.9355 132.981L73.0696 133.416L72.6971 133.573L72.563 133.138ZM64.6153 149.431L58.3424 129.338L69.0853 124.765L69.4102 125.809L59.7818 129.908C59.7447 129.924 59.7144 129.956 59.6976 129.998C59.6808 130.04 59.679 130.088 59.6924 130.131L62.9495 140.571C62.9555 140.593 62.9656 140.613 62.979 140.63C62.9924 140.647 63.0088 140.66 63.027 140.669C63.0464 140.68 63.0678 140.686 63.0896 140.686C63.1064 140.689 63.1235 140.689 63.1402 140.686L75.4864 135.431C75.523 135.415 75.5528 135.382 75.5695 135.341C75.5862 135.299 75.5884 135.252 75.5758 135.208L73.3408 128.047L74.3152 127.629L79.1905 143.247L64.6153 149.431Z" fill="#263238"/>
<path d="M68.9363 143.999L68.5758 142.844L69.3059 142.534L69.13 141.97L68.3999 142.28L68.0572 141.18L68.9751 140.79L68.7993 140.227L67.351 140.846L68.5817 144.785L70.03 144.169L69.8542 143.609L68.9363 143.999Z" fill="#263238"/>
<path d="M71.0045 140.394C70.8048 139.764 70.4383 139.531 69.9078 139.757L69.1271 140.087L70.3578 144.03L70.8882 143.804L70.4263 142.332L70.6767 142.224C71.2071 141.998 71.3591 141.546 71.1624 140.912L71.0045 140.394ZM70.5008 141.653L70.2505 141.761L69.8333 140.425L70.0836 140.321C70.2535 140.247 70.3816 140.3 70.4591 140.582L70.6439 141.173C70.7333 141.452 70.6707 141.584 70.5008 141.653Z" fill="#263238"/>
<path d="M72.414 140.686C71.9551 140.481 71.7822 140.314 71.6928 140.025C71.6034 139.736 71.669 139.593 71.8389 139.524C72.0087 139.454 72.1369 139.524 72.2233 139.799L72.2739 139.962L72.7776 139.75L72.7388 139.625C72.5421 138.995 72.1637 138.748 71.6481 138.967C71.1326 139.186 70.9776 139.663 71.1743 140.289C71.3144 140.742 71.5587 141.006 72.1428 141.274C72.6017 141.483 72.7746 141.65 72.864 141.939C72.9534 142.228 72.8789 142.367 72.709 142.436C72.5392 142.506 72.411 142.454 72.3157 142.172L72.2263 141.89L71.7256 142.106L71.8001 142.346C71.9968 142.976 72.3812 143.223 72.9027 143C73.4242 142.777 73.5792 142.304 73.3825 141.674C73.2395 141.222 73.01 140.94 72.414 140.686Z" fill="#263238"/>
<path d="M135.366 43.152L126.948 126.85C126.924 127.088 126.86 127.319 126.759 127.529C126.659 127.739 126.524 127.924 126.362 128.073C126.201 128.222 126.016 128.332 125.818 128.397C125.619 128.463 125.412 128.482 125.208 128.454L70.4651 120.951L79.2471 33.6029L133.99 41.1093C134.195 41.1369 134.394 41.2117 134.575 41.3295C134.756 41.4473 134.915 41.6058 135.043 41.7957C135.171 41.9856 135.265 42.2032 135.321 42.436C135.376 42.6688 135.392 42.9122 135.366 43.152Z" fill="#407BFF"/>
<mask id="mask0_61_2" style="mask-type:luminance" maskUnits="userSpaceOnUse" x="70" y="33" width="66" height="96">
<path d="M135.366 43.152L126.948 126.85C126.924 127.088 126.86 127.319 126.759 127.529C126.659 127.739 126.524 127.924 126.362 128.073C126.201 128.222 126.016 128.332 125.818 128.397C125.619 128.463 125.412 128.482 125.208 128.454L70.4651 120.951L79.2471 33.6029L133.99 41.1093C134.195 41.1369 134.394 41.2117 134.575 41.3295C134.756 41.4473 134.915 41.6058 135.043 41.7957C135.171 41.9856 135.265 42.2032 135.321 42.436C135.376 42.6688 135.392 42.9122 135.366 43.152Z" fill="white"/>
</mask>
<g mask="url(#mask0_61_2)">
<path d="M100.81 68.1036L100.489 71.3122L92.976 86.9339L98.8317 87.7378L98.5039 91.009L89.4864 89.784L89.8083 86.5755L97.3149 70.9537L91.7393 70.1881L92.0671 66.9169L100.81 68.1036Z" fill="#263238"/>
<path d="M102.631 68.3542L105.715 68.7753L103.406 91.6841L100.325 91.2595L102.631 68.3542Z" fill="#263238"/>
<path d="M116.518 75.9962L116.22 78.9751C115.85 82.6396 114.134 84.4283 111.056 84.0072L109.598 83.8054L108.731 92.4114L105.65 91.9903L107.953 69.0815L112.492 69.7044C115.579 70.129 116.891 72.3318 116.518 75.9962ZM110.704 72.7772L109.923 80.5342L111.38 80.7325C112.361 80.8682 112.948 80.4158 113.112 78.7802L113.458 75.3455C113.621 73.7099 113.142 73.1113 112.161 72.9791L110.704 72.7772Z" fill="#263238"/>
<path opacity="0.4" d="M135.366 43.152L126.948 126.85C126.924 127.088 126.86 127.319 126.759 127.529C126.659 127.739 126.524 127.924 126.362 128.073C126.201 128.222 126.016 128.332 125.818 128.397C125.619 128.463 125.412 128.482 125.208 128.454L70.4651 120.951L79.2471 33.6029L133.99 41.1093C134.195 41.1369 134.394 41.2117 134.575 41.3295C134.756 41.4473 134.915 41.6058 135.043 41.7957C135.171 41.9856 135.265 42.2032 135.321 42.436C135.376 42.6688 135.392 42.9122 135.366 43.152Z" fill="black" fill-opacity="0.7"/>
</g>
<path d="M135.366 43.152L126.948 126.85C126.924 127.088 126.86 127.319 126.759 127.529C126.659 127.739 126.524 127.924 126.362 128.073C126.201 128.222 126.016 128.332 125.818 128.397C125.619 128.463 125.412 128.482 125.208 128.454L70.4651 120.951L79.2471 33.6029L133.99 41.1093C134.195 41.1369 134.394 41.2117 134.575 41.3295C134.756 41.4473 134.915 41.6058 135.043 41.7957C135.171 41.9856 135.265 42.2032 135.321 42.436C135.376 42.6688 135.392 42.9122 135.366 43.152Z" stroke="#263238" stroke-miterlimit="10"/>
<path opacity="0.1" d="M104.458 112.752C104.472 113.542 104.217 114.306 103.751 114.879C103.284 115.451 102.643 115.785 101.967 115.807L70.8793 116.851L79.2501 33.5959L103.15 36.8741L104.458 112.752Z" fill="black" fill-opacity="0.7"/>
<path opacity="0.2" d="M34.3117 99.8447C34.3117 99.8447 36.1295 96.4899 38.5821 94.9448C38.5821 94.9448 45.5672 100.958 48.0614 113.737C48.0614 113.737 50.0998 119.541 50.3292 123.829C50.5587 128.116 46.035 137.272 44.7805 141.027C43.5259 144.782 39.3151 141.869 32.6936 154.31L37.6821 133.924L34.9763 115.693L34.3117 99.8447Z" fill="black" fill-opacity="0.7"/>
<path d="M33.817 159.875C35.6229 152.953 38.442 142.412 39.2943 140.735C40.5727 138.187 41.428 138.668 42.9448 137.046C44.4616 135.424 45.9248 126.689 44.9622 123.07C44.7656 122.325 44.5629 121.657 44.3662 121.059C44.1994 120.572 44.0355 120.123 43.8745 119.715C43.8149 119.566 43.7583 119.42 43.6987 119.277C43.1713 118.003 42.6974 117.119 42.3965 116.368C41.863 115.021 41.9703 111.224 40.4624 105.879C38.9546 100.534 38.144 95.8114 34.86 97.179C33.519 97.7393 32.8873 98.6615 32.774 102.622C32.6608 106.582 32.5595 110.72 33.2032 111.966C33.4058 112.359 33.5965 112.738 33.7664 113.079L33.9213 113.403C34.1121 113.779 34.2521 114.074 34.3236 114.224C34.3346 114.244 34.3445 114.265 34.3534 114.287C34.362 114.301 34.369 114.316 34.3743 114.332L34.3266 114.297L34.1657 114.179C34.1121 114.134 34.0435 114.085 33.972 114.022C33.9005 113.96 33.7306 113.82 33.5876 113.674C33.5161 113.608 33.4386 113.538 33.3581 113.458L33.2359 113.34C33.1495 113.26 33.0631 113.173 32.9737 113.076L32.6757 112.766L32.3151 112.362C32.0171 112.014 31.7191 111.666 31.4211 111.228C31.3645 111.155 31.3049 111.075 31.2483 110.991L30.9682 110.598L30.7178 110.222C30.5957 110.045 30.4765 109.853 30.3602 109.658C30.2977 109.561 30.2351 109.463 30.1785 109.362C30.0563 109.161 29.9341 108.952 29.8149 108.736C29.6957 108.52 29.5705 108.298 29.4484 108.064C29.3858 107.953 29.3262 107.835 29.2666 107.716C29.1474 107.48 29.0282 107.233 28.909 106.982L28.7302 106.596L28.5216 106.133L28.3785 105.785C28.3189 105.646 28.2623 105.507 28.2057 105.364C28.1491 105.221 28.1163 105.141 28.0716 105.016C28.0269 104.891 27.9584 104.724 27.9017 104.574C27.8451 104.424 27.7885 104.268 27.7349 104.111C27.6812 103.955 27.6246 103.801 27.568 103.641C27.2256 102.628 26.9272 101.596 26.674 100.548C26.6412 100.422 26.6084 100.294 26.5786 100.165C26.519 99.9143 26.4594 99.6672 26.4058 99.4097C26.3641 99.2183 26.3194 99.0234 26.2806 98.8251C26.078 97.8298 25.8962 96.7823 25.7442 95.6722C25.7442 95.6722 22.9818 98.9329 22.9818 103.085C22.9818 109.742 22.2695 117.398 22.3411 122.172C22.35 124.793 22.946 132.17 22.946 132.588C22.9473 132.591 22.948 132.595 22.948 132.598C22.948 132.602 22.9473 132.606 22.946 132.609C22.4296 133.692 21.9805 134.816 21.602 135.974C21.2443 137.066 21.0148 138.21 20.9196 139.374C20.866 140.209 20.0018 142.506 18.7829 145.36C16.8608 149.884 14.0537 155.845 12.1435 159.843L33.817 159.875Z" fill="white"/>
<path opacity="0.4" d="M40.826 138.695C40.1904 139.223 39.6706 139.918 39.3092 140.724C38.7132 141.921 37.1219 147.542 35.6021 153.183C35.1622 150.933 35.1877 148.594 35.6766 146.358C36.8417 140.79 38.74 139.98 40.826 138.695Z" fill="#407BFF"/>
<path opacity="0.4" d="M44.3603 121.045C41.4369 117.133 37.2261 115.432 36.6123 117.119C35.8732 119.138 34.8243 124.542 34.562 125.931L34.3832 125.583C32.8932 122.781 32.7025 118.811 32.7025 118.811L31.5284 119.639C30.9172 120.068 30.3947 120.649 29.998 121.34C29.6014 122.032 29.3404 122.818 29.2338 123.641C28.7838 127.121 27.9852 132.797 27.6484 131.993C27.3117 131.189 22.2338 139.583 18.774 145.391C19.9928 142.527 20.86 140.241 20.9106 139.405C21.0058 138.241 21.2354 137.098 21.5931 136.005C22.3202 134.203 22.8387 132.912 22.937 132.64C22.9384 132.637 22.9391 132.633 22.9391 132.63C22.9391 132.626 22.9384 132.623 22.937 132.619C22.937 132.212 22.341 124.835 22.2963 122.228C22.2338 117.412 22.946 109.756 22.946 103.099C22.946 98.9469 25.7084 95.6861 25.7084 95.6861C25.8604 96.7962 26.0422 97.8437 26.2448 98.839C26.2836 99.0373 26.3283 99.2322 26.37 99.4236C26.4236 99.6811 26.4832 99.9282 26.5428 100.179C26.5726 100.308 26.6054 100.436 26.6382 100.562C26.8915 101.61 27.1899 102.642 27.5322 103.655C27.5858 103.815 27.6425 103.972 27.6991 104.125C27.7557 104.278 27.8093 104.435 27.866 104.588C27.9226 104.741 27.9792 104.887 28.0358 105.03C28.0924 105.173 28.1252 105.26 28.1699 105.378C28.2146 105.496 28.2832 105.66 28.3428 105.799L28.4858 106.147L28.6944 106.61L28.8732 106.996C28.9924 107.247 29.1116 107.494 29.2308 107.73L29.4126 108.078C29.5348 108.308 29.6569 108.534 29.7791 108.75C29.9013 108.966 30.0205 109.175 30.1427 109.376C30.2023 109.477 30.2619 109.578 30.3245 109.672C30.4407 109.867 30.5629 110.058 30.6821 110.236L30.9324 110.612L31.2125 111.005L31.3853 111.242C31.7012 111.67 32.0022 112.042 32.2793 112.376L32.6399 112.78L32.9379 113.09C33.0273 113.187 33.1137 113.271 33.2002 113.354L33.3223 113.472C33.4028 113.552 33.4803 113.622 33.5518 113.688C33.6948 113.82 33.826 113.928 33.9362 114.036L34.1299 114.193L34.2908 114.311L34.3385 114.346C34.3333 114.33 34.3263 114.315 34.3177 114.301C34.3088 114.279 34.2988 114.258 34.2879 114.238C34.2163 114.088 34.0763 113.793 33.8856 113.417L33.7306 113.093C33.5607 112.745 33.37 112.373 33.1674 111.979C32.5237 110.734 32.634 106.599 32.7383 102.636C32.8426 98.6719 33.4773 97.7637 34.8243 97.1929C38.1023 95.8009 38.9218 100.544 40.4267 105.893C41.9316 111.242 41.8273 115.035 42.3607 116.382C42.6587 117.133 43.1355 118.017 43.6629 119.291C43.7225 119.43 43.7821 119.58 43.8388 119.729C44.0295 120.109 44.1934 120.558 44.3603 121.045Z" fill="#407BFF"/>
<path opacity="0.4" d="M34.4935 126.258C34.4935 126.258 34.5173 126.143 34.5561 125.931C35.7421 128.207 34.4935 126.258 34.4935 126.258Z" fill="#407BFF"/>
<path d="M34.6991 156.52C36.4335 149.964 38.5731 142.158 39.2913 140.724C40.5757 138.177 41.428 138.657 42.9448 137.035C44.4616 135.414 45.9248 126.679 44.9622 123.06C43.9997 119.441 42.9239 117.697 42.3905 116.354C41.8571 115.011 41.9643 111.21 40.4565 105.865C38.9486 100.52 38.1351 95.7974 34.8541 97.1651C33.5131 97.7288 32.8813 98.6476 32.7681 102.608C32.6548 106.568 32.5565 110.702 33.1972 111.952C33.8379 113.201 34.3713 114.321 34.3713 114.321C34.3713 114.321 27.6425 109.878 25.7084 95.7C25.7084 95.7 22.946 98.9608 22.946 103.112C22.946 109.77 22.2338 117.426 22.3053 122.204C22.35 124.793 22.946 132.17 22.946 132.588C22.946 132.71 21.1163 136.096 20.9017 139.416C20.8153 140.763 18.616 145.899 16.2171 151.154" stroke="#263238" stroke-linecap="round" stroke-linejoin="round"/>
<path d="M34.3773 114.328C34.8064 115.574 34.6753 117.68 34.8541 120.871C35.0329 124.062 35.6587 125.2 35.6587 125.2" stroke="#263238" stroke-linecap="round" stroke-linejoin="round"/>
<path d="M35.018 122.68C34.7307 124.29 34.5169 125.916 34.3773 127.552" stroke="#263238" stroke-linecap="round" stroke-linejoin="round"/>
<path d="M26.7932 117.885C26.7932 117.885 27.6395 125.931 27.6425 128.673" stroke="#263238" stroke-linecap="round" stroke-linejoin="round"/>
<path d="M40.1078 139.405C37.691 141.145 36.4067 141.775 35.6587 145.144" stroke="#263238" stroke-linecap="round" stroke-linejoin="round"/>
<path d="M22.946 132.588C23.8013 130.309 24.1738 125.21 24.1738 125.21" stroke="#263238" stroke-linecap="round" stroke-linejoin="round"/>
<path d="M25.0469 119.486L38.9754 114.412V26.3227L25.0469 21.2489C24.2155 20.9461 23.5331 21.4995 23.5331 22.4843V118.25C23.542 119.235 24.2155 119.789 25.0469 119.486Z" fill="#407BFF" stroke="#263238" stroke-miterlimit="10"/>
<path opacity="0.3" d="M38.9784 26.3262V114.412L26.7306 118.87C26.5354 118.943 26.328 118.962 26.1255 118.924C25.923 118.886 25.731 118.793 25.5653 118.652C25.3996 118.51 25.2649 118.325 25.1722 118.112C25.0795 117.898 25.0315 117.662 25.032 117.422V23.316C25.0321 23.0781 25.0801 22.8435 25.1721 22.6312C25.2641 22.419 25.3976 22.2349 25.5618 22.094C25.726 21.9531 25.9162 21.8593 26.1172 21.8201C26.3181 21.7809 26.5242 21.7974 26.7187 21.8683L38.9784 26.3262Z" fill="black" fill-opacity="0.7"/>
<path d="M95.506 28.1567V112.446C95.5052 112.932 95.3395 113.398 95.0452 113.742C94.7508 114.085 94.3518 114.279 93.9356 114.28H38.8056V26.3262H93.9356C94.1417 26.3258 94.3458 26.3728 94.5363 26.4646C94.7268 26.5564 94.9 26.6911 95.0459 26.8611C95.1917 27.0312 95.3075 27.2331 95.3864 27.4554C95.4654 27.6777 95.506 27.916 95.506 28.1567Z" fill="#407BFF"/>
<mask id="mask1_61_2" style="mask-type:luminance" maskUnits="userSpaceOnUse" x="38" y="26" width="58" height="89">
<path d="M95.506 28.1567V112.446C95.5052 112.932 95.3395 113.398 95.0452 113.742C94.7508 114.085 94.3518 114.279 93.9356 114.28H38.8056V26.3262H93.9356C94.1417 26.3258 94.3458 26.3728 94.5363 26.4646C94.7268 26.5564 94.9 26.6911 95.0459 26.8611C95.1917 27.0312 95.3075 27.2331 95.3864 27.4554C95.4654 27.6777 95.506 27.916 95.506 28.1567Z" fill="white"/>
</mask>
<g mask="url(#mask1_61_2)">
<path opacity="0.3" d="M94.9666 61.2828V113.831C94.6815 114.123 94.3149 114.284 93.9356 114.283H38.8056V26.9352H91.8108C91.9833 26.9348 92.1541 26.9741 92.3135 27.0508C92.4729 27.1275 92.6178 27.2403 92.7399 27.3825C92.862 27.5247 92.9588 27.6937 93.0249 27.8797C93.091 28.0657 93.125 28.2651 93.125 28.4664V59.6716L93.6524 59.6994C94.0043 59.7138 94.3377 59.8868 94.5827 60.182C94.8277 60.4772 94.9653 60.8717 94.9666 61.2828Z" fill="black" fill-opacity="0.7"/>
</g>
<path d="M95.506 28.1567V112.446C95.5052 112.932 95.3395 113.398 95.0452 113.742C94.7508 114.085 94.3518 114.279 93.9356 114.28H38.8056V26.3262H93.9356C94.1417 26.3258 94.3458 26.3728 94.5363 26.4646C94.7268 26.5564 94.9 26.6911 95.0459 26.8611C95.1917 27.0312 95.3075 27.2331 95.3864 27.4554C95.4654 27.6777 95.506 27.916 95.506 28.1567Z" stroke="#263238" stroke-miterlimit="10"/>
<path d="M94.168 84.4979V106.878C94.168 107.264 94.0466 107.636 93.8268 107.924C93.607 108.212 93.3042 108.396 92.976 108.44L92.3383 108.524L86.7716 109.22V82.128L92.976 82.9319C93.3045 82.9771 93.6073 83.1615 93.827 83.4502C94.0467 83.7388 94.1681 84.1116 94.168 84.4979Z" fill="#999999"/>
<mask id="mask2_61_2" style="mask-type:luminance" maskUnits="userSpaceOnUse" x="86" y="82" width="9" height="28">
<path d="M94.168 84.4979V106.878C94.168 107.264 94.0466 107.636 93.8268 107.924C93.607 108.212 93.3042 108.396 92.976 108.44L92.3383 108.524L86.7716 109.22V82.128L92.976 82.9319C93.3045 82.9771 93.6073 83.1615 93.827 83.4502C94.0467 83.7388 94.1681 84.1116 94.168 84.4979Z" fill="white"/>
</mask>
<g mask="url(#mask2_61_2)">
<path opacity="0.2" d="M94.168 84.4979V85.5662L92.3383 85.956V108.513L86.7716 109.209V82.128L92.976 82.9319C93.3045 82.9771 93.6073 83.1615 93.827 83.4502C94.0467 83.7388 94.1681 84.1116 94.168 84.4979Z" fill="black" fill-opacity="0.7"/>
</g>
<path d="M94.168 84.4979V106.878C94.168 107.264 94.0466 107.636 93.8268 107.924C93.607 108.212 93.3042 108.396 92.976 108.44L92.3383 108.524L86.7716 109.22V82.128L92.976 82.9319C93.3045 82.9771 93.6073 83.1615 93.827 83.4502C94.0467 83.7388 94.1681 84.1116 94.168 84.4979Z" stroke="#263238" stroke-linecap="round" stroke-linejoin="round"/>
<path d="M94.168 59.2679V81.6478C94.168 82.0336 94.0466 82.406 93.8268 82.6941C93.607 82.9822 93.3042 83.1659 92.976 83.2103L91.7154 83.3704V111.287C91.7162 111.698 91.5921 112.097 91.3652 112.412C91.1382 112.726 90.8231 112.937 90.4758 113.006C90.3904 113.026 90.3035 113.035 90.2165 113.034L38.8354 112.985V27.84L90.2165 27.8887C90.3036 27.8888 90.3905 27.8993 90.4758 27.9201C90.8226 27.9891 91.1373 28.1992 91.3642 28.5132C91.5911 28.8272 91.7155 29.2249 91.7154 29.6357V57.5523L92.976 57.7158C93.3029 57.7593 93.6049 57.9413 93.8246 58.2273C94.0443 58.5134 94.1665 58.8837 94.168 59.2679Z" fill="white"/>
<mask id="mask3_61_2" style="mask-type:luminance" maskUnits="userSpaceOnUse" x="38" y="27" width="57" height="87">
<path d="M94.168 59.2679V81.6478C94.168 82.0336 94.0466 82.406 93.8268 82.6941C93.607 82.9822 93.3042 83.1659 92.976 83.2103L91.7154 83.3704V111.287C91.7162 111.698 91.5921 112.097 91.3652 112.412C91.1382 112.726 90.8231 112.937 90.4758 113.006C90.3904 113.026 90.3035 113.035 90.2165 113.034L38.8354 112.985V27.84L90.2165 27.8887C90.3036 27.8888 90.3905 27.8993 90.4758 27.9201C90.8226 27.9891 91.1373 28.1992 91.3642 28.5132C91.5911 28.8272 91.7155 29.2249 91.7154 29.6357V57.5523L92.976 57.7158C93.3029 57.7593 93.6049 57.9413 93.8246 58.2273C94.0443 58.5134 94.1665 58.8837 94.168 59.2679Z" fill="white"/>
</mask>
<g mask="url(#mask3_61_2)">
<path d="M94.168 59.2679V81.6478C94.168 82.0336 94.0466 82.406 93.8268 82.6941C93.607 82.9822 93.3042 83.1659 92.976 83.2103L91.7155 83.3704V111.287C91.7162 111.698 91.5921 112.097 91.3652 112.412C91.1382 112.726 90.8231 112.937 90.4758 113.006V27.9096C90.8226 27.9786 91.1373 28.1887 91.3642 28.5028C91.5911 28.8168 91.7155 29.2144 91.7155 29.6252V57.5418L92.976 57.7054C93.3045 57.749 93.6076 57.9325 93.8275 58.2208C94.0474 58.509 94.1686 58.8818 94.168 59.2679Z" fill="#BFBFBF"/>
<path d="M61.5221 39.505V56.4734H45.7102V34.7408H57.4395L60.1841 37.9424L61.5221 39.505Z" fill="#407BFF" stroke="#263238" stroke-linecap="round" stroke-linejoin="round"/>
<path opacity="0.5" d="M60.1841 37.9425V47.3002H47.0453V36.1955H58.6881L60.1841 37.9425Z" fill="white"/>
<path d="M60.1841 37.9425V47.3002H47.0453V36.1955H58.6881L60.1841 37.9425Z" stroke="#263238" stroke-linecap="round" stroke-linejoin="round"/>
<path d="M51.0414 52.9239C51.101 52.9239 51.1755 52.9239 51.2351 52.9239C51.4169 52.9239 51.56 52.8473 51.56 52.5202V49.3221H52.1232V52.475C52.1232 53.3136 51.7388 53.519 51.3126 53.519C51.2223 53.5261 51.1317 53.5261 51.0414 53.519V52.9239Z" fill="#263238"/>
<path d="M54.1824 50.3661V50.909C54.1824 51.5806 53.9052 51.953 53.339 51.953H53.0738V53.5294H52.5076V49.329H53.342C53.9052 49.329 54.1824 49.6944 54.1824 50.3661ZM53.0738 49.9276V51.3474H53.342C53.5238 51.3474 53.6191 51.2535 53.6191 50.9507V50.3243C53.6191 50.0216 53.5238 49.9276 53.342 49.9276H53.0738Z" fill="#263238"/>
<path d="M55.2909 51.1874H56.0806V52.5167C56.0806 53.1884 55.7826 53.5607 55.2403 53.5607C54.6979 53.5607 54.3969 53.1779 54.3969 52.5167V50.3348C54.3969 49.6631 54.6949 49.2908 55.2403 49.2908C55.7856 49.2908 56.0806 49.6736 56.0806 50.3348V50.7419H55.5472V50.293C55.5472 49.9937 55.434 49.8789 55.2492 49.8789C55.0644 49.8789 54.9512 49.9937 54.9512 50.293V52.5481C54.9512 52.8473 55.0644 52.9552 55.2492 52.9552C55.434 52.9552 55.5472 52.8473 55.5472 52.5481V51.7755H55.2909V51.1874Z" fill="#263238"/>
<path d="M61.5221 39.505H57.4395V34.7408L60.1841 37.9424L61.5221 39.505Z" fill="#407BFF" stroke="#263238" stroke-linecap="round" stroke-linejoin="round"/>
<path d="M60.1841 42.6022V47.3002H47.0453V44.9965L50.6421 41.7496L53.9887 45.0452L58.3335 40.7195L60.1841 42.6022Z" fill="#407BFF" stroke="#263238" stroke-linecap="round" stroke-linejoin="round"/>
<path d="M51.6404 40.7195C52.3876 40.7195 52.9933 40.0122 52.9933 39.1396C52.9933 38.267 52.3876 37.5597 51.6404 37.5597C50.8932 37.5597 50.2875 38.267 50.2875 39.1396C50.2875 40.0122 50.8932 40.7195 51.6404 40.7195Z" fill="#407BFF" stroke="#263238" stroke-linecap="round" stroke-linejoin="round"/>
<path d="M83.4877 39.505V56.4734H67.6758V34.7408H79.4081L82.1526 37.9424L83.4877 39.505Z" fill="#407BFF" stroke="#263238" stroke-linecap="round" stroke-linejoin="round"/>
<path opacity="0.5" d="M82.1526 37.9425V47.3002H69.0108V36.1955H80.6537L82.1526 37.9425Z" fill="white"/>
<path d="M82.1526 37.9425V47.3002H69.0108V36.1955H80.6537L82.1526 37.9425Z" stroke="#263238" stroke-linecap="round" stroke-linejoin="round"/>
<path d="M71.067 44.3805H80.0934" stroke="#263238" stroke-linecap="round" stroke-linejoin="round"/>
<path d="M70.8942 39.505C70.8942 39.505 70.8942 44.4014 75.5817 44.4014C80.2693 44.4014 80.2693 39.505 80.2693 39.505" stroke="#263238" stroke-linecap="round" stroke-linejoin="round"/>
<path d="M71.2876 39.505C71.279 39.6204 71.2336 39.7278 71.1605 39.8061C71.0874 39.8843 70.9919 39.9278 70.8927 39.9278C70.7935 39.9278 70.698 39.8843 70.6249 39.8061C70.5518 39.7278 70.5064 39.6204 70.4979 39.505C70.4931 39.4411 70.4998 39.3767 70.5175 39.316C70.5351 39.2552 70.5634 39.1994 70.6006 39.1521C70.6377 39.1048 70.6828 39.0671 70.7331 39.0412C70.7834 39.0154 70.8378 39.0021 70.8927 39.0021C70.9476 39.0021 71.002 39.0154 71.0523 39.0412C71.1026 39.0671 71.1477 39.1048 71.1848 39.1521C71.222 39.1994 71.2503 39.2552 71.268 39.316C71.2856 39.3767 71.2923 39.4411 71.2876 39.505Z" fill="#407BFF" stroke="#263238" stroke-linecap="round" stroke-linejoin="round"/>
<path d="M80.6626 39.505C80.654 39.6204 80.6087 39.7278 80.5356 39.8061C80.4625 39.8843 80.367 39.9278 80.2678 39.9278C80.1686 39.9278 80.073 39.8843 79.9999 39.8061C79.9268 39.7278 79.8815 39.6204 79.8729 39.505C79.8682 39.4411 79.8749 39.3767 79.8925 39.316C79.9102 39.2552 79.9385 39.1994 79.9756 39.1521C80.0128 39.1048 80.0579 39.0671 80.1082 39.0412C80.1585 39.0154 80.2128 39.0021 80.2678 39.0021C80.3227 39.0021 80.3771 39.0154 80.4274 39.0412C80.4777 39.0671 80.5228 39.1048 80.5599 39.1521C80.5971 39.1994 80.6254 39.2552 80.643 39.316C80.6607 39.3767 80.6674 39.4411 80.6626 39.505Z" fill="#407BFF" stroke="#263238" stroke-linecap="round" stroke-linejoin="round"/>
<path d="M71.2399 43.9977H70.5455V44.8085H71.2399V43.9977Z" fill="#407BFF" stroke="#263238" stroke-linecap="round" stroke-linejoin="round"/>
<path d="M75.9274 43.9977H75.2331V44.8085H75.9274V43.9977Z" fill="#407BFF" stroke="#263238" stroke-linecap="round" stroke-linejoin="round"/>
<path d="M80.615 43.9977H79.9206V44.8085H80.615V43.9977Z" fill="#407BFF" stroke="#263238" stroke-linecap="round" stroke-linejoin="round"/>
<path d="M83.4877 39.505H79.4081V34.7408L82.1526 37.9424L83.4877 39.505Z" fill="#407BFF" stroke="#263238" stroke-linecap="round" stroke-linejoin="round"/>
<path d="M73.4808 51.0969H74.2556V51.6954H73.4808V52.9239H74.4553V53.5224H72.9146V49.329H74.4553V49.9276H73.4808V51.0969Z" fill="#263238"/>
<path d="M76.4787 50.3661V50.909C76.4787 51.5806 76.2016 51.953 75.6354 51.953H75.3672V53.5294H74.798V49.329H75.6294C76.2016 49.329 76.4787 49.6944 76.4787 50.3661ZM75.3672 49.9276V51.3474H75.6354C75.8142 51.3474 75.9125 51.2535 75.9125 50.9507V50.3243C75.9125 50.0216 75.8142 49.9276 75.6354 49.9276H75.3672Z" fill="#263238"/>
<path d="M77.4979 49.2803C78.0492 49.2803 78.3293 49.6631 78.3293 50.3243V50.4601H77.7959V50.2861C77.7959 49.9868 77.6945 49.8719 77.5128 49.8719C77.331 49.8719 77.2327 49.9868 77.2327 50.2861C77.2327 50.5853 77.3429 50.8185 77.7154 51.1978C78.1863 51.6815 78.3352 52.0295 78.3352 52.5098C78.3352 53.1814 78.0373 53.5538 77.4919 53.5538C76.9466 53.5538 76.6516 53.171 76.6516 52.5098V52.2523H77.182V52.5481C77.182 52.8473 77.2952 52.9552 77.48 52.9552C77.6647 52.9552 77.778 52.8473 77.778 52.5481C77.778 52.2488 77.6677 52.0156 77.2982 51.6363C76.8244 51.1526 76.6754 50.8046 76.6754 50.3243C76.6664 49.6631 76.9495 49.2803 77.4979 49.2803Z" fill="#263238"/>
<path d="M83.4877 64.9925V81.961H67.6758V60.2249H79.4081L82.1526 63.43L83.4877 64.9925Z" fill="#407BFF" stroke="#263238" stroke-linecap="round" stroke-linejoin="round"/>
<path opacity="0.5" d="M82.1526 63.43V72.7877H69.0108V61.683H80.6537L82.1526 63.43Z" fill="white"/>
<path d="M82.1526 63.43V72.7877H69.0108V61.683H80.6537L82.1526 63.43Z" stroke="#263238" stroke-linecap="round" stroke-linejoin="round"/>
<path d="M83.4877 64.9925H79.4081V60.2249L82.1526 63.43L83.4877 64.9925Z" fill="#407BFF" stroke="#263238" stroke-linecap="round" stroke-linejoin="round"/>
<path d="M76.0347 70.8424C76.902 70.8424 77.6052 70.3033 77.6052 69.6383C77.6052 68.9733 76.902 68.4342 76.0347 68.4342C75.1674 68.4342 74.4642 68.9733 74.4642 69.6383C74.4642 70.3033 75.1674 70.8424 76.0347 70.8424Z" fill="#263238"/>
<path d="M75.844 63.2386L74.7652 69.6383H74.4672L75.2569 64.9612L75.4625 63.7467C75.6109 63.6011 75.7404 63.4311 75.847 63.2421L75.844 63.2386Z" fill="#263238"/>
<path d="M75.844 63.2421L75.5758 64.7907C75.4732 64.859 75.3655 64.916 75.2539 64.9612C74.919 65.0952 74.5637 65.1461 74.2109 65.1108C73.9729 65.0897 73.7345 65.1478 73.5236 65.2784C73.3126 65.409 73.1376 65.6067 73.0189 65.8486C73.0189 65.779 73.3438 64.4113 74.4315 64.2721C74.8125 64.2216 75.1717 64.0385 75.4625 63.7467C75.6099 63.6009 75.7384 63.4309 75.844 63.2421Z" fill="#263238"/>
<path d="M73.6269 76.7758L73.4272 79.0099H72.6524L72.2411 74.82H72.7895L73.0875 78.1295L73.3557 74.82H73.904L74.1811 78.1538L74.4791 74.82H74.9708L74.5775 78.996H73.8265L73.6269 76.7758Z" fill="#263238"/>
<path d="M77.0092 78.996H76.44L76.3416 78.2374H75.6473L75.5519 78.996H75.0334L75.6086 74.82H76.434L77.0092 78.996ZM75.7188 77.6666H76.2642L75.9989 75.5438L75.7188 77.6666Z" fill="#263238"/>
<path d="M77.9896 78.2374L78.4157 74.813H78.9342L78.3889 78.996H77.5455L76.9942 74.82H77.5634L77.9896 78.2374Z" fill="#263238"/>
<path d="M61.5221 90.4801V107.449H45.7102V85.7125H57.4395L60.1841 88.9175L61.5221 90.4801Z" fill="#407BFF" stroke="#263238" stroke-linecap="round" stroke-linejoin="round"/>
<path opacity="0.5" d="M60.1841 88.9175V98.2752H47.0423V87.1705H58.6881L60.1841 88.9175Z" fill="white"/>
<path d="M60.1841 88.9175V98.2752H47.0423V87.1705H58.6881L60.1841 88.9175Z" stroke="#263238" stroke-linecap="round" stroke-linejoin="round"/>
<path d="M61.5221 90.4801H57.4395V85.7125L60.1841 88.9175L61.5221 90.4801Z" fill="#407BFF" stroke="#263238" stroke-linecap="round" stroke-linejoin="round"/>
<path d="M51.8431 90.4905L49.4442 93.2954L51.8431 96.0968" stroke="#263238" stroke-linecap="round" stroke-linejoin="round"/>
<path d="M55.3833 96.0968L57.7852 93.2954L55.3833 90.4905" stroke="#263238" stroke-linecap="round" stroke-linejoin="round"/>
<path d="M54.1883 90.4835L53.041 96.1037" stroke="#263238" stroke-linecap="round" stroke-linejoin="round"/>
<path d="M50.1176 104.497H49.5514V100.301H50.1176V102.1H50.7583V100.301H51.3335V104.497H50.7583V102.702H50.1176V104.497Z" fill="#263238"/>
<path d="M51.5808 100.301H53.3241V100.92H52.7281V104.515H52.1649V100.92H51.5689L51.5808 100.301Z" fill="#263238"/>
<path d="M54.7635 103.283L55.1449 100.301H55.9286V104.497H55.3952V101.487L55.0168 104.497H54.4833L54.0721 101.533V104.497H53.5774V100.301H54.3641L54.7635 103.283Z" fill="#263238"/>
<path d="M56.3488 100.301H56.918V103.899H57.8478V104.497H56.3578L56.3488 100.301Z" fill="#263238"/>
<path d="M61.5221 64.9925V81.961H45.7102V60.2249H57.4395L60.1841 63.43L61.5221 64.9925Z" fill="#407BFF" stroke="#263238" stroke-linecap="round" stroke-linejoin="round"/>
<path opacity="0.5" d="M60.1841 63.43V72.7877H47.0423V61.683H58.6881L60.1841 63.43Z" fill="white"/>
<path d="M60.1841 63.43V72.7877H47.0423V61.683H58.6881L60.1841 63.43Z" stroke="#263238" stroke-linecap="round" stroke-linejoin="round"/>
<path d="M61.5221 64.9925H57.4395V60.2249L60.1841 63.43L61.5221 64.9925Z" fill="#407BFF" stroke="#263238" stroke-linecap="round" stroke-linejoin="round"/>
<path d="M52.15 67.5503C52.15 67.5503 51.7239 66.6838 50.6153 67.3868C49.5932 68.0341 49.7213 69.5861 50.7613 69.5861C51.9772 69.5861 52.4897 68.1698 53.2049 66.6838C53.9559 65.1317 54.5787 63.5518 54.6621 63.3465C54.6621 63.3465 53.8069 69.5235 53.6996 70.3343C53.5923 71.1452 54.4744 70.4875 54.5549 70.1151" stroke="#263238" stroke-linecap="round" stroke-linejoin="round"/>
<path d="M56.7839 67.3102C56.4035 67.2049 56.0031 67.2721 55.6635 67.4982C55.3239 67.7242 55.0704 68.0923 54.9542 68.5282C54.7635 69.1511 55.1032 69.5722 55.4369 69.5722C56.2922 69.5722 56.6289 68.9841 57.0134 67.2963C57.0134 67.2963 56.474 69.5722 56.7422 69.5722C56.86 69.5686 56.9748 69.5275 57.074 69.4533C57.1733 69.379 57.2533 69.2746 57.3054 69.1511" stroke="#263238" stroke-linecap="round" stroke-linejoin="round"/>
<path d="M53.0321 67.3102H55.2343" stroke="#263238" stroke-linecap="round" stroke-linejoin="round"/>
<path d="M50.958 75.8223C50.958 75.1506 51.256 74.7783 51.8162 74.7783C52.3765 74.7783 52.6745 75.1611 52.6745 75.8223V78.0042C52.6745 78.6759 52.3765 79.0482 51.8162 79.0482C51.256 79.0482 50.958 78.6654 50.958 78.0042V75.8223ZM51.5242 78.046C51.5242 78.3453 51.6374 78.4601 51.8222 78.4601C52.007 78.4601 52.1202 78.3453 52.1202 78.046V75.7805C52.1202 75.4812 52.007 75.3664 51.8222 75.3664C51.6374 75.3664 51.5242 75.4812 51.5242 75.7805V78.046Z" fill="#263238"/>
<path d="M52.8771 74.82H54.6204V75.422H54.0244V78.996H53.4612V75.4151H52.8652L52.8771 74.82Z" fill="#263238"/>
<path d="M55.428 76.6783H56.1581V77.2804H55.428V79.0204H54.8648V74.82H56.3548V75.422H55.428V76.6783Z" fill="#263238"/>
<path opacity="0.1" d="M38.8175 26.3228L64.219 72.2066V112.804H38.9784L38.8175 26.3228Z" fill="black" fill-opacity="0.7"/>
</g>
<path d="M94.168 59.2679V81.6478C94.168 82.0336 94.0466 82.406 93.8268 82.6941C93.607 82.9822 93.3042 83.1659 92.976 83.2103L91.7154 83.3704V111.287C91.7162 111.698 91.5921 112.097 91.3652 112.412C91.1382 112.726 90.8231 112.937 90.4758 113.006C90.3904 113.026 90.3035 113.035 90.2165 113.034L38.8354 112.985V27.84L90.2165 27.8887C90.3036 27.8888 90.3905 27.8993 90.4758 27.9201C90.8226 27.9891 91.1373 28.1992 91.3642 28.5132C91.5911 28.8272 91.7155 29.2249 91.7154 29.6357V57.5523L92.976 57.7158C93.3029 57.7593 93.6049 57.9413 93.8246 58.2273C94.0443 58.5134 94.1665 58.8837 94.168 59.2679Z" stroke="#263238" stroke-miterlimit="10"/>
<path d="M38.8354 27.84V113.1L29.2755 116.476L29.1623 116.51C28.9844 116.57 28.7967 116.579 28.6154 116.535C28.434 116.492 28.2644 116.397 28.1211 116.261C27.9778 116.124 27.8651 115.948 27.7926 115.749C27.7202 115.55 27.6901 115.334 27.7051 115.118V57.1555L27.1776 56.7727C27.0226 56.6648 26.9064 55.9062 26.9064 55.0327V30.4117C26.9064 29.5278 27.0226 28.8214 27.1776 28.7761L27.714 28.616V25.832C27.6983 25.6163 27.7279 25.3994 27.8001 25.2C27.8724 25.0007 27.9851 24.8248 28.1286 24.6878C28.2721 24.5507 28.442 24.4565 28.6237 24.4134C28.8053 24.3702 28.9933 24.3794 29.1712 24.44L29.2845 24.4748L38.8354 27.84Z" fill="#BFBFBF"/>
<mask id="mask4_61_2" style="mask-type:luminance" maskUnits="userSpaceOnUse" x="26" y="24" width="13" height="93">
<path d="M38.8354 27.84V113.1L29.2755 116.476L29.1623 116.51C28.9844 116.57 28.7967 116.579 28.6154 116.535C28.434 116.492 28.2644 116.397 28.1211 116.261C27.9778 116.124 27.8651 115.948 27.7926 115.749C27.7202 115.55 27.6901 115.334 27.7051 115.118V57.1555L27.1776 56.7727C27.0226 56.6648 26.9064 55.9062 26.9064 55.0327V30.4117C26.9064 29.5278 27.0226 28.8214 27.1776 28.7761L27.714 28.616V25.832C27.6983 25.6163 27.7279 25.3994 27.8001 25.2C27.8724 25.0007 27.9851 24.8248 28.1286 24.6878C28.2721 24.5507 28.442 24.4565 28.6237 24.4134C28.8053 24.3702 28.9933 24.3794 29.1712 24.44L29.2845 24.4748L38.8354 27.84Z" fill="white"/>
</mask>
<g mask="url(#mask4_61_2)">
<path d="M29.1623 24.4365V116.496C28.9844 116.556 28.7967 116.565 28.6154 116.521C28.434 116.478 28.2644 116.384 28.1211 116.247C27.9778 116.11 27.8651 115.934 27.7926 115.735C27.7202 115.536 27.6901 115.32 27.7051 115.104V57.1555L27.1776 56.7727C27.0226 56.6648 26.9064 55.9061 26.9064 55.0327V30.4117C26.9064 29.5277 27.0226 28.8213 27.1776 28.7761L27.714 28.616V25.832C27.6983 25.6171 27.7275 25.4011 27.7991 25.2023C27.8706 25.0036 27.9824 24.828 28.1248 24.6908C28.2673 24.5536 28.436 24.4588 28.6167 24.4145C28.7974 24.3702 28.9846 24.3777 29.1623 24.4365Z" fill="#263238"/>
</g>
<path d="M38.8354 27.84V113.1L29.2755 116.476L29.1623 116.51C28.9844 116.57 28.7967 116.579 28.6154 116.535C28.434 116.492 28.2644 116.397 28.1211 116.261C27.9778 116.124 27.8651 115.948 27.7926 115.749C27.7202 115.55 27.6901 115.334 27.7051 115.118V57.1555L27.1776 56.7727C27.0226 56.6648 26.9064 55.9062 26.9064 55.0327V30.4117C26.9064 29.5278 27.0226 28.8214 27.1776 28.7761L27.714 28.616V25.832C27.6983 25.6163 27.7279 25.3994 27.8001 25.2C27.8724 25.0007 27.9851 24.8248 28.1286 24.6878C28.2721 24.5507 28.442 24.4565 28.6237 24.4134C28.8053 24.3702 28.9933 24.3794 29.1712 24.44L29.2845 24.4748L38.8354 27.84Z" stroke="#263238" stroke-miterlimit="10"/>
<path opacity="0.2" d="M48.6694 114.28H38.9754V114.412L35.0478 115.842L34.3773 99.8934C34.3773 99.8934 36.2666 96.4134 38.8175 94.7987L38.9754 94.9414C40.0423 95.9367 46.2943 102.183 48.6694 114.28Z" fill="black" fill-opacity="0.7"/>
<path d="M35.6587 125.2C35.6587 125.2 35.018 124.059 34.8541 120.871C34.6902 117.683 34.8064 115.574 34.3773 114.328C34.3773 114.328 33.8439 113.204 33.2032 111.959C32.5625 110.713 32.6697 106.579 32.774 102.615C32.8783 98.6511 33.5131 97.7428 34.86 97.1721C38.138 95.7801 38.9546 100.523 40.4624 105.872C41.9703 111.221 41.863 115.014 42.3965 116.361C42.9299 117.708 44.0116 119.451 44.9682 123.067" fill="white"/>
<mask id="mask5_61_2" style="mask-type:luminance" maskUnits="userSpaceOnUse" x="32" y="96" width="13" height="30">
<path d="M35.6587 125.2C35.6587 125.2 35.018 124.059 34.8541 120.871C34.6902 117.683 34.8064 115.574 34.3773 114.328C34.3773 114.328 33.8439 113.204 33.2032 111.959C32.5625 110.713 32.6697 106.579 32.774 102.615C32.8783 98.6511 33.5131 97.7428 34.86 97.1721C38.138 95.7801 38.9546 100.523 40.4624 105.872C41.9703 111.221 41.863 115.014 42.3965 116.361C42.9299 117.708 44.0116 119.451 44.9682 123.067" fill="white"/>
</mask>
<g mask="url(#mask5_61_2)">
<path opacity="0.4" d="M43.952 119.91C42.2922 117.742 40.6561 116.288 40.4505 115.62C40.1346 114.576 41.2432 109.168 39.5982 107.379C37.9533 105.59 35.8583 107.556 34.7796 107.114C33.7008 106.672 33.826 104.438 33.826 100.154C33.826 98.0664 35.018 97.2486 36.2308 96.9563C38.4092 97.3043 39.184 101.365 40.4565 105.865C41.9644 111.21 41.8571 115.007 42.3905 116.354C42.7392 117.231 43.3232 118.282 43.952 119.91Z" fill="#407BFF"/>
</g>
<path d="M35.6587 125.2C35.6587 125.2 35.018 124.059 34.8541 120.871C34.6902 117.683 34.8064 115.574 34.3773 114.328C34.3773 114.328 33.8439 113.204 33.2032 111.959C32.5625 110.713 32.6697 106.579 32.774 102.615C32.8783 98.6511 33.5131 97.7428 34.86 97.1721C38.138 95.7801 38.9546 100.523 40.4624 105.872C41.9703 111.221 41.863 115.014 42.3965 116.361C42.9299 117.708 44.0116 119.451 44.9682 123.067" stroke="#263238" stroke-linecap="round" stroke-linejoin="round"/>
<path opacity="0.2" d="M76.7678 86.2448L73.3289 103.607L83.1211 105.99C83.1211 105.99 82.7606 111.033 83.1897 111.148C83.6188 111.263 86.4468 111.913 86.4468 111.913C86.4468 111.913 85.824 122.085 85.824 125.687C85.824 129.289 89.3017 132.195 91.6946 137.763C94.0875 143.331 99.1446 144.956 104.807 156.52L109.89 131.196L97.744 98.4144L84.9956 87.3897L76.7678 86.2448Z" fill="black" fill-opacity="0.7"/>
<path d="M87.1143 109.119C87.1143 109.119 87.7997 112.498 87.6895 113.413C87.5792 114.328 88.3987 114.328 88.4017 114.328C88.6699 117.749 88.7653 121.073 88.5447 122.437C88.1156 125.057 90.2523 127.827 92.1207 132.682C93.9892 137.537 95.2706 138.427 97.3 140.724C99.3294 143.021 99.0433 145.248 100.31 147.935C101.04 149.497 102.28 156.541 103.194 162.203H124.796C121.632 155.097 116.78 144.208 116.211 142.934C115.356 141.027 115.785 140.042 114.396 136.479C114.396 136.479 112.835 110.33 111.532 108.524C110.23 106.718 105.993 104.473 104.798 103.098C103.603 101.724 98.5754 93.9913 96.8172 93.4936C95.059 92.996 90.9466 96.7439 90.9466 96.7439C90.9466 96.7439 89.4566 94.207 87.3438 95.3519C85.9343 96.1175 85.9939 98.8319 86.4498 101.706C86.4289 101.745 85.7048 103.098 85.3353 103.843C84.9658 104.588 84.2148 108.833 84.2148 109.272C84.2178 109.648 85.8925 110.834 87.1143 109.119Z" fill="white"/>
<path opacity="0.4" d="M98.1582 116.987C98.1582 116.987 99.6482 119.441 98.7989 119.493C97.9496 119.545 95.5209 118.202 94.1799 114.255C93.867 113.337 93.5005 112.376 93.122 111.437C92.9291 110.958 92.6152 110.56 92.2227 110.297C91.8301 110.033 91.3778 109.916 90.9267 109.962C90.4756 110.008 90.0474 110.214 89.6998 110.553C89.3522 110.892 89.102 111.347 88.9828 111.858L88.3868 114.328C88.3868 114.328 87.5673 114.328 87.6746 113.413C87.7729 112.602 87.2455 109.857 87.1233 109.237L87.3468 108.715L84.4085 107.849C84.5188 107.215 84.6588 106.457 84.8048 105.761C84.8257 105.663 84.8436 105.569 84.8674 105.479V105.43C84.8853 105.35 84.9002 105.277 84.9211 105.204C85.0123 104.732 85.1441 104.273 85.3144 103.833C85.681 103.095 86.4081 101.745 86.4289 101.693C85.97 98.8215 85.9104 96.1036 87.3229 95.338C89.4477 94.1827 90.9258 96.73 90.9258 96.73L91.0897 96.5804C91.119 96.5611 91.1469 96.539 91.1731 96.5143C91.5188 96.2115 92.2012 95.6408 92.9969 95.0666C93.1131 94.9831 93.2323 94.8996 93.3545 94.8195C93.8919 94.442 94.4527 94.1116 95.0322 93.8312C95.2289 93.7442 95.4226 93.6642 95.6103 93.6015C95.6699 93.5841 95.7325 93.5598 95.7951 93.5458C96.2533 95.8093 96.3932 98.1447 96.2093 100.461L98.1374 103.895C98.3925 105.14 98.8128 106.331 99.383 107.424C99.9616 108.537 100.435 109.72 100.796 110.953C100.796 110.953 101.15 110.605 101.648 111.203C101.648 111.203 100.185 113.316 99.7406 114.76C99.4297 115.68 98.8753 116.46 98.1582 116.987Z" fill="#407BFF"/>
<path opacity="0.4" d="M112.477 126.891C112.212 118.459 111.071 113.89 111.071 113.89C111.071 113.89 111.369 120.711 110.573 122.59C110.573 122.59 109.929 116.496 110.275 112.536C110.621 108.576 102.929 103.14 102.613 100.165C103.585 101.512 104.401 102.653 104.789 103.109C105.981 104.483 110.221 106.728 111.521 108.534C112.82 110.34 114.34 135.678 114.387 136.472C113.58 134.676 112.623 131.603 112.477 126.891Z" fill="#407BFF"/>
<path opacity="0.4" d="M101.8 154.143C101.245 151.202 100.706 148.773 100.31 147.935C99.1476 145.464 99.2966 143.376 97.744 141.288C97.9783 141.515 98.2296 141.716 98.495 141.89C99.83 142.68 101.32 145.993 101.669 148.318C101.85 149.508 101.847 151.992 101.8 154.143Z" fill="#407BFF"/>
<path d="M86.4528 101.706C86.4528 101.706 85.7108 103.098 85.3383 103.847C84.9658 104.595 84.2178 108.837 84.2178 109.275C84.2178 109.714 86.5183 111.269 87.6895 107.963" stroke="#263238" stroke-linecap="round" stroke-linejoin="round"/>
<path d="M102.333 157.456C101.439 152.532 100.545 147.646 98.6261 142.955C97.5473 140.115 95.1156 138.539 93.4975 136.016C91.6052 132.536 90.5175 128.763 88.9053 125.294C88.3659 120.565 88.6341 115.832 88.0948 110.786C87.5554 107.306 86.7448 103.85 86.2054 100.381C86.2054 98.4875 85.6661 96.5943 87.2842 95.3346C88.6341 94.7047 89.9871 95.6478 90.9466 96.7266M90.9466 96.7266C90.8304 96.5352 92.3681 95.4529 90.9466 96.7266ZM90.9466 96.7266C92.4158 95.3346 94.0369 93.431 95.9262 93.7477C100.247 94.0609 101.868 100.053 104.839 103.206C105.65 104.153 106.729 104.47 107.539 105.416C109.16 106.676 111.321 107.306 111.86 109.516C113.75 118.661 113.481 127.177 114.56 136.312C114.831 137.888 115.1 139.792 115.642 141.358C116.992 144.838 118.476 148.217 119.993 151.571" stroke="#263238" stroke-linecap="round" stroke-linejoin="round"/>
<path d="M90.9466 96.744C92.228 98.303 93.8313 102.98 94.6329 106.29C95.4345 109.599 95.2289 113.712 95.2289 113.712C95.2289 113.712 96.4209 115.832 97.4728 117.955C98.5248 120.077 99.7704 119.639 99.7704 119.639" stroke="#263238" stroke-linecap="round" stroke-linejoin="round"/>
<path d="M96.2272 115.567C96.6231 115.66 97.0333 115.622 97.412 115.459C97.7908 115.295 98.1233 115.012 98.3728 114.642C99.3353 113.33 98.6916 111.833 102.005 111.21" stroke="#263238" stroke-linecap="round" stroke-linejoin="round"/>
<path d="M99.4009 112.522C99.2455 111.117 98.8601 109.759 98.2655 108.524C97.303 106.592 97.4639 105.159 97.4639 105.159C97.4639 105.159 95.062 102.768 94.8474 101.706" stroke="#263238" stroke-linecap="round" stroke-linejoin="round"/>
<path d="M95.36 97.172C95.36 97.172 95.2319 98.8946 95.1186 99.8551C94.907 101.706 94.5703 102.194 93.5899 102.615" stroke="#263238" stroke-linecap="round" stroke-linejoin="round"/>
<path d="M94.6329 106.283C95.2187 106.779 95.8949 107.11 96.6086 107.25C96.6086 107.25 96.397 109.463 96.8232 110.034C97.2493 110.605 98.0509 111.033 98.1582 111.969" stroke="#263238" stroke-linecap="round" stroke-linejoin="round"/>
<path d="M95.1454 109.721C95.5198 109.989 95.9624 110.096 96.397 110.024" stroke="#263238" stroke-linecap="round" stroke-linejoin="round"/>
<path d="M97.5175 113.89C97.5175 113.89 96.5878 115.031 95.7712 114.711" stroke="#263238" stroke-linecap="round" stroke-linejoin="round"/>
<path d="M87.1143 109.119C87.1143 109.119 87.7997 112.498 87.6895 113.413C87.5792 114.328 88.4017 114.328 88.4017 114.328" stroke="#263238" stroke-linecap="round" stroke-linejoin="round"/>
<path d="M97.4639 105.159C97.4639 105.159 98.0599 103.788 98.5665 103.474" stroke="#263238" stroke-linecap="round" stroke-linejoin="round"/>
<path d="M96.6444 116.354C97.588 116.542 98.455 117.078 99.1178 117.885" stroke="#263238" stroke-linecap="round" stroke-linejoin="round"/>
<path d="M104.801 103.098C106.919 106.095 108.842 107.779 109.804 109.119C110.767 110.459 109.774 113.413 110.287 118.821" stroke="#263238" stroke-linecap="round" stroke-linejoin="round"/>
<path d="M106.851 109.721C106.851 109.721 106.487 112.084 107.503 113.897" stroke="#263238" stroke-linecap="round" stroke-linejoin="round"/>
<path d="M97.303 140.724C100.188 143.397 100.283 144.145 100.936 145.767" stroke="#263238" stroke-linecap="round" stroke-linejoin="round"/>
<path d="M114.399 136.479C112.796 133.541 112.474 128.676 112.474 128.676" stroke="#263238" stroke-linecap="round" stroke-linejoin="round"/>
<path d="M94.2783 89.7352L91.1731 106.31L75.7278 102.364L79.7031 81.1327L91.1642 84.0594L93.2591 87.8734L94.2783 89.7352Z" fill="#407BFF" stroke="#263238" stroke-linecap="round" stroke-linejoin="round"/>
<path opacity="0.5" d="M93.2591 87.8734L91.5456 97.0154L78.7078 93.7372L80.7401 82.8901L92.1178 85.7959L93.2591 87.8734Z" fill="white"/>
<path d="M93.2591 87.8734L91.5456 97.0154L78.7078 93.7372L80.7401 82.8901L92.1178 85.7959L93.2591 87.8734Z" stroke="#263238" stroke-linecap="round" stroke-linejoin="round"/>
<path d="M83.6039 85.4757L91.1075 87.3897" stroke="#263238" stroke-linecap="round" stroke-linejoin="round"/>
<path d="M82.3672 86.1787L90.9258 88.3642" stroke="#263238" stroke-linecap="round" stroke-linejoin="round"/>
<path d="M82.1854 87.1531L90.744 89.342" stroke="#263238" stroke-linecap="round" stroke-linejoin="round"/>
<path d="M82.0007 88.131L90.5592 90.3164" stroke="#263238" stroke-linecap="round" stroke-linejoin="round"/>
<path d="M81.8189 89.1053L90.3774 91.2908" stroke="#263238" stroke-linecap="round" stroke-linejoin="round"/>
<path d="M81.6371 90.0798L90.1957 92.2652" stroke="#263238" stroke-linecap="round" stroke-linejoin="round"/>
<path d="M81.4553 91.0541L90.0109 93.2396" stroke="#263238" stroke-linecap="round" stroke-linejoin="round"/>
<path d="M81.2706 92.0286L88.7742 93.946" stroke="#263238" stroke-linecap="round" stroke-linejoin="round"/>
<path d="M82.9662 97.3912L81.2616 96.9562L81.1514 97.5444L81.7295 97.6905L81.0709 101.205L81.6222 101.345L82.2808 97.8297L82.8589 97.9794L82.9662 97.3912Z" fill="#263238"/>
<path d="M84.5873 97.8054L83.8781 99.2078L83.744 97.5931L83.1718 97.4435L83.3774 99.5837L82.3642 101.536L82.8827 101.668L83.6426 100.161L83.7887 101.898L84.3698 102.048L84.1492 99.782L85.0969 97.9376L84.5873 97.8054Z" fill="#263238"/>
<path d="M85.3025 97.9898L85.1922 98.5745L85.7704 98.7241L85.1118 102.235L85.6631 102.378L86.3217 98.8633L86.8998 99.0095L87.01 98.4248L85.3025 97.9898Z" fill="#263238"/>
<path d="M94.2783 89.7353L90.294 88.7156L91.1642 84.0594L93.2591 87.8735L94.2783 89.7353Z" fill="#407BFF" stroke="#263238" stroke-linecap="round" stroke-linejoin="round"/>
<path d="M92.1237 132.682C90.2523 127.827 88.1156 125.057 88.5477 122.437C88.9798 119.816 88.2259 109.961 87.3557 106.081C86.4856 102.201 85.2071 96.5108 87.3557 95.3415C89.5043 94.1722 90.9585 96.7335 90.9585 96.7335C92.2399 98.2926 93.8432 102.97 94.6448 106.279C95.4464 109.589 95.2408 113.702 95.2408 113.702C95.2408 113.702 96.4328 115.821 97.4847 117.944C98.5367 120.067 99.7823 119.628 99.7823 119.628" fill="white"/>
<mask id="mask6_61_2" style="mask-type:luminance" maskUnits="userSpaceOnUse" x="86" y="95" width="14" height="38">
<path d="M92.1237 132.682C90.2523 127.827 88.1156 125.057 88.5477 122.437C88.9798 119.816 88.2259 109.961 87.3557 106.081C86.4856 102.201 85.2071 96.5108 87.3557 95.3415C89.5043 94.1722 90.9585 96.7335 90.9585 96.7335C92.2399 98.2926 93.8432 102.97 94.6448 106.279C95.4464 109.589 95.2408 113.702 95.2408 113.702C95.2408 113.702 96.4328 115.821 97.4847 117.944C98.5367 120.067 99.7823 119.628 99.7823 119.628" fill="white"/>
</mask>
<g mask="url(#mask6_61_2)">
<path opacity="0.4" d="M91.9479 113.413C91.9479 113.413 88.4017 113.869 88.6699 119.246C88.5924 115.188 88.0113 108.976 87.3557 106.095C86.7418 103.391 85.9372 99.7924 86.2412 97.4713C87.2067 96.6883 88.3451 96.1976 89.4536 96.737C92.225 98.0803 91.7274 101.466 91.7274 101.466C91.7274 101.466 88.5 102.107 88.4136 104.316C88.3272 106.526 90.6307 106.523 91.9479 113.413Z" fill="#407BFF"/>
</g>
<path d="M92.1237 132.682C90.2523 127.827 88.1156 125.057 88.5477 122.437C88.9798 119.816 88.2259 109.961 87.3557 106.081C86.4856 102.201 85.2071 96.5108 87.3557 95.3415C89.5043 94.1722 90.9585 96.7335 90.9585 96.7335C92.2399 98.2926 93.8432 102.97 94.6448 106.279C95.4464 109.589 95.2408 113.702 95.2408 113.702C95.2408 113.702 96.4328 115.821 97.4847 117.944C98.5367 120.067 99.7823 119.628 99.7823 119.628" stroke="#263238" stroke-linecap="round" stroke-linejoin="round"/>
</svg>
