<svg width="157" height="120" viewBox="0 0 157 120" fill="none" xmlns="http://www.w3.org/2000/svg">
<path d="M62.2947 114.395C62.1445 114.393 62.0237 114.271 62.0237 114.122C62.0237 113.972 62.1458 113.852 62.296 113.852C62.346 113.852 62.3961 113.852 62.4461 113.852C62.9349 113.852 63.4297 113.843 63.9153 113.825C64.0654 113.815 64.1906 113.937 64.1966 114.087C64.1996 114.161 64.1731 114.229 64.1245 114.283C64.0745 114.336 64.0066 114.365 63.9345 114.368C63.3839 114.388 62.826 114.398 62.296 114.395H62.2947ZM59.0411 114.249C59.0339 114.249 59.0251 114.249 59.0176 114.248C58.4715 114.201 57.9224 114.14 57.3865 114.071C57.2512 114.053 57.1495 113.937 57.1495 113.8C57.1495 113.788 57.151 113.777 57.1525 113.766C57.1716 113.619 57.31 113.512 57.4571 113.532C57.9842 113.601 58.5245 113.66 59.0646 113.708C59.137 113.713 59.203 113.747 59.2489 113.803C59.2959 113.859 59.3179 113.928 59.3119 114.002C59.2989 114.14 59.1811 114.249 59.0411 114.249ZM67.1761 114.136C67.0377 114.136 66.9213 114.031 66.9068 113.893C66.9054 113.884 66.9053 113.875 66.9053 113.865C66.9038 113.725 67.0084 113.609 67.1481 113.594C67.6812 113.537 68.2228 113.47 68.7571 113.395C68.903 113.375 69.0427 113.479 69.0635 113.626C69.084 113.774 68.9808 113.912 68.8325 113.933C68.2921 114.009 67.7445 114.077 67.2072 114.134H67.2057C67.1966 114.136 67.1864 114.136 67.1761 114.136ZM54.2155 113.497C54.195 113.497 54.1742 113.494 54.1552 113.49C53.6209 113.367 53.0862 113.23 52.5625 113.083C52.4461 113.051 52.365 112.943 52.365 112.823C52.365 112.798 52.368 112.773 52.3755 112.748C52.4153 112.608 52.5682 112.519 52.7111 112.561C53.225 112.705 53.7518 112.84 54.2759 112.96C54.4217 112.993 54.5129 113.141 54.4806 113.287C54.451 113.41 54.3421 113.497 54.2155 113.497ZM72.0062 113.381C71.8781 113.381 71.7662 113.289 71.7412 113.164C71.7369 113.145 71.7354 113.127 71.7354 113.108C71.7354 112.98 71.8266 112.868 71.9532 112.843C72.4787 112.736 73.0116 112.619 73.5387 112.497C73.6828 112.464 73.8303 112.556 73.864 112.7C73.8803 112.771 73.8685 112.843 73.8302 112.905C73.792 112.967 73.7328 113.01 73.6623 113.026C73.131 113.15 72.5921 113.267 72.0608 113.376C72.043 113.379 72.0254 113.381 72.0062 113.381ZM76.7612 112.232C76.6391 112.232 76.53 112.15 76.4992 112.031C76.4932 112.009 76.4902 111.985 76.4902 111.963C76.4889 111.838 76.5728 111.73 76.6919 111.698C77.1837 111.567 77.6975 111.428 78.2656 111.274C78.407 111.234 78.56 111.323 78.5985 111.464C78.638 111.608 78.5527 111.758 78.4085 111.798C77.8607 111.947 77.3308 112.091 76.8318 112.224C76.8083 112.229 76.7847 112.232 76.7612 112.232ZM49.5504 112.048C49.5166 112.048 49.4826 112.041 49.4503 112.028C48.9394 111.825 48.4317 111.607 47.9398 111.38C47.8427 111.335 47.7809 111.237 47.7824 111.13C47.7824 111.091 47.7912 111.055 47.8074 111.019C47.8677 110.887 48.0357 110.825 48.1681 110.887C48.6494 111.109 49.1485 111.324 49.652 111.524C49.7904 111.579 49.858 111.738 49.8037 111.876C49.7624 111.981 49.6622 112.048 49.5504 112.048ZM81.4792 110.928C81.3585 110.928 81.2512 110.847 81.2174 110.731C81.2114 110.706 81.2069 110.681 81.2069 110.656C81.2069 110.535 81.288 110.427 81.4044 110.395C81.8929 110.255 82.4052 110.108 82.9706 109.943C83.112 109.902 83.2664 109.989 83.3077 110.129C83.327 110.199 83.3195 110.271 83.2842 110.336C83.2489 110.399 83.1913 110.445 83.1223 110.466C82.6187 110.612 82.0844 110.766 81.5545 110.916C81.5545 110.916 81.5545 110.918 81.553 110.918C81.5294 110.924 81.5042 110.928 81.4792 110.928ZM45.1738 109.878C45.1252 109.878 45.0767 109.864 45.0339 109.839C44.5644 109.555 44.0991 109.256 43.6501 108.949C43.575 108.898 43.531 108.814 43.5322 108.723C43.5322 108.668 43.5485 108.617 43.5795 108.571C43.6604 108.452 43.8355 108.42 43.9562 108.5C44.3922 108.799 44.8499 109.092 45.3152 109.373C45.4431 109.452 45.4844 109.618 45.4078 109.746C45.3578 109.828 45.2709 109.878 45.1738 109.878ZM86.1769 109.559C86.0578 109.559 85.9501 109.478 85.9163 109.365C85.9091 109.34 85.9061 109.315 85.9061 109.289C85.9046 109.169 85.984 109.06 86.1003 109.026C86.5921 108.882 87.1205 108.724 87.6638 108.562C87.8035 108.521 87.9596 108.606 88.0009 108.746C88.0434 108.889 87.9611 109.041 87.8182 109.084C87.2941 109.239 86.773 109.394 86.255 109.547C86.2299 109.555 86.2034 109.559 86.1769 109.559ZM156.297 109.319C156.197 109.319 156.106 109.264 156.059 109.176C155.804 108.702 155.529 108.237 155.24 107.795C155.212 107.753 155.196 107.701 155.196 107.65C155.195 107.557 155.24 107.47 155.318 107.42C155.44 107.339 155.616 107.377 155.695 107.498C155.992 107.954 156.276 108.433 156.537 108.92C156.571 108.983 156.578 109.057 156.558 109.126C156.536 109.197 156.49 109.253 156.425 109.288C156.387 109.309 156.343 109.319 156.297 109.319ZM90.8686 108.163C90.7477 108.163 90.6418 108.084 90.608 107.969C90.5993 107.943 90.5963 107.916 90.5963 107.888C90.5977 107.769 90.6756 107.666 90.7905 107.632C91.0761 107.547 91.3647 107.461 91.6517 107.376L92.354 107.167C92.4939 107.124 92.6498 107.209 92.6911 107.349C92.7336 107.492 92.6513 107.644 92.5084 107.686C91.9858 107.842 91.4647 107.997 90.9452 108.152C90.9202 108.16 90.8936 108.163 90.8686 108.163ZM41.2212 107.006C41.1549 107.006 41.0915 106.983 41.043 106.94C40.6278 106.581 40.22 106.205 39.8314 105.824C39.8299 105.824 39.8299 105.823 39.8299 105.823C39.7783 105.771 39.7506 105.705 39.749 105.633C39.749 105.559 39.7755 105.491 39.8271 105.44C39.9285 105.337 40.1067 105.334 40.2113 105.435C40.591 105.808 40.9899 106.176 41.3994 106.529C41.4537 106.576 41.486 106.643 41.492 106.715C41.4964 106.788 41.4729 106.858 41.4256 106.912C41.3743 106.972 41.2993 107.006 41.2212 107.006ZM95.5603 106.772C95.4394 106.772 95.332 106.691 95.2997 106.576C95.2922 106.553 95.288 106.528 95.288 106.503C95.2865 106.382 95.3673 106.273 95.4822 106.239C95.9562 106.101 96.5084 105.939 97.0487 105.781C97.1898 105.74 97.3445 105.826 97.3858 105.965C97.4063 106.035 97.3973 106.108 97.362 106.172C97.3282 106.237 97.2709 106.282 97.2001 106.303C96.679 106.454 96.1579 106.607 95.6384 106.76H95.6369C95.6118 106.768 95.5853 106.772 95.5603 106.772ZM100.256 105.409C100.136 105.409 100.028 105.328 99.9957 105.212C99.9884 105.188 99.9854 105.163 99.9854 105.138C99.9854 105.018 100.067 104.91 100.183 104.876C100.741 104.717 101.253 104.571 101.751 104.433C101.893 104.392 102.046 104.48 102.086 104.62C102.127 104.764 102.042 104.914 101.898 104.956C101.385 105.1 100.858 105.249 100.331 105.399C100.306 105.406 100.281 105.409 100.256 105.409ZM153.44 105.374C153.366 105.374 153.297 105.344 153.245 105.291C152.876 104.908 152.483 104.539 152.078 104.193C152.018 104.142 151.982 104.068 151.982 103.988C151.982 103.924 152.004 103.86 152.047 103.81C152.141 103.701 152.321 103.687 152.43 103.78C152.849 104.137 153.254 104.518 153.636 104.913C153.686 104.966 153.714 105.035 153.712 105.107C153.711 105.179 153.681 105.247 153.63 105.297C153.578 105.347 153.51 105.374 153.44 105.374ZM104.97 104.097C104.848 104.097 104.739 104.015 104.708 103.897C104.702 103.875 104.698 103.853 104.698 103.829C104.696 103.706 104.779 103.597 104.899 103.564C105.425 103.422 105.956 103.28 106.478 103.142C106.62 103.104 106.772 103.194 106.81 103.335C106.849 103.479 106.762 103.628 106.616 103.668C106.128 103.796 105.613 103.934 105.041 104.088C105.017 104.094 104.993 104.097 104.97 104.097ZM37.8412 103.473C37.7571 103.473 37.6793 103.435 37.6277 103.369C36.9857 102.546 36.6781 102.023 36.6649 102.001C36.6649 102 36.6649 102 36.6649 102C36.6296 101.938 36.6194 101.864 36.6368 101.795C36.6561 101.724 36.7001 101.665 36.7635 101.63C36.8886 101.557 37.0608 101.602 37.1344 101.727C37.1359 101.729 37.1389 101.733 37.1434 101.741C37.1654 101.777 37.2345 101.891 37.3569 102.073C37.4966 102.282 37.7308 102.618 38.0562 103.035C38.1002 103.092 38.1207 103.164 38.1105 103.235C38.1017 103.307 38.0664 103.372 38.0089 103.416C37.9603 103.454 37.903 103.473 37.8412 103.473ZM109.709 102.861C109.584 102.861 109.475 102.777 109.445 102.656C109.439 102.634 109.436 102.611 109.436 102.587C109.438 102.463 109.522 102.356 109.643 102.326C110.249 102.175 110.754 102.05 111.228 101.935C111.372 101.901 111.521 101.992 111.556 102.136C111.592 102.281 111.502 102.428 111.356 102.463C110.881 102.578 110.362 102.706 109.773 102.854C109.753 102.859 109.731 102.861 109.709 102.861ZM149.593 102.384C149.546 102.384 149.499 102.372 149.458 102.348C149 102.084 148.521 101.833 148.034 101.603C147.94 101.559 147.878 101.464 147.878 101.361C147.878 101.319 147.887 101.28 147.905 101.241C147.966 101.112 148.134 101.05 148.265 101.112C148.769 101.349 149.26 101.607 149.73 101.877C149.792 101.914 149.838 101.973 149.857 102.042C149.874 102.113 149.865 102.187 149.829 102.248C149.78 102.332 149.69 102.384 149.593 102.384ZM114.47 101.73C114.343 101.73 114.231 101.64 114.205 101.517C114.199 101.497 114.197 101.477 114.197 101.456C114.199 101.33 114.284 101.222 114.408 101.194C114.408 101.193 114.409 101.193 114.409 101.193C114.415 101.192 114.42 101.192 114.426 101.19C114.936 101.075 115.469 100.959 116.005 100.844C116.149 100.813 116.298 100.91 116.327 101.053C116.36 101.2 116.266 101.345 116.119 101.375C115.622 101.481 115.103 101.595 114.528 101.723C114.51 101.727 114.489 101.73 114.47 101.73ZM119.26 100.735C119.129 100.735 119.017 100.642 118.993 100.514C118.99 100.499 118.989 100.483 118.989 100.467C118.988 100.335 119.08 100.221 119.21 100.198C119.764 100.092 120.305 99.9931 120.817 99.9032C120.963 99.8768 121.106 99.9768 121.131 100.123C121.144 100.195 121.128 100.267 121.087 100.326C121.046 100.385 120.984 100.426 120.912 100.438C120.398 100.529 119.875 100.625 119.31 100.731C119.294 100.734 119.278 100.735 119.26 100.735ZM145.109 100.463C145.083 100.463 145.056 100.458 145.029 100.451C144.526 100.296 144.002 100.153 143.474 100.025C143.35 99.9958 143.265 99.8871 143.266 99.7591C143.266 99.7383 143.269 99.7193 143.273 99.6986C143.307 99.5543 143.456 99.463 143.602 99.4969C144.146 99.6295 144.681 99.7751 145.188 99.9313C145.331 99.9754 145.412 100.127 145.37 100.27C145.334 100.385 145.23 100.463 145.109 100.463ZM124.084 99.9224C123.95 99.9224 123.835 99.8222 123.816 99.6898C123.813 99.6751 123.813 99.6618 123.813 99.6487C123.813 99.5132 123.912 99.4012 124.046 99.3807C124.576 99.3041 125.12 99.229 125.665 99.1584C125.814 99.1408 125.951 99.2466 125.97 99.3939C125.989 99.5426 125.883 99.6779 125.734 99.6971C125.218 99.7632 124.676 99.8385 124.124 99.9195C124.111 99.9209 124.097 99.9224 124.084 99.9224ZM140.334 99.4411C140.321 99.4411 140.308 99.4396 140.297 99.438C139.781 99.3689 139.24 99.3085 138.687 99.2585C138.549 99.2453 138.442 99.1304 138.44 98.9921C138.44 98.9817 138.442 98.9729 138.442 98.9641C138.455 98.8139 138.588 98.7064 138.738 98.7168C139.285 98.7668 139.834 98.8286 140.369 98.8993C140.517 98.9199 140.622 99.0568 140.601 99.2055C140.584 99.3394 140.469 99.4411 140.334 99.4411ZM128.942 99.3452C128.802 99.3452 128.684 99.2364 128.671 99.0981C128.671 99.0907 128.671 99.0832 128.671 99.0774C128.67 98.936 128.777 98.8155 128.919 98.8038C129.48 98.7537 130.029 98.7111 130.551 98.6756C130.7 98.6669 130.829 98.7801 130.84 98.9288C130.849 99.0791 130.735 99.2085 130.587 99.2187C130.07 99.2526 129.524 99.2938 128.967 99.3439C128.96 99.3452 128.951 99.3452 128.942 99.3452ZM135.458 99.0891H135.453C134.929 99.079 134.389 99.079 133.83 99.0862H133.827C133.678 99.0862 133.557 98.9655 133.556 98.8183V98.8154C133.556 98.8139 133.556 98.8124 133.556 98.8109C133.557 98.6623 133.675 98.5445 133.824 98.543C134.361 98.5356 134.928 98.5356 135.462 98.546C135.534 98.546 135.602 98.5755 135.652 98.6283C135.702 98.68 135.73 98.7491 135.729 98.8213C135.726 98.9685 135.605 99.0891 135.458 99.0891Z" fill="#3D61FF"/>
<path d="M10.7756 10.5522C10.7061 10.5522 10.6365 10.5258 10.5835 10.4727L2.27016 2.15951C2.16407 2.05342 2.16408 1.8815 2.27017 1.77542C2.37625 1.66933 2.54816 1.66932 2.65431 1.77547L10.9676 10.0886C11.0737 10.1947 11.0738 10.3667 10.9677 10.4728C10.9146 10.5258 10.845 10.5522 10.7756 10.5522Z" fill="#FF3D3D"/>
<path d="M14.286 6.74059C14.166 6.74057 14.0562 6.66053 14.0237 6.53916L12.3795 0.40294C12.3407 0.258005 12.4267 0.109098 12.5716 0.0702688C12.7171 0.031452 12.8655 0.117551 12.9042 0.262349L14.5484 6.39857C14.5873 6.54351 14.5013 6.69241 14.3564 6.73124C14.3328 6.73756 14.3092 6.74054 14.286 6.74059Z" fill="#FF3D3D"/>
<path d="M6.96384 14.0629C6.9406 14.0629 6.91698 14.0598 6.89338 14.0535L0.26238 12.2767C0.117444 12.2379 0.0315332 12.089 0.0703045 11.9441C0.109026 11.7994 0.257484 11.7125 0.402969 11.7521L7.03397 13.5288C7.1789 13.5677 7.26488 13.7166 7.22605 13.8615C7.19361 13.9828 7.08385 14.0629 6.96384 14.0629Z" fill="#FF3D3D"/>
<path d="M100.356 26.9859C100.352 26.9859 100.347 26.9859 100.344 26.9859C99.7997 26.9608 99.2476 26.9153 98.7 26.8535C98.7 26.8521 98.7 26.8521 98.6985 26.8521C98.5601 26.8358 98.4588 26.7181 98.46 26.5797C98.46 26.5709 98.46 26.5606 98.4615 26.5518C98.4793 26.4045 98.6147 26.297 98.7633 26.3133C99.2919 26.3736 99.8321 26.4178 100.369 26.4428C100.518 26.4502 100.634 26.5782 100.627 26.7284C100.621 26.8727 100.502 26.9859 100.356 26.9859ZM103.612 26.9198C103.474 26.9198 103.355 26.8108 103.343 26.6724C103.342 26.6651 103.342 26.6577 103.342 26.6518C103.34 26.5105 103.448 26.3897 103.589 26.3765C104.119 26.3294 104.656 26.2632 105.188 26.1779C105.333 26.1557 105.475 26.2557 105.498 26.403C105.522 26.5518 105.42 26.6914 105.273 26.7151C104.728 26.8019 104.178 26.8698 103.637 26.9182C103.629 26.9198 103.621 26.9198 103.612 26.9198ZM95.526 26.2735C95.504 26.2735 95.4819 26.2706 95.4599 26.2647C94.9389 26.1366 94.4058 25.9865 93.8744 25.82C93.8744 25.82 93.8729 25.8199 93.8729 25.8186C93.7595 25.7818 93.6845 25.6787 93.6845 25.5596C93.6845 25.533 93.689 25.505 93.6977 25.48C93.742 25.3402 93.895 25.2577 94.0364 25.3004C94.0364 25.3019 94.0379 25.3019 94.0379 25.3019C94.0424 25.3032 94.0466 25.3048 94.0511 25.3063C94.5604 25.4653 95.0785 25.611 95.5908 25.7376C95.7367 25.7744 95.825 25.9215 95.7896 26.0672C95.7587 26.188 95.6512 26.2735 95.526 26.2735ZM108.403 25.979C108.284 25.979 108.179 25.9026 108.144 25.7877C108.136 25.7612 108.132 25.7331 108.132 25.7067C108.132 25.5875 108.209 25.4829 108.323 25.4477C108.834 25.2901 109.347 25.1135 109.846 24.9206C109.981 24.8676 110.144 24.9396 110.196 25.075C110.222 25.1428 110.221 25.2164 110.191 25.2843C110.162 25.3491 110.109 25.4005 110.041 25.4269C109.53 25.6243 109.006 25.8053 108.484 25.9673C108.482 25.9673 108.482 25.9673 108.481 25.9673C108.456 25.9746 108.429 25.979 108.403 25.979ZM90.9112 24.6748C90.8726 24.6748 90.8346 24.6659 90.8005 24.6512C90.303 24.4289 89.8039 24.1889 89.3166 23.9388C89.2255 23.8916 89.1695 23.7989 89.1695 23.6973C89.1695 23.6531 89.1798 23.6118 89.2005 23.5736C89.2651 23.4441 89.433 23.3895 89.5639 23.4544C89.5639 23.4558 89.5639 23.4559 89.5654 23.4559C89.5699 23.4572 89.5729 23.4602 89.5772 23.4617C90.0587 23.709 90.5445 23.9417 91.0215 24.1551C91.1584 24.217 91.2203 24.3773 91.1584 24.5143C91.1157 24.6113 91.017 24.6748 90.9112 24.6748ZM112.891 24.0579C112.793 24.0579 112.701 24.0048 112.654 23.9196C112.631 23.877 112.619 23.8311 112.619 23.7841C112.62 23.687 112.674 23.5958 112.757 23.5486C113.224 23.2881 113.686 23.0069 114.134 22.7124C114.254 22.6314 114.43 22.6684 114.511 22.7889C114.592 22.9141 114.558 23.0833 114.433 23.1659C113.976 23.4663 113.502 23.7547 113.024 24.0225C112.984 24.0461 112.937 24.0579 112.891 24.0579ZM86.6212 22.3341C86.5684 22.3341 86.5183 22.3194 86.474 22.2913C86.022 21.9984 85.5643 21.6879 85.1168 21.3668C85.0447 21.3154 85.0019 21.233 85.0019 21.1446C85.0033 21.0886 85.0196 21.0342 85.0534 20.9886C85.1373 20.8709 85.314 20.8413 85.4318 20.9252C85.8721 21.2403 86.3223 21.5465 86.7698 21.8351C86.895 21.9161 86.9305 22.0852 86.8494 22.2104C86.7994 22.2884 86.714 22.3341 86.6212 22.3341ZM116.866 21.224C116.788 21.224 116.714 21.1902 116.663 21.1342C116.617 21.0827 116.594 21.018 116.594 20.9502C116.594 20.8738 116.628 20.8002 116.683 20.7501C117.081 20.3952 117.471 20.0185 117.842 19.6329C117.942 19.5284 118.122 19.5239 118.226 19.624C118.334 19.7285 118.338 19.9005 118.234 20.0082C117.854 20.4041 117.455 20.7898 117.047 21.1549C116.997 21.1991 116.932 21.224 116.866 21.224ZM82.5714 19.5973C82.5214 19.5973 82.4743 19.5842 82.4315 19.5592C81.9723 19.2824 81.4997 19.0173 81.0257 18.7701H81.0242C80.9329 18.7229 80.8771 18.6288 80.8771 18.527C80.8785 18.4844 80.8889 18.4418 80.9078 18.4034C80.9757 18.2754 81.1448 18.221 81.2745 18.2888C81.7485 18.5345 82.2313 18.8054 82.7113 19.0925C82.7732 19.1293 82.8172 19.1881 82.835 19.2588C82.8525 19.3295 82.8407 19.403 82.8039 19.4648C82.7553 19.5474 82.6656 19.5973 82.5714 19.5973ZM57.794 19.537C57.7057 19.537 57.6218 19.4929 57.5703 19.4193C57.4849 19.2956 57.516 19.1263 57.6396 19.0409C57.6438 19.038 58.1489 18.6877 59.0807 18.2033C59.2103 18.1356 59.381 18.1899 59.4474 18.3197C59.4811 18.3829 59.4869 18.4565 59.4649 18.5257C59.4428 18.5964 59.3958 18.6523 59.331 18.6861C58.8672 18.9276 58.5138 19.1336 58.2991 19.2647C58.1649 19.3457 58.0458 19.4221 57.953 19.484C57.953 19.4856 57.9517 19.4856 57.9502 19.487C57.9502 19.487 57.9502 19.4885 57.9487 19.4885C57.9029 19.5194 57.8501 19.537 57.794 19.537ZM78.1728 17.4775C78.1403 17.4775 78.108 17.4716 78.0785 17.4614C77.5749 17.2758 77.0613 17.105 76.549 16.9549C76.4327 16.9212 76.3516 16.8121 76.3533 16.6914C76.3533 16.6663 76.3575 16.6414 76.3636 16.6179C76.4046 16.478 76.5608 16.3912 76.7022 16.4338C77.2248 16.587 77.7516 16.7621 78.2654 16.9504C78.4068 17.0021 78.4789 17.1596 78.4274 17.2994C78.3876 17.4069 78.2847 17.4775 78.1728 17.4775ZM62.1987 17.4229C62.0838 17.4229 61.9809 17.3494 61.9426 17.242C61.9324 17.2111 61.9279 17.1802 61.9279 17.1479C61.9279 17.0344 62.0014 16.9329 62.1088 16.8945C62.6256 16.7121 63.154 16.5442 63.6798 16.3969C63.8225 16.3573 63.9756 16.4441 64.0154 16.584C64.0344 16.6546 64.0257 16.7282 63.9904 16.7915C63.9548 16.8548 63.8976 16.9004 63.827 16.9194C63.3146 17.0638 62.7963 17.2273 62.29 17.4068C62.2605 17.417 62.2297 17.4229 62.1987 17.4229ZM73.4428 16.2689C73.4296 16.2689 73.4163 16.2689 73.403 16.266C72.8702 16.1893 72.3314 16.1307 71.8028 16.0922C71.6616 16.082 71.551 15.9642 71.551 15.8229C71.551 15.8154 71.551 15.8082 71.551 15.8023C71.5612 15.6536 71.6924 15.5401 71.8411 15.5505C72.3887 15.5903 72.9408 15.6507 73.4811 15.7286C73.5532 15.7389 73.6165 15.7772 73.6606 15.8362C73.7034 15.8935 73.7211 15.9657 73.7106 16.0379C73.6917 16.1703 73.5767 16.2689 73.4428 16.2689ZM66.9434 16.2602C66.808 16.2602 66.6931 16.1584 66.6739 16.026C66.6724 16.0142 66.6711 16.0025 66.6711 15.9907C66.6696 15.8553 66.7697 15.739 66.9036 15.7198C66.9036 15.7185 66.9051 15.7184 66.9051 15.7184C66.9109 15.7184 66.9154 15.7168 66.9199 15.7168C67.4557 15.6418 68.0033 15.5845 68.5449 15.5476C68.6951 15.5387 68.8247 15.6506 68.835 15.7994C68.841 15.8713 68.8175 15.9407 68.7687 15.9951C68.7216 16.051 68.6555 16.0835 68.5832 16.0878C68.0504 16.1262 67.5113 16.1821 66.9799 16.2572C66.9683 16.2586 66.9552 16.2602 66.9434 16.2602Z" fill="#AB3DFF"/>
<path fill-rule="evenodd" clip-rule="evenodd" d="M148.237 65.844C148.127 65.4338 147.86 65.0856 147.495 64.8746C147.129 64.6636 146.692 64.6072 146.284 64.7165C142.759 65.6611 134.134 67.9722 130.608 68.9168C130.198 69.0268 129.851 69.2932 129.639 69.6589C129.428 70.0246 129.369 70.4601 129.479 70.8703C130.126 73.2849 131.371 77.9313 132.018 80.3459C132.127 80.7538 132.396 81.1013 132.763 81.3147C133.128 81.5257 133.562 81.5828 133.973 81.4728C137.498 80.5282 146.123 78.217 149.649 77.2725C150.057 77.1631 150.406 76.8961 150.618 76.5304C150.828 76.1624 150.885 75.7275 150.776 75.3197C150.129 72.905 148.884 68.2586 148.237 65.844Z" fill="white"/>
<path d="M133.555 81.7998C133.232 81.7998 132.914 81.7154 132.627 81.5501C132.193 81.2973 131.884 80.895 131.755 80.4162L129.216 70.9406C129.087 70.4592 129.154 69.9558 129.404 69.5231C129.653 69.092 130.056 68.7837 130.538 68.6545L146.214 64.4541C146.689 64.3266 147.205 64.3943 147.63 64.6393C148.061 64.888 148.37 65.2908 148.499 65.7737L151.038 75.2494C151.167 75.7294 151.101 76.2323 150.853 76.6655C150.607 77.0911 150.194 77.4076 149.719 77.5348L134.043 81.7351C133.882 81.7784 133.718 81.7998 133.555 81.7998ZM146.697 64.934C146.582 64.934 146.467 64.9489 146.355 64.9789L130.679 69.1792C130.337 69.2709 130.051 69.4894 129.875 69.7948C129.697 70.102 129.65 70.4589 129.741 70.7999L132.28 80.2756C132.371 80.6149 132.591 80.9005 132.899 81.08C133.204 81.2555 133.56 81.3019 133.903 81.2104L149.578 77.01C149.915 76.9198 150.209 76.6955 150.383 76.3945C150.558 76.0878 150.605 75.7307 150.514 75.39L147.975 65.9143C147.883 65.5717 147.664 65.286 147.359 65.11C147.158 64.994 146.928 64.934 146.697 64.934Z" fill="#FF7A3D"/>
<path d="M139.816 73.8241C139.579 73.8241 139.339 73.7794 139.111 73.6863C136.356 72.5736 129.504 69.8025 129.504 69.8025L129.708 69.2988C129.708 69.2988 136.56 72.0698 139.315 73.1828C139.868 73.4085 140.509 73.2364 140.873 72.7661C142.699 70.4306 147.224 64.6354 147.224 64.6354L147.652 64.9698C147.652 64.9698 143.127 70.7653 141.302 73.0996C140.941 73.5664 140.385 73.8241 139.816 73.8241Z" fill="#FF7A3D"/>
<path d="M123.014 39.5763C122.911 39.5763 122.813 39.518 122.767 39.4188C122.704 39.2827 122.763 39.1212 122.899 39.0582L130.927 35.3346C131.063 35.2718 131.225 35.3305 131.288 35.4667C131.351 35.6029 131.292 35.7643 131.156 35.8274L123.128 39.551C123.091 39.5681 123.052 39.5763 123.014 39.5763Z" fill="#3D61FF"/>
<path d="M30.3419 100.917C30.3053 100.917 30.269 100.909 30.2347 100.895C30.156 100.861 30.0979 100.792 30.0777 100.709L26.2084 84.6711C26.1835 84.5666 26.2222 84.457 26.3074 84.3917C26.3928 84.3263 26.5087 84.3172 26.603 84.3692L44.0622 93.9259C44.1555 93.977 44.2105 94.0778 44.2029 94.1836C44.195 94.2897 44.1263 94.3816 44.0268 94.4188L37.3692 96.8976L30.4777 100.88C30.4358 100.904 30.3888 100.917 30.3419 100.917ZM26.8807 85.1404L30.5206 100.228L37.117 96.4159C37.1303 96.4083 37.144 96.4018 37.1581 96.3964L43.28 94.117L26.8807 85.1404Z" fill="#3D61FF"/>
<path d="M124.248 17.1494C124.201 17.1494 124.154 17.137 124.112 17.1129L118.318 13.7645L112.721 11.6805C112.621 11.6433 112.552 11.5514 112.545 11.4454C112.537 11.3394 112.592 11.2387 112.685 11.1876L127.373 3.14783C127.467 3.096 127.583 3.10506 127.668 3.17042C127.754 3.23574 127.792 3.34525 127.767 3.44971L124.512 16.9414C124.492 17.0246 124.434 17.0937 124.355 17.1274C124.321 17.1421 124.284 17.1494 124.248 17.1494ZM113.467 11.3787L118.529 13.2634C118.543 13.2687 118.557 13.2752 118.57 13.2828L124.069 16.4607L127.095 3.91911L113.467 11.3787Z" fill="#AB3DFF"/>
<path d="M37.1002 96.8829C37.0249 96.8829 36.9504 96.852 36.8967 96.7914L26.5299 85.0818C26.4303 84.9695 26.4407 84.7979 26.5531 84.6984C26.6653 84.5992 26.8372 84.6094 26.9364 84.7218L37.3034 96.4312C37.4028 96.5435 37.3924 96.7153 37.2802 96.8148C37.2284 96.8605 37.1641 96.8829 37.1002 96.8829Z" fill="#3D61FF"/>
<path d="M118.563 13.7561C118.499 13.7561 118.435 13.7336 118.383 13.6879C118.271 13.5884 118.26 13.4167 118.36 13.3043L127.081 3.45367C127.18 3.34154 127.352 3.33123 127.464 3.43045C127.577 3.52994 127.587 3.70161 127.488 3.81398L118.766 13.6646C118.713 13.7251 118.638 13.7561 118.563 13.7561Z" fill="#AB3DFF"/>
<path d="M35.0038 101.132C34.9234 101.132 34.8464 101.096 34.7944 101.033L33.1799 99.0786C33.0843 98.963 33.1006 98.7917 33.2162 98.6961C33.3319 98.6007 33.5032 98.6168 33.5987 98.7326L34.9453 100.362L36.7426 96.6957C36.8088 96.5611 36.9713 96.5051 37.1061 96.5714C37.2407 96.6375 37.2966 96.8002 37.2305 96.9349L35.2477 100.98C35.2071 101.062 35.1273 101.119 35.0357 101.13C35.0252 101.131 35.0144 101.132 35.0038 101.132Z" fill="#3D61FF"/>
<path d="M120.326 17.3305C120.316 17.3305 120.305 17.3297 120.295 17.3285C120.203 17.3177 120.123 17.2612 120.082 17.1783L118.414 13.7758C118.348 13.6411 118.404 13.4784 118.539 13.4122C118.673 13.346 118.836 13.4018 118.902 13.5365L120.385 16.5612L121.475 15.2417C121.571 15.1258 121.742 15.1096 121.858 15.2052C121.973 15.3008 121.99 15.472 121.894 15.5876L120.536 17.2317C120.484 17.2947 120.407 17.3305 120.326 17.3305Z" fill="#AB3DFF"/>
<path fill-rule="evenodd" clip-rule="evenodd" d="M75.7625 31.6749C75.7625 31.6749 76.5628 36.2855 77.4712 38.3331C77.4712 38.3331 75.9909 42.8655 79.1128 41.9263C79.1128 41.9263 81.6491 49.1521 88.4104 45.7675L89.6079 49.3412L102.491 47.039L99.612 39.9766L93.0995 28.5056L75.7625 31.6749Z" fill="white"/>
<path d="M89.6077 49.6129C89.4929 49.6129 89.3881 49.5396 89.3503 49.4274L88.2509 46.1464C86.3078 47.0522 84.5181 47.1855 82.9282 46.5421C80.478 45.5505 79.2735 43.0384 78.9479 42.2513C78.2391 42.4153 77.6946 42.3091 77.328 41.934C76.4413 41.0264 77.0176 38.8872 77.1816 38.3485C76.2879 36.2541 75.5273 31.9081 75.4948 31.7213C75.4692 31.5747 75.567 31.4345 75.7137 31.4076L93.0508 28.2382C93.1644 28.218 93.2787 28.271 93.3358 28.3712L99.848 39.8424C99.854 39.8525 99.8592 39.8631 99.8635 39.874L102.743 46.9365C102.774 47.0124 102.769 47.0981 102.729 47.1699C102.69 47.2419 102.62 47.292 102.539 47.3064L89.6558 49.6085C89.6398 49.6115 89.6237 49.6129 89.6077 49.6129ZM88.4105 45.4959C88.4456 45.4959 88.481 45.5027 88.514 45.5164C88.5869 45.5466 88.6428 45.6067 88.6679 45.6813L89.7911 49.0325L102.113 46.8308L99.367 40.0953L92.9586 28.8075L76.0778 31.8935C76.2629 32.8992 76.959 36.5085 77.7194 38.223C77.7467 38.2842 77.7501 38.3535 77.7294 38.4173C77.5154 39.0746 77.0958 40.9192 77.7168 41.5546C77.9714 41.8149 78.415 41.8524 79.0346 41.6663C79.1736 41.6239 79.3209 41.6994 79.3692 41.8361C79.3801 41.8674 80.5025 44.9765 83.1353 46.0396C84.6499 46.6516 86.3839 46.4781 88.2889 45.5246C88.327 45.5056 88.3686 45.4959 88.4105 45.4959Z" fill="#000045"/>
<path d="M89.751 35.397C89.691 35.397 89.6309 35.3773 89.5808 35.3369C89.4638 35.2428 89.4453 35.0719 89.5394 34.9551C90.9813 33.1637 92.5271 32.344 92.5919 32.3099C92.725 32.2405 92.8887 32.2921 92.9583 32.4247C93.0278 32.5574 92.9764 32.7215 92.8437 32.7911C92.8289 32.799 91.3294 33.5975 89.9627 35.2956C89.909 35.3623 89.8303 35.397 89.751 35.397Z" fill="#000045"/>
<path d="M92.3832 35.1342C92.3347 35.1342 92.2856 35.1212 92.2411 35.0939C92.2319 35.0882 91.3205 34.5285 90.6595 34.3167C90.5165 34.2709 90.4378 34.118 90.4835 33.9753C90.5293 33.8323 90.6822 33.7542 90.825 33.7994C91.5496 34.0316 92.4867 34.6073 92.5261 34.6316C92.6539 34.7104 92.6934 34.8777 92.6145 35.0052C92.5634 35.0884 92.4743 35.1342 92.3832 35.1342Z" fill="#000045"/>
<path fill-rule="evenodd" clip-rule="evenodd" d="M88.2486 32.4183C88.2486 32.4183 88.5356 33.7095 88.4703 35.9399C88.4638 35.992 88.4378 36.0377 88.3922 36.0572C88.3399 36.0769 88.2876 36.0704 88.2486 36.0377C87.8311 35.6399 86.84 34.6095 85.8552 32.8358C85.8552 32.8358 79.3079 33.7747 75.8386 32.001L76.0603 33.0966C76.0603 33.0966 73.2365 31.6162 73.8887 28.2187L72.578 29.6011C72.578 29.6011 73.6213 16.8977 85.8552 14.4326C95.6893 12.4566 99.7653 18.5085 99.7653 18.5085C99.7653 18.5085 107.467 22.2191 105.06 30.0186C103 36.7028 102.028 37.72 100.326 41.5417L98.6959 41.8547L93.2961 36.4225C93.2961 36.4225 95.5328 34.6682 93.8765 32.001C92.9699 30.5467 90.231 29.9597 88.2486 32.4183Z" fill="white"/>
<path d="M98.6958 42.1262C98.6242 42.1262 98.5546 42.098 98.5031 42.0461L93.1033 36.6139C93.0487 36.5588 93.0203 36.4831 93.025 36.4058C93.0297 36.3283 93.0673 36.2565 93.1284 36.2087C93.2112 36.1431 95.1496 34.5657 93.6454 32.1442C93.246 31.5032 92.4559 31.0717 91.5836 31.0188C90.4779 30.9515 89.3995 31.4737 88.5398 32.4918C88.6108 32.8787 88.7958 34.0879 88.7415 35.9478C88.7412 35.9565 88.7407 35.9653 88.7398 35.974C88.7205 36.126 88.6304 36.2503 88.4992 36.3065C88.3428 36.3657 88.1886 36.3412 88.0748 36.2465C88.07 36.2424 88.0652 36.2384 88.0608 36.2341C87.577 35.773 86.641 34.7665 85.7084 33.1293C84.6485 33.2645 79.4835 33.8284 76.2104 32.4712L76.3263 33.0426C76.347 33.1454 76.307 33.2509 76.2232 33.3137C76.1393 33.3768 76.0267 33.3858 75.9341 33.337C75.9063 33.3226 73.403 31.9723 73.5242 28.9976L72.7748 29.7878C72.6958 29.8716 72.5724 29.8961 72.467 29.8489C72.3616 29.802 72.2978 29.6935 72.3071 29.5786C72.3181 29.4468 72.5931 26.3087 74.3871 22.817C76.0477 19.5851 79.3759 15.4609 85.8015 14.1662C90.9634 13.1293 94.54 14.3152 96.6312 15.4926C98.6823 16.6477 99.7281 17.9927 99.9476 18.2957C100.306 18.4786 102.026 19.411 103.522 21.1619C105.048 22.9497 106.599 25.9514 105.32 30.0984C103.823 34.9542 102.91 36.808 101.853 38.9545C101.455 39.7634 101.043 40.5998 100.574 41.6522C100.538 41.7333 100.464 41.7917 100.377 41.8084L98.7468 42.1213C98.7298 42.1246 98.7128 42.1262 98.6958 42.1262ZM93.6877 36.4311L98.7864 41.5606L100.136 41.3016C100.585 40.3003 100.982 39.4947 101.366 38.7146C102.413 36.5887 103.317 34.753 104.801 29.9384C105.768 26.8048 105.202 23.9756 103.121 21.5289C101.553 19.6864 99.6658 18.762 99.6471 18.7529C99.6038 18.732 99.5667 18.6998 99.5397 18.6599C99.53 18.6455 98.5151 17.1696 96.3384 15.9513C94.3304 14.8273 90.8911 13.6978 85.9086 14.6986C80.9269 15.7026 77.216 18.5118 74.8792 23.048C73.6651 25.4051 73.1595 27.6412 72.9628 28.8001L73.6914 28.0316C73.7745 27.9439 73.9051 27.9219 74.0125 27.9768C74.1198 28.0319 74.1779 28.1513 74.1554 28.2697C73.7171 30.5523 74.9229 31.9045 75.662 32.4983L75.5722 32.0548C75.5517 31.9526 75.5912 31.8475 75.6743 31.7845C75.7577 31.7216 75.8695 31.7115 75.9621 31.7591C79.3139 33.4728 85.7519 32.5761 85.8165 32.5669C85.9284 32.5509 86.0377 32.6055 86.0926 32.7039C86.8879 34.1364 87.6921 35.0852 88.2059 35.613C88.2349 33.6432 87.9859 32.4889 87.9832 32.4771C87.9654 32.3963 87.9851 32.312 88.037 32.2477C89.0228 31.0252 90.2932 30.3946 91.6167 30.4766C92.6614 30.5402 93.6156 31.069 94.1069 31.8572C95.0262 33.3376 94.8034 34.5599 94.4546 35.3246C94.2194 35.84 93.8997 36.2167 93.6877 36.4311Z" fill="#000045"/>
<path d="M78.3047 34.4501C78.245 34.4501 78.1848 34.4304 78.1344 34.3899C78.0182 34.296 77.9994 34.1259 78.0928 34.0092C78.1196 33.9758 78.7624 33.188 80.131 32.7497C80.274 32.7031 80.4269 32.7826 80.4727 32.9254C80.5185 33.0682 80.4397 33.2212 80.2968 33.2669C79.0935 33.6524 78.5219 34.3426 78.5161 34.3496C78.4626 34.4155 78.3838 34.4501 78.3047 34.4501Z" fill="#000045"/>
<path fill-rule="evenodd" clip-rule="evenodd" d="M79.9503 35.2356C80.4209 35.1719 80.854 35.5018 80.9177 35.9726C80.9814 36.4433 80.6516 36.8765 80.1809 36.9402C79.71 37.0039 79.2772 36.674 79.2135 36.2032C79.1498 35.7324 79.4794 35.2993 79.9503 35.2356Z" fill="#000045"/>
<path fill-rule="evenodd" clip-rule="evenodd" d="M85.6099 38.7706C86.5629 39.7577 86.5362 41.3347 85.5467 42.2901C84.5571 43.2455 82.9801 43.2168 82.0271 42.2298L85.6099 38.7706Z" fill="white"/>
<path d="M83.8168 43.2594C83.0939 43.2595 82.3721 42.978 81.8316 42.4184C81.7816 42.3666 81.7542 42.297 81.7556 42.2251C81.7569 42.1531 81.7866 42.0845 81.8385 42.0344L85.4214 38.5752C85.4731 38.5253 85.5425 38.5004 85.6147 38.4989C85.6867 38.5003 85.7552 38.5301 85.8053 38.5819C86.3167 39.1116 86.5912 39.8094 86.5782 40.547C86.5651 41.2847 86.2657 41.9731 85.7352 42.4853C85.1997 43.0021 84.5077 43.2593 83.8168 43.2594ZM82.423 42.2251C83.2799 42.9192 84.5441 42.8806 85.3579 42.0946C85.7843 41.6833 86.0248 41.1302 86.0351 40.5374C86.044 40.0367 85.8878 39.5587 85.5912 39.1658L82.423 42.2251Z" fill="#000045"/>
<path fill-rule="evenodd" clip-rule="evenodd" d="M84.9229 119.882L81.7078 78.3022V58.9991L103.13 56.1297L116.747 61.8881C119.205 62.1358 127.174 93.0404 129.972 119.882H84.9229Z" fill="#3D61FF"/>
<path fill-rule="evenodd" clip-rule="evenodd" d="M83.2208 54.1277C83.2208 54.1277 82.9925 50.9714 85.6925 49.1323C88.3987 47.2998 105.074 42.585 112.613 45.4282C115.436 46.4912 116.075 49.2237 117.132 53.1952C117.686 55.2885 117.327 55.9471 118.958 58.9274C120.581 61.9076 117.992 64.5292 114.601 64.5161C111.21 64.4966 102.491 64.0009 93.8638 60.7533C85.236 57.4992 83.3904 59.0905 81.4666 60.0816C81.4666 60.0816 80.0645 55.9341 83.2208 54.1277Z" fill="#FF7A3D"/>
<path d="M89.0799 54.6441C89.0525 54.6441 89.0252 54.64 88.9979 54.6314C86.6658 53.8919 84.3223 54.3979 84.2988 54.403C84.1523 54.4362 84.0073 54.3435 83.9747 54.197C83.942 54.0507 84.0341 53.9056 84.1805 53.8728C84.2815 53.8504 86.6858 53.3282 89.1619 54.1135C89.305 54.159 89.3841 54.3116 89.3387 54.4545C89.3018 54.5703 89.1951 54.6441 89.0799 54.6441Z" fill="#000019"/>
<path d="M111.742 58.0598C110.658 58.0598 109.398 57.9652 107.95 57.7214C107.802 57.6966 107.703 57.5565 107.727 57.4084C107.752 57.2605 107.893 57.1607 108.04 57.1858C111.214 57.7203 113.433 57.5005 114.736 57.2215C116.144 56.9203 116.812 56.4882 116.819 56.4838C116.944 56.4013 117.112 56.4355 117.195 56.5606C117.277 56.6854 117.244 56.8532 117.119 56.9363C117.031 56.9948 115.38 58.0598 111.742 58.0598Z" fill="#000045"/>
<path fill-rule="evenodd" clip-rule="evenodd" d="M55.7141 34.2521C55.7141 33.0048 54.7033 31.9908 53.4509 31.9908C45.234 31.9908 17.0293 31.9908 8.81249 31.9908C7.56061 31.9908 6.54348 33.0048 6.54348 34.2521C6.54348 40.2741 6.54348 56.6199 6.54348 62.642C6.54348 63.8895 7.56061 64.9035 8.81249 64.9035C17.0293 64.9035 45.234 64.9035 53.4509 64.9035C54.7033 64.9035 55.7141 63.8895 55.7141 62.642C55.7141 56.6199 55.7141 40.2741 55.7141 34.2521Z" fill="white"/>
<path d="M53.4509 65.175H8.8125C7.41146 65.175 6.27169 64.0388 6.27169 62.6421V34.2521C6.27169 32.8554 7.41146 31.7192 8.8125 31.7192H53.4509C54.8486 31.7192 55.9857 32.8554 55.9857 34.2521V62.6421C55.9857 64.0388 54.8487 65.175 53.4509 65.175ZM8.8125 32.2624C7.71105 32.2624 6.81504 33.155 6.81504 34.2521V62.6421C6.81504 63.7393 7.71099 64.6319 8.8125 64.6319H53.4509C54.5491 64.6319 55.4423 63.7393 55.4423 62.6421V34.2521C55.4423 33.155 54.5491 32.2624 53.4509 32.2624H8.8125Z" fill="#FF7A3D"/>
<path fill-rule="evenodd" clip-rule="evenodd" d="M49.8858 13.9509C49.8858 13.448 49.6918 12.9735 49.3337 12.6192C48.9803 12.2652 48.5027 12.0669 48.0002 12.0669H14.265C13.7625 12.0669 13.2848 12.2652 12.9316 12.6192C12.5734 12.9735 12.3744 13.448 12.3744 13.9509C12.3744 19.6668 12.3744 36.3895 12.3744 36.3895C12.3744 36.3895 24.394 45.4556 29.1848 49.0679C30.339 49.939 31.9211 49.9389 33.0705 49.0749C37.8713 45.4555 49.8858 36.3895 49.8858 36.3895C49.8858 36.3895 49.8858 19.6668 49.8858 13.9509Z" fill="white"/>
<path d="M31.1338 49.9889C30.3886 49.9889 29.6432 49.7542 29.0212 49.2846C24.2303 45.6727 12.211 36.6064 12.211 36.6064C12.1428 36.555 12.1029 36.4749 12.1029 36.3897V13.9511C12.1029 13.3747 12.3293 12.8331 12.7406 12.4264C13.1458 12.0201 13.6876 11.7955 14.265 11.7955H48.0003C48.5774 11.7955 49.1192 12.0201 49.5259 12.4277C49.9328 12.8301 50.1575 13.3715 50.1575 13.9511V36.3897C50.1575 36.475 50.1174 36.5552 50.0494 36.6065C50.0494 36.6065 38.0348 45.6728 33.2339 49.2919C32.6156 49.7566 31.8748 49.9889 31.1338 49.9889ZM12.6461 36.2544C13.8511 37.1631 24.8235 45.4394 29.3484 48.8509C30.3966 49.6423 31.8601 49.6448 32.9072 48.8578C37.4411 45.4399 48.4097 37.1632 49.6143 36.2544V13.951C49.6143 13.5177 49.4466 13.1133 49.1427 12.8124C48.8372 12.5065 48.432 12.3386 48.0003 12.3386H14.265C13.8329 12.3386 13.4278 12.5065 13.124 12.8111C12.8153 13.1164 12.6461 13.5207 12.6461 13.951V36.2544Z" fill="#3D61FF"/>
<path d="M31.141 49.9675C30.3934 49.9675 29.6457 49.7339 29.0219 49.2664C23.3327 44.9736 7.18996 32.8025 7.18996 32.8025L7.51676 32.3686C7.51676 32.3686 23.6597 44.5399 29.3484 48.8322C30.4037 49.623 31.8789 49.623 32.935 48.8316C38.6231 44.5399 54.7658 32.3686 54.7658 32.3686L55.0929 32.8025C55.0929 32.8025 38.9504 44.9736 33.2616 49.2659C32.6371 49.7337 31.8889 49.9675 31.141 49.9675Z" fill="#FF7A3D"/>
<path d="M31.6307 19.6862H18.3338C18.1836 19.6862 18.062 19.5647 18.062 19.4147C18.062 19.2648 18.1836 19.1431 18.3338 19.1431H31.6307C31.7809 19.1431 31.9025 19.2648 31.9025 19.4147C31.9025 19.5647 31.7809 19.6862 31.6307 19.6862Z" fill="#3D61FF"/>
<path d="M43.9266 25.035H18.3478C18.1975 25.035 18.0762 24.9134 18.0762 24.7634C18.0762 24.6134 18.1975 24.4919 18.3478 24.4919H43.9266C44.0768 24.4919 44.1981 24.6134 44.1981 24.7634C44.1981 24.9134 44.0767 25.035 43.9266 25.035Z" fill="#3D61FF"/>
<path d="M43.9266 30.3827H18.3478C18.1975 30.3827 18.0762 30.2609 18.0762 30.1111C18.0762 29.9611 18.1975 29.8394 18.3478 29.8394H43.9266C44.0768 29.8394 44.1981 29.9611 44.1981 30.1111C44.1981 30.2609 44.0767 30.3827 43.9266 30.3827Z" fill="#3D61FF"/>
<path d="M43.9266 35.7301H18.3478C18.1975 35.7301 18.0762 35.6085 18.0762 35.4585C18.0762 35.3086 18.1975 35.187 18.3478 35.187H43.9266C44.0768 35.187 44.1981 35.3086 44.1981 35.4585C44.1981 35.6085 44.0767 35.7301 43.9266 35.7301Z" fill="#3D61FF"/>
<path fill-rule="evenodd" clip-rule="evenodd" d="M56.9358 60.0163C56.9358 60.0163 55.7956 57.5579 55.5566 56.083C55.3175 54.6012 54.3955 52.9827 53.7129 52.2998C53.0572 51.6444 51.9646 52.2998 51.9646 52.2998C51.9646 52.2998 48.8098 48.0252 47.3553 46.0516C46.959 45.5191 46.2014 45.4028 45.6686 45.7989C45.293 46.0789 45.1837 46.5911 45.4296 46.9941C46.4744 48.7354 49.0965 53.0989 49.0965 53.0989C49.0965 53.0989 47.6355 53.6109 47.198 54.8537C47.198 54.8537 45.7163 55.6323 45.641 57.0253C45.641 57.0253 44.6581 57.9882 44.9995 59.4767C45.3407 60.9653 47.198 62.2423 48.2429 62.8637C49.2878 63.4919 50.2711 64.7143 50.2711 64.7143L53.4597 63.7583L56.9358 60.0163Z" fill="white"/>
<path d="M50.2712 64.9861C50.1902 64.9861 50.1118 64.95 50.0595 64.8847C50.0497 64.8729 49.0932 63.6919 48.1031 63.0967C46.7555 62.295 45.0762 61.0262 44.7347 59.5374C44.4165 58.1511 45.1364 57.186 45.3775 56.9102C45.5015 55.6379 46.6386 54.8688 46.9785 54.666C47.3538 53.7282 48.2349 53.1972 48.7032 52.9718C48.1183 51.9981 46.0862 48.6159 45.1967 47.1337C44.8809 46.6165 45.0136 45.9482 45.5065 45.581C46.1591 45.0958 47.0862 45.2344 47.5734 45.8893C48.8482 47.619 51.427 51.1133 52.047 51.9535C52.4475 51.774 53.3013 51.5039 53.9051 52.1075C54.6585 52.8611 55.5829 54.5379 55.825 56.0395C56.0552 57.4601 57.1713 59.8776 57.1826 59.9018C57.2289 60.0019 57.2104 60.1202 57.1351 60.2012L53.6593 63.9433C53.6263 63.9787 53.5846 64.0047 53.5382 64.0187L50.3493 64.9746C50.3234 64.9825 50.2972 64.9861 50.2712 64.9861ZM46.3831 45.8344C46.1905 45.8344 45.9965 45.8937 45.8309 46.0171C45.5649 46.2152 45.492 46.5744 45.6616 46.8523C46.7076 48.5953 49.3296 52.9588 49.3296 52.9588C49.3718 53.0289 49.3799 53.1142 49.3524 53.1912C49.3246 53.268 49.2638 53.3282 49.1865 53.3552C49.1737 53.3598 47.8421 53.8428 47.4547 54.9439C47.4319 55.0088 47.3856 55.0623 47.3247 55.0943C47.3116 55.1012 45.9785 55.8215 45.9127 57.04C45.909 57.1078 45.8799 57.172 45.8314 57.2196C45.7965 57.2544 44.9629 58.1016 45.2643 59.4158C45.5786 60.786 47.3525 62.0179 48.3819 62.6302C49.2546 63.1546 50.0673 64.0546 50.3648 64.4025L53.3112 63.5192L56.6136 59.9638C56.3508 59.3788 55.4969 57.414 55.2883 56.1264C55.0666 54.7516 54.1981 53.1694 53.5206 52.4921C53.0248 51.9957 52.1131 52.5279 52.1041 52.533C51.9838 52.6045 51.8289 52.5735 51.7461 52.4613C51.7461 52.4613 48.5913 48.1864 47.1366 46.2128C46.9525 45.9655 46.6692 45.8344 46.3831 45.8344Z" fill="#000045"/>
<path d="M53.7505 54.9426C53.6682 54.9425 53.5867 54.9052 53.5333 54.8343L52.2124 53.0784C52.1223 52.9584 52.1463 52.7882 52.2661 52.698C52.3861 52.6078 52.5563 52.6319 52.6467 52.7517L53.9675 54.5077C54.0577 54.6275 54.0337 54.7979 53.9136 54.8881C53.8649 54.9249 53.8076 54.9425 53.7505 54.9426Z" fill="#000045"/>
<path fill-rule="evenodd" clip-rule="evenodd" d="M60.3505 62.6315C61.2572 62.6511 61.8442 62.9249 62.5156 63.5641C64.3875 65.3575 68.1436 69.368 74.2408 77.6045C74.2408 77.6045 78.3757 63.525 81.3817 60.2187C84.3881 56.9189 96.1918 61.6859 93.2571 74.559C90.3289 87.4386 85.5033 99.3139 77.3973 99.503C69.2846 99.6922 63.6048 92.1404 57.6768 83.7865C51.7425 75.4327 50.8035 70.4506 51.3968 68.7356C51.3968 68.7356 51.4163 68.6637 51.4752 68.5398C51.3055 68.1876 50.6861 67.2094 50.21 66.2834C49.8383 65.566 49.962 64.6988 50.5164 64.1119C51.573 62.9901 53.6598 61.1314 56.7377 59.8664C57.2856 59.6447 57.9118 59.7946 58.2962 60.2446C59.0918 61.1643 60.3505 62.6315 60.3505 62.6315Z" fill="#3D61FF"/>
<path d="M85.0403 95.3988C84.9802 95.3988 84.9202 95.3793 84.8699 95.3387C84.7533 95.2445 84.7348 95.0736 84.8288 94.9567C88.0714 90.9332 90.8182 84.0501 92.9924 74.4987C94.3179 68.6731 92.5421 65.0027 90.819 62.9495C90.7223 62.8345 90.7374 62.6632 90.8522 62.5669C90.9671 62.4704 91.1386 62.4851 91.2349 62.6002C93.0374 64.7478 94.8972 68.5762 93.5219 74.6191C91.3292 84.252 88.547 91.2092 85.2518 95.2976C85.1982 95.3642 85.1197 95.3988 85.0403 95.3988Z" fill="#000045"/>
<path d="M52.5678 67.8165C52.5021 67.8165 52.4363 67.7928 52.3841 67.7447C52.2738 67.6432 52.2664 67.4715 52.3682 67.3611C52.4791 67.2401 55.1339 64.3836 58.877 62.9639C59.0175 62.9112 59.1743 62.9813 59.2275 63.1217C59.2805 63.2619 59.21 63.4188 59.0699 63.472C55.4505 64.8447 52.7943 67.7001 52.768 67.7288C52.7142 67.7869 52.6412 67.8165 52.5678 67.8165Z" fill="#000045"/>
<path d="M77.6581 87.9645C77.6551 87.9645 77.6521 87.9645 77.6491 87.9643C77.4992 87.9593 77.3815 87.8337 77.3865 87.6838C77.5442 82.9239 74.5039 79.1113 74.4731 79.0733C74.3787 78.9568 74.3968 78.7857 74.5131 78.6913C74.6297 78.5968 74.8007 78.6148 74.895 78.7311C75.0257 78.8922 78.0939 82.7341 77.9294 87.7019C77.9247 87.8488 77.804 87.9645 77.6581 87.9645Z" fill="#000045"/>
</svg>
